<svg style="background:#F4F5F2" viewBox="0 0 1300 760" role="img" aria-label="BO-406 Fin (x4 + 1 spare) manufacturing drawing" xmlns="http://www.w3.org/2000/svg"><style>
.ln{fill:none;stroke:#1B2126;stroke-width:1.3;stroke-linejoin:round}.thin{stroke-width:.8}
.body{fill:#E3E7E2;stroke:#1B2126;stroke-width:1.3}.band{fill:#D5DBD5;stroke:#1B2126;stroke-width:1}
.comp{fill:#DCE3EA;stroke:#1B2126;stroke-width:.8}.cut{stroke:#1B2126;stroke-width:1}
.hatch{stroke:#7D8784;stroke-width:.8}.hatchbg{fill:#F4F5F2}.hatchbg2{fill:#E9ECE7}
.hid{fill:none;stroke:#87918F;stroke-width:.9;stroke-dasharray:5 3}
.ctr{fill:none;stroke:#87918F;stroke-width:.7;stroke-dasharray:22 4 3 4}
.ph{fill:none;stroke:#C24A0C;stroke-width:1.2;stroke-dasharray:14 4 3 4 3 4}
.dim{fill:none;stroke:#1D6A86;stroke-width:.8}.ext{fill:none;stroke:#1D6A86;stroke-width:.6}
.mk{fill:#1D6A86}.mkink{fill:#1B2126}.mkacc{fill:#C24A0C}.ldr{fill:none;stroke:#4A545C;stroke-width:.7}.dot{fill:#4A545C}
text{font-family:'IBM Plex Mono',Consolas,monospace;font-size:12px;fill:#1B2126}
.td{fill:#1D6A86}.ta{fill:#C24A0C}.tm{fill:#4A545C}.tb{font-weight:600}.ts{font-size:10.5px}
.tl{font-size:15px;font-weight:600;letter-spacing:.06em}
.pill{fill:#F4F5F2;stroke:#1B2126;stroke-width:1}.cgf{fill:#1B2126}.cgb{fill:#F4F5F2;stroke:#1B2126;stroke-width:1.4}
.accf{fill:#C24A0C}.eye{fill:none;stroke:#1B2126;stroke-width:2.4}
.box{fill:#E9ECE7;stroke:#1B2126;stroke-width:1.1}.boxacc{fill:#F8E3D5;stroke:#C24A0C;stroke-width:1.2;stroke-dasharray:6 3}
.boxdim{fill:#DDEBF0;stroke:#1D6A86;stroke-width:1.1}
.arrow{fill:none;stroke:#1B2126;stroke-width:1.3}.arrowacc{fill:none;stroke:#C24A0C;stroke-width:1.5}
.arrowdim{fill:none;stroke:#1D6A86;stroke-width:1.3;stroke-dasharray:6 4}
</style><defs><marker id="a-pbo_406" viewBox="0 0 10 10" refX="9.5" refY="5" markerWidth="9" markerHeight="9" markerUnits="userSpaceOnUse" orient="auto-start-reverse"><path d="M0,1.5 L10,5 L0,8.5 z" class="mk"/></marker><marker id="b-pbo_406" viewBox="0 0 10 10" refX="9.5" refY="5" markerWidth="10" markerHeight="10" markerUnits="userSpaceOnUse" orient="auto-start-reverse"><path d="M0,1 L10,5 L0,9 z" class="mkink"/></marker><marker id="c-pbo_406" viewBox="0 0 10 10" refX="9.5" refY="5" markerWidth="10" markerHeight="10" markerUnits="userSpaceOnUse" orient="auto-start-reverse"><path d="M0,1 L10,5 L0,9 z" class="mkacc"/></marker><pattern id="h1-pbo_406" width="5" height="5" patternUnits="userSpaceOnUse" patternTransform="rotate(45)"><rect width="5" height="5" class="hatchbg"/><line x1="0" y1="0" x2="0" y2="5" class="hatch"/></pattern><pattern id="h2-pbo_406" width="5" height="5" patternUnits="userSpaceOnUse" patternTransform="rotate(-45)"><rect width="5" height="5" class="hatchbg"/><line x1="0" y1="0" x2="0" y2="5" class="hatch"/></pattern><pattern id="h3-pbo_406" width="9" height="9" patternUnits="userSpaceOnUse" patternTransform="rotate(30)"><rect width="9" height="9" class="hatchbg2"/><line x1="0" y1="0" x2="0" y2="9" class="hatch"/></pattern></defs><text x="40.0" y="82.0" text-anchor="start" class="tb ts">FLAT PATTERN (true shape)</text><path d="M545.09,137.56 L407.00,137.56 L246.11,275.47 L85.00,413.56 L107.98,413.56 L131.00,413.56 L131.00,442.98 L131.00,472.44 L438.99,472.44 L747.40,472.44 L747.40,443.02 L747.40,413.56 L761.19,413.56 L775.00,413.56 L729.03,275.65 L683.00,137.56 L545.09,137.56 Z" class="cut" fill="url(#h1-pbo_406)" fill-rule="evenodd"/><line x1="85.0" y1="475.4" x2="85.0" y2="507.4" class="ext"/><line x1="775.0" y1="475.4" x2="775.0" y2="507.4" class="ext"/><line x1="85.0" y1="502.4" x2="775.0" y2="502.4" class="dim" marker-start="url(#a-pbo_406)" marker-end="url(#a-pbo_406)"/><text x="430.0" y="517.4" text-anchor="middle" class="td">150.0</text><line x1="778.0" y1="137.6" x2="814.0" y2="137.6" class="ext"/><line x1="778.0" y1="472.4" x2="814.0" y2="472.4" class="ext"/><line x1="809.0" y1="137.6" x2="809.0" y2="472.4" class="dim" marker-start="url(#a-pbo_406)" marker-end="url(#a-pbo_406)"/><text x="823.0" y="305.0" text-anchor="middle" class="td" transform="rotate(-90 823.0 305.0)">72.8</text><text x="816.0" y="516.0" text-anchor="end" class="tm ts">view scale 4.60:1</text><text x="860.0" y="82.0" text-anchor="start" class="tb ts">SECTION B-B @ STA 1060.0 (looking aft)</text><path d="M1052.65,141.98 L1052.65,475.00 L1058.79,475.00 L1067.35,475.00 L1067.35,141.98 L1067.35,137.80 L1067.35,135.00 L1053.49,135.00 L1052.65,135.00 L1052.65,137.80 L1052.65,141.98 Z" class="cut" fill="url(#h1-pbo_406)" fill-rule="evenodd"/><line x1="1052.6" y1="478.0" x2="1052.6" y2="510.0" class="ext"/><line x1="1067.4" y1="478.0" x2="1067.4" y2="510.0" class="ext"/><line x1="1052.6" y1="505.0" x2="1067.4" y2="505.0" class="dim" marker-start="url(#a-pbo_406)" marker-end="url(#a-pbo_406)"/><text x="1060.0" y="520.0" text-anchor="middle" class="td">3.0</text><line x1="1070.4" y1="135.0" x2="1106.4" y2="135.0" class="ext"/><line x1="1070.4" y1="475.0" x2="1106.4" y2="475.0" class="ext"/><line x1="1101.4" y1="135.0" x2="1101.4" y2="475.0" class="dim" marker-start="url(#a-pbo_406)" marker-end="url(#a-pbo_406)"/><text x="1115.4" y="305.0" text-anchor="middle" class="td" transform="rotate(-90 1115.4 305.0)">69.4</text><text x="1256.0" y="516.0" text-anchor="end" class="tm ts">view scale 4.90:1</text><text x="40.0" y="560.0" text-anchor="start" class="ts">Kind: ply · material: 3 mm aircraft birch ply</text><text x="460.0" y="560.0" text-anchor="start" class="ts">Volume 24.05 cm3 · mass/each 18.0 g (fill 1.0)</text><text x="880.0" y="560.0" text-anchor="start" class="ts">BBox (assembly) Z 994.0..1144.0 · r_max 93.01</text><text x="40.0" y="576.0" text-anchor="start" class="ts">Mesh: 28 tris · closed True · CGAL simple None</text><text x="460.0" y="576.0" text-anchor="start" class="ts">Qty 4 · finish x1.1</text><text x="880.0" y="576.0" text-anchor="start" class="ts">Datum: STA 0 = nose tip; angles from +X toward +Y</text><text x="40.0" y="592.0" text-anchor="start" class="ts">Export: cad/exports/dxf/BO-406_fin_x4_1_spare.dxf</text><text x="460.0" y="592.0" text-anchor="start" class="ts">Export: cad/exports/dxf/BO-406_fin_x4_1_spare.svg</text><text x="880.0" y="592.0" text-anchor="start" class="ts">Tol: Profile ±0.3; cant 0° ±0.25°</text><text x="40.0" y="608.0" text-anchor="start" class="ts">Assembly: Slide in from aft, lock with BO-405; no glue</text><text x="18.0" y="24.0" text-anchor="start" class="tl">BO-406 · FIN (X4 + 1 SPARE)</text><text x="18.0" y="40.0" text-anchor="start" class="tm ts">Source: cad/parts/BO-406_fin.scad · generated from the CAD mesh</text><rect x="12.0" y="710.0" width="1276.0" height="38.0" class="ln thin"/><line x1="12.0" y1="710.0" x2="12.0" y2="748.0" class="ln thin"/><text x="18.0" y="723.0" text-anchor="start" class="tm ts">DWG NO.</text><text x="18.0" y="740.0" text-anchor="start">CAD-BO-406</text><line x1="132.0" y1="710.0" x2="132.0" y2="748.0" class="ln thin"/><text x="138.0" y="723.0" text-anchor="start" class="tm ts">TITLE</text><text x="138.0" y="740.0" text-anchor="start" class="tb">BO-406 Fin (x4 + 1 spare)</text><line x1="552.0" y1="710.0" x2="552.0" y2="748.0" class="ln thin"/><text x="558.0" y="723.0" text-anchor="start" class="tm ts">MATERIAL</text><text x="558.0" y="740.0" text-anchor="start">3 mm aircraft birch ply</text><line x1="736.0" y1="710.0" x2="736.0" y2="748.0" class="ln thin"/><text x="742.0" y="723.0" text-anchor="start" class="tm ts">QTY</text><text x="742.0" y="740.0" text-anchor="start">4</text><line x1="920.0" y1="710.0" x2="920.0" y2="748.0" class="ln thin"/><text x="926.0" y="723.0" text-anchor="start" class="tm ts">UNITS</text><text x="926.0" y="740.0" text-anchor="start">mm</text><line x1="1104.0" y1="710.0" x2="1104.0" y2="748.0" class="ln thin"/><text x="1110.0" y="723.0" text-anchor="start" class="tm ts">REV</text><text x="1110.0" y="740.0" text-anchor="start">B</text></svg>