<svg style="background:#F4F5F2" viewBox="0 0 1300 760" role="img" aria-label="AV-304 Aft bulkhead (2 discs) manufacturing drawing" xmlns="http://www.w3.org/2000/svg"><style>
.ln{fill:none;stroke:#1B2126;stroke-width:1.3;stroke-linejoin:round}.thin{stroke-width:.8}
.body{fill:#E3E7E2;stroke:#1B2126;stroke-width:1.3}.band{fill:#D5DBD5;stroke:#1B2126;stroke-width:1}
.comp{fill:#DCE3EA;stroke:#1B2126;stroke-width:.8}.cut{stroke:#1B2126;stroke-width:1}
.hatch{stroke:#7D8784;stroke-width:.8}.hatchbg{fill:#F4F5F2}.hatchbg2{fill:#E9ECE7}
.hid{fill:none;stroke:#87918F;stroke-width:.9;stroke-dasharray:5 3}
.ctr{fill:none;stroke:#87918F;stroke-width:.7;stroke-dasharray:22 4 3 4}
.ph{fill:none;stroke:#C24A0C;stroke-width:1.2;stroke-dasharray:14 4 3 4 3 4}
.dim{fill:none;stroke:#1D6A86;stroke-width:.8}.ext{fill:none;stroke:#1D6A86;stroke-width:.6}
.mk{fill:#1D6A86}.mkink{fill:#1B2126}.mkacc{fill:#C24A0C}.ldr{fill:none;stroke:#4A545C;stroke-width:.7}.dot{fill:#4A545C}
text{font-family:'IBM Plex Mono',Consolas,monospace;font-size:12px;fill:#1B2126}
.td{fill:#1D6A86}.ta{fill:#C24A0C}.tm{fill:#4A545C}.tb{font-weight:600}.ts{font-size:10.5px}
.tl{font-size:15px;font-weight:600;letter-spacing:.06em}
.pill{fill:#F4F5F2;stroke:#1B2126;stroke-width:1}.cgf{fill:#1B2126}.cgb{fill:#F4F5F2;stroke:#1B2126;stroke-width:1.4}
.accf{fill:#C24A0C}.eye{fill:none;stroke:#1B2126;stroke-width:2.4}
.box{fill:#E9ECE7;stroke:#1B2126;stroke-width:1.1}.boxacc{fill:#F8E3D5;stroke:#C24A0C;stroke-width:1.2;stroke-dasharray:6 3}
.boxdim{fill:#DDEBF0;stroke:#1D6A86;stroke-width:1.1}
.arrow{fill:none;stroke:#1B2126;stroke-width:1.3}.arrowacc{fill:none;stroke:#C24A0C;stroke-width:1.5}
.arrowdim{fill:none;stroke:#1D6A86;stroke-width:1.3;stroke-dasharray:6 4}
</style><defs><marker id="a-pav_304" viewBox="0 0 10 10" refX="9.5" refY="5" markerWidth="9" markerHeight="9" markerUnits="userSpaceOnUse" orient="auto-start-reverse"><path d="M0,1.5 L10,5 L0,8.5 z" class="mk"/></marker><marker id="b-pav_304" viewBox="0 0 10 10" refX="9.5" refY="5" markerWidth="10" markerHeight="10" markerUnits="userSpaceOnUse" orient="auto-start-reverse"><path d="M0,1 L10,5 L0,9 z" class="mkink"/></marker><marker id="c-pav_304" viewBox="0 0 10 10" refX="9.5" refY="5" markerWidth="10" markerHeight="10" markerUnits="userSpaceOnUse" orient="auto-start-reverse"><path d="M0,1 L10,5 L0,9 z" class="mkacc"/></marker><pattern id="h1-pav_304" width="5" height="5" patternUnits="userSpaceOnUse" patternTransform="rotate(45)"><rect width="5" height="5" class="hatchbg"/><line x1="0" y1="0" x2="0" y2="5" class="hatch"/></pattern><pattern id="h2-pav_304" width="5" height="5" patternUnits="userSpaceOnUse" patternTransform="rotate(-45)"><rect width="5" height="5" class="hatchbg"/><line x1="0" y1="0" x2="0" y2="5" class="hatch"/></pattern><pattern id="h3-pav_304" width="9" height="9" patternUnits="userSpaceOnUse" patternTransform="rotate(30)"><rect width="9" height="9" class="hatchbg2"/><line x1="0" y1="0" x2="0" y2="9" class="hatch"/></pattern></defs><text x="40.0" y="82.0" text-anchor="start" class="tb ts">SECTION A-A (axial plane through the feature angle)</text><path d="M398.33,287.68 L461.97,287.68 L461.97,135.72 L461.97,135.00 L461.96,135.00 L430.00,135.00 L430.00,142.99 L430.00,142.99 L429.98,142.99 L398.03,142.99 L398.03,287.61 L398.03,287.68 L398.33,287.68 Z M461.67,322.32 L461.97,322.32 L461.97,322.39 L461.97,475.00 L430.02,475.00 L430.00,475.00 L430.00,475.00 L430.00,467.01 L398.04,467.01 L398.03,467.01 L398.03,466.33 L398.03,322.32 L461.67,322.32 Z" class="cut" fill="url(#h1-pav_304)" fill-rule="evenodd"/><line x1="398.0" y1="478.0" x2="398.0" y2="510.0" class="ext"/><line x1="462.0" y1="478.0" x2="462.0" y2="510.0" class="ext"/><line x1="398.0" y1="505.0" x2="462.0" y2="505.0" class="dim" marker-start="url(#a-pav_304)" marker-end="url(#a-pav_304)"/><text x="430.0" y="520.0" text-anchor="middle" class="td">12.0</text><line x1="465.0" y1="135.0" x2="501.0" y2="135.0" class="ext"/><line x1="465.0" y1="475.0" x2="501.0" y2="475.0" class="ext"/><line x1="496.0" y1="135.0" x2="496.0" y2="475.0" class="dim" marker-start="url(#a-pav_304)" marker-end="url(#a-pav_304)"/><text x="510.0" y="305.0" text-anchor="middle" class="td" transform="rotate(-90 510.0 305.0)">63.8</text><text x="816.0" y="516.0" text-anchor="end" class="tm ts">view scale 5.33:1</text><text x="860.0" y="82.0" text-anchor="start" class="tb ts">SECTION B-B @ STA 611.0 (looking aft)</text><path d="M969.49,304.84 L969.47,304.25 L969.46,304.09 L969.40,303.50 L969.37,303.35 L969.28,302.76 L969.24,302.61 L969.11,302.03 L969.06,301.88 L968.89,301.31 L968.83,301.17 L968.62,300.61 L968.56,300.47 L968.32,299.93 L968.24,299.79 L967.96,299.26 L967.88,299.13 L967.56,298.63 L967.47,298.50 L967.13,298.02 L967.03,297.90 L966.65,297.44 L966.54,297.32 L966.14,296.89 L965.70,296.48 L965.59,296.37 L965.13,296.00 L965.01,295.90 L964.53,295.55 L964.40,295.46 L963.90,295.15 L963.76,295.06 L963.24,294.78 L963.10,294.71 L962.56,294.47 L962.42,294.40 L961.86,294.19 L961.71,294.14 L961.15,293.96 L961.00,293.92 L960.42,293.78 L960.26,293.75 L959.68,293.65 L959.52,293.63 L958.93,293.57 L958.78,293.55 L958.18,293.53 L958.03,293.53 L957.43,293.55 L957.28,293.55 L956.68,293.61 L956.53,293.63 L955.94,293.72 L955.79,293.75 L955.21,293.88 L955.06,293.92 L954.49,294.09 L954.34,294.14 L953.78,294.35 L953.64,294.40 L953.10,294.65 L952.95,294.71 L952.43,294.99 L952.29,295.06 L951.79,295.38 L951.65,295.46 L951.17,295.81 L951.04,295.90 L950.58,296.28 L950.46,296.37 L950.03,296.78 L949.91,296.89 L949.81,297.00 L949.40,297.44 L949.30,297.56 L948.93,298.02 L948.83,298.14 L948.49,298.63 L948.41,298.76 L948.09,299.26 L948.02,299.40 L947.74,299.93 L947.67,300.07 L947.43,300.61 L947.37,300.76 L947.16,301.31 L947.12,301.46 L946.95,302.03 L946.91,302.18 L946.77,302.76 L946.75,302.92 L946.65,303.50 L946.64,303.66 L946.58,304.25 L946.57,304.41 L946.55,305.00 L946.56,305.16 L946.58,305.75 L946.59,305.91 L946.65,306.50 L946.68,306.65 L946.77,307.24 L946.81,307.39 L946.95,307.97 L946.99,308.12 L947.16,308.69 L947.22,308.83 L947.43,309.39 L947.49,309.53 L947.74,310.07 L947.81,310.21 L948.09,310.74 L948.17,310.87 L948.49,311.37 L948.58,311.50 L948.93,311.98 L949.02,312.10 L949.40,312.56 L949.51,312.68 L949.91,313.11 L950.35,313.52 L950.46,313.63 L950.92,314.00 L951.04,314.10 L951.53,314.45 L951.65,314.54 L952.16,314.85 L952.29,314.94 L952.81,315.22 L952.95,315.29 L953.49,315.53 L953.64,315.60 L954.19,315.81 L954.34,315.86 L954.91,316.04 L955.06,316.08 L955.64,316.22 L955.79,316.25 L956.37,316.35 L956.53,316.37 L957.12,316.43 L957.28,316.45 L957.87,316.47 L958.03,316.47 L958.62,316.45 L958.78,316.45 L959.37,316.39 L959.52,316.37 L960.11,316.28 L960.26,316.25 L960.84,316.12 L961.00,316.08 L961.56,315.91 L961.71,315.86 L962.27,315.65 L962.42,315.60 L962.96,315.35 L963.10,315.29 L963.62,315.01 L963.76,314.94 L964.27,314.62 L964.40,314.54 L964.88,314.19 L965.01,314.10 L965.47,313.72 L965.59,313.63 L966.02,313.22 L966.14,313.11 L966.25,313.00 L966.65,312.56 L966.75,312.44 L967.13,311.98 L967.22,311.86 L967.56,311.37 L967.65,311.24 L967.96,310.74 L968.04,310.60 L968.32,310.07 L968.38,309.93 L968.62,309.39 L968.68,309.24 L968.89,308.69 L968.93,308.54 L969.11,307.97 L969.14,307.82 L969.28,307.24 L969.30,307.08 L969.40,306.50 L969.42,306.34 L969.47,305.75 L969.48,305.59 L969.50,305.00 L969.49,304.84 Z M1173.44,304.84 L1173.42,304.25 L1173.41,304.09 L1173.35,303.50 L1173.32,303.35 L1173.23,302.76 L1173.19,302.61 L1173.05,302.03 L1173.01,301.88 L1172.84,301.31 L1172.78,301.17 L1172.57,300.61 L1172.51,300.47 L1172.26,299.93 L1172.19,299.79 L1171.91,299.26 L1171.83,299.13 L1171.51,298.63 L1171.42,298.50 L1171.07,298.02 L1170.98,297.90 L1170.60,297.44 L1170.49,297.32 L1170.09,296.89 L1169.65,296.48 L1169.54,296.37 L1169.08,296.00 L1168.96,295.90 L1168.47,295.55 L1168.35,295.46 L1167.84,295.15 L1167.71,295.06 L1167.19,294.78 L1167.05,294.71 L1166.51,294.47 L1166.36,294.40 L1165.81,294.19 L1165.66,294.14 L1165.09,293.96 L1164.94,293.92 L1164.36,293.78 L1164.21,293.75 L1163.63,293.65 L1163.47,293.63 L1162.88,293.57 L1162.72,293.55 L1162.13,293.53 L1161.97,293.53 L1161.38,293.55 L1161.22,293.55 L1160.63,293.61 L1160.48,293.63 L1159.89,293.72 L1159.74,293.75 L1159.16,293.88 L1159.00,293.92 L1158.44,294.09 L1158.29,294.14 L1157.73,294.35 L1157.58,294.40 L1157.04,294.65 L1156.90,294.71 L1156.38,294.99 L1156.24,295.06 L1155.73,295.38 L1155.60,295.46 L1155.12,295.81 L1154.99,295.90 L1154.53,296.28 L1154.41,296.37 L1153.98,296.78 L1153.86,296.89 L1153.75,297.00 L1153.35,297.44 L1153.25,297.56 L1152.87,298.02 L1152.78,298.14 L1152.44,298.63 L1152.35,298.76 L1152.04,299.26 L1151.96,299.40 L1151.68,299.93 L1151.62,300.07 L1151.38,300.61 L1151.32,300.76 L1151.11,301.31 L1151.07,301.46 L1150.89,302.03 L1150.86,302.18 L1150.72,302.76 L1150.70,302.92 L1150.60,303.50 L1150.58,303.66 L1150.53,304.25 L1150.52,304.41 L1150.50,305.00 L1150.51,305.16 L1150.53,305.75 L1150.54,305.91 L1150.60,306.50 L1150.63,306.65 L1150.72,307.24 L1150.76,307.39 L1150.89,307.97 L1150.94,308.12 L1151.11,308.69 L1151.17,308.83 L1151.38,309.39 L1151.44,309.53 L1151.68,310.07 L1151.76,310.21 L1152.04,310.74 L1152.12,310.87 L1152.44,311.37 L1152.53,311.50 L1152.87,311.98 L1152.97,312.10 L1153.35,312.56 L1153.46,312.68 L1153.86,313.11 L1154.30,313.52 L1154.41,313.63 L1154.87,314.00 L1154.99,314.10 L1155.47,314.45 L1155.60,314.54 L1156.10,314.85 L1156.24,314.94 L1156.76,315.22 L1156.90,315.29 L1157.44,315.53 L1157.58,315.60 L1158.14,315.81 L1158.29,315.86 L1158.85,316.04 L1159.00,316.08 L1159.58,316.22 L1159.74,316.25 L1160.32,316.35 L1160.48,316.37 L1161.07,316.43 L1161.22,316.45 L1161.82,316.47 L1161.97,316.47 L1162.57,316.45 L1162.72,316.45 L1163.32,316.39 L1163.47,316.37 L1164.06,316.28 L1164.21,316.25 L1164.79,316.12 L1164.94,316.08 L1165.51,315.91 L1165.66,315.86 L1166.22,315.65 L1166.36,315.60 L1166.90,315.35 L1167.05,315.29 L1167.57,315.01 L1167.71,314.94 L1168.21,314.62 L1168.35,314.54 L1168.83,314.19 L1168.96,314.10 L1169.42,313.72 L1169.54,313.63 L1169.97,313.22 L1170.09,313.11 L1170.19,313.00 L1170.60,312.56 L1170.70,312.44 L1171.07,311.98 L1171.17,311.86 L1171.51,311.37 L1171.59,311.24 L1171.91,310.74 L1171.98,310.60 L1172.26,310.07 L1172.33,309.93 L1172.57,309.39 L1172.63,309.24 L1172.84,308.69 L1172.88,308.54 L1173.05,307.97 L1173.09,307.82 L1173.23,307.24 L1173.25,307.08 L1173.35,306.50 L1173.36,306.34 L1173.42,305.75 L1173.43,305.59 L1173.45,305.00 L1173.44,304.84 Z M1054.46,320.61 L1054.67,320.69 L1055.49,320.94 L1055.71,321.01 L1056.55,321.20 L1056.77,321.25 L1057.61,321.39 L1057.84,321.43 L1058.69,321.51 L1058.92,321.54 L1059.77,321.56 L1060.00,321.57 L1060.86,321.54 L1061.08,321.54 L1061.94,321.45 L1062.16,321.43 L1063.01,321.29 L1063.23,321.25 L1064.07,321.06 L1064.29,321.01 L1065.11,320.76 L1065.33,320.69 L1066.13,320.39 L1066.34,320.31 L1067.12,319.96 L1067.33,319.86 L1068.09,319.46 L1068.29,319.35 L1069.01,318.90 L1069.21,318.78 L1069.90,318.28 L1070.09,318.15 L1070.75,317.60 L1070.93,317.46 L1071.55,316.87 L1071.72,316.72 L1071.87,316.55 L1072.46,315.93 L1072.60,315.75 L1073.15,315.09 L1073.28,314.90 L1073.78,314.21 L1073.90,314.01 L1074.35,313.29 L1074.46,313.09 L1074.86,312.33 L1074.96,312.12 L1075.31,311.34 L1075.39,311.13 L1075.69,310.33 L1075.76,310.11 L1076.01,309.29 L1076.06,309.07 L1076.25,308.23 L1076.29,308.01 L1076.43,307.16 L1076.45,306.94 L1076.54,306.08 L1076.54,305.86 L1076.57,305.00 L1076.56,304.77 L1076.54,303.92 L1076.51,303.69 L1076.43,302.84 L1076.39,302.61 L1076.25,301.77 L1076.20,301.55 L1076.01,300.71 L1075.94,300.49 L1075.69,299.67 L1075.61,299.46 L1075.31,298.66 L1075.22,298.45 L1074.86,297.67 L1074.76,297.47 L1074.35,296.71 L1074.23,296.52 L1073.78,295.79 L1073.65,295.61 L1073.15,294.91 L1073.00,294.74 L1072.46,294.07 L1072.30,293.91 L1071.72,293.28 L1071.09,292.70 L1070.93,292.54 L1070.26,292.00 L1070.09,291.85 L1069.39,291.35 L1069.21,291.22 L1068.48,290.77 L1068.29,290.65 L1067.53,290.24 L1067.33,290.14 L1066.55,289.78 L1066.34,289.69 L1065.54,289.39 L1065.33,289.31 L1064.51,289.06 L1064.29,288.99 L1063.45,288.80 L1063.23,288.75 L1062.39,288.61 L1062.16,288.57 L1061.31,288.49 L1061.08,288.46 L1060.23,288.44 L1060.00,288.43 L1059.14,288.46 L1058.92,288.46 L1058.06,288.55 L1057.84,288.57 L1056.99,288.71 L1056.77,288.75 L1055.93,288.94 L1055.71,288.99 L1054.89,289.24 L1054.67,289.31 L1053.87,289.61 L1053.66,289.69 L1052.88,290.04 L1052.67,290.14 L1051.91,290.54 L1051.71,290.65 L1050.99,291.10 L1050.79,291.22 L1050.10,291.72 L1049.91,291.85 L1049.25,292.40 L1049.07,292.54 L1048.45,293.13 L1048.28,293.28 L1048.13,293.45 L1047.54,294.07 L1047.40,294.25 L1046.85,294.91 L1046.72,295.10 L1046.22,295.79 L1046.10,295.99 L1045.65,296.71 L1045.54,296.91 L1045.14,297.67 L1045.04,297.88 L1044.69,298.66 L1044.61,298.87 L1044.31,299.67 L1044.24,299.89 L1043.99,300.71 L1043.94,300.93 L1043.75,301.77 L1043.71,301.99 L1043.57,302.84 L1043.55,303.06 L1043.46,303.92 L1043.46,304.14 L1043.43,305.00 L1043.44,305.23 L1043.46,306.08 L1043.49,306.31 L1043.57,307.16 L1043.61,307.39 L1043.75,308.23 L1043.80,308.45 L1043.99,309.29 L1044.06,309.51 L1044.31,310.33 L1044.39,310.54 L1044.69,311.34 L1044.78,311.55 L1045.14,312.33 L1045.24,312.53 L1045.65,313.29 L1045.77,313.48 L1046.22,314.21 L1046.35,314.39 L1046.85,315.09 L1047.00,315.26 L1047.54,315.93 L1047.70,316.09 L1048.28,316.72 L1048.91,317.30 L1049.07,317.46 L1049.74,318.00 L1049.91,318.15 L1050.61,318.65 L1050.79,318.78 L1051.52,319.23 L1051.71,319.35 L1052.47,319.76 L1052.67,319.86 L1053.45,320.22 L1053.66,320.31 L1054.46,320.61 Z M1212.71,278.93 L1212.02,274.76 L1210.68,269.00 L1209.72,264.88 L1208.00,259.22 L1206.77,255.18 L1204.69,249.64 L1203.20,245.68 L1200.76,240.30 L1199.02,236.45 L1196.23,231.23 L1194.23,227.50 L1191.11,222.48 L1188.88,218.89 L1185.43,214.08 L1182.97,210.64 L1179.22,206.07 L1176.54,202.80 L1172.49,198.48 L1169.60,195.40 L1166.52,192.51 L1162.20,188.46 L1158.93,185.78 L1154.36,182.03 L1150.92,179.57 L1146.11,176.12 L1142.52,173.89 L1137.50,170.77 L1133.77,168.77 L1128.55,165.98 L1124.70,164.24 L1119.32,161.80 L1115.36,160.31 L1109.82,158.23 L1105.78,157.00 L1100.12,155.28 L1096.00,154.32 L1090.24,152.98 L1086.07,152.29 L1080.23,151.33 L1076.02,150.91 L1070.14,150.33 L1065.91,150.19 L1060.00,150.00 L1055.77,150.14 L1049.86,150.33 L1045.65,150.75 L1039.77,151.33 L1035.60,152.01 L1029.76,152.98 L1025.64,153.94 L1019.88,155.28 L1015.84,156.51 L1010.18,158.23 L1006.22,159.72 L1000.68,161.80 L996.83,163.54 L991.45,165.98 L987.72,167.98 L982.50,170.77 L978.91,173.00 L973.89,176.12 L970.45,178.58 L965.64,182.03 L962.37,184.71 L957.80,188.46 L954.72,191.36 L950.40,195.40 L946.36,199.72 L943.46,202.80 L939.71,207.37 L937.03,210.64 L933.58,215.45 L931.12,218.89 L928.00,223.91 L925.77,227.50 L922.98,232.72 L920.98,236.45 L918.54,241.83 L916.80,245.68 L914.72,251.22 L913.23,255.18 L911.51,260.84 L910.28,264.88 L908.94,270.64 L907.98,274.76 L907.01,280.60 L906.33,284.77 L905.75,290.65 L905.33,294.86 L905.14,300.77 L905.00,305.00 L905.19,310.91 L905.33,315.14 L905.91,321.02 L906.33,325.23 L907.29,331.07 L907.98,335.24 L909.32,341.00 L910.28,345.12 L912.00,350.78 L913.23,354.82 L915.31,360.36 L916.80,364.32 L919.24,369.70 L920.98,373.55 L923.77,378.77 L925.77,382.50 L928.89,387.52 L931.12,391.11 L934.57,395.92 L937.03,399.36 L940.78,403.93 L943.46,407.20 L947.51,411.52 L950.40,414.60 L953.48,417.49 L957.80,421.54 L961.07,424.22 L965.64,427.97 L969.08,430.43 L973.89,433.88 L977.48,436.11 L982.50,439.23 L986.23,441.23 L991.45,444.02 L995.30,445.76 L1000.68,448.20 L1004.64,449.69 L1010.18,451.77 L1014.22,453.00 L1019.88,454.72 L1024.00,455.68 L1029.76,457.02 L1033.93,457.71 L1039.77,458.67 L1043.98,459.09 L1049.86,459.67 L1054.09,459.81 L1060.00,460.00 L1064.23,459.86 L1070.14,459.67 L1074.35,459.25 L1080.23,458.67 L1084.40,457.99 L1090.24,457.02 L1094.36,456.06 L1100.12,454.72 L1104.16,453.49 L1109.82,451.77 L1113.78,450.28 L1119.32,448.20 L1123.17,446.46 L1128.55,444.02 L1132.28,442.02 L1137.50,439.23 L1141.09,437.00 L1146.11,433.88 L1149.55,431.42 L1154.36,427.97 L1157.63,425.29 L1162.20,421.54 L1165.28,418.64 L1169.60,414.60 L1173.64,410.28 L1176.54,407.20 L1180.29,402.63 L1182.97,399.36 L1186.42,394.55 L1188.88,391.11 L1192.00,386.09 L1194.23,382.50 L1197.02,377.28 L1199.02,373.55 L1201.46,368.17 L1203.20,364.32 L1205.28,358.78 L1206.77,354.82 L1208.49,349.16 L1209.72,345.12 L1211.06,339.36 L1212.02,335.24 L1212.99,329.40 L1213.67,325.23 L1214.25,319.35 L1214.67,315.14 L1214.86,309.23 L1215.00,305.00 L1214.81,299.09 L1214.67,294.86 L1214.09,288.98 L1213.67,284.77 L1212.71,278.93 Z" class="cut" fill="url(#h1-pav_304)" fill-rule="evenodd"/><line x1="905.0" y1="463.0" x2="905.0" y2="495.0" class="ext"/><line x1="1215.0" y1="463.0" x2="1215.0" y2="495.0" class="ext"/><line x1="905.0" y1="490.0" x2="1215.0" y2="490.0" class="dim" marker-start="url(#a-pav_304)" marker-end="url(#a-pav_304)"/><text x="1060.0" y="505.0" text-anchor="middle" class="td">60.8</text><line x1="1218.0" y1="150.0" x2="1254.0" y2="150.0" class="ext"/><line x1="1218.0" y1="460.0" x2="1254.0" y2="460.0" class="ext"/><line x1="1249.0" y1="150.0" x2="1249.0" y2="460.0" class="dim" marker-start="url(#a-pav_304)" marker-end="url(#a-pav_304)"/><text x="1263.0" y="305.0" text-anchor="middle" class="td" transform="rotate(-90 1263.0 305.0)">60.8</text><text x="1256.0" y="516.0" text-anchor="end" class="tm ts">view scale 5.10:1</text><text x="40.0" y="560.0" text-anchor="start" class="ts">Kind: ply · material: 6 mm birch ply x2</text><text x="460.0" y="560.0" text-anchor="start" class="ts">Volume 35.80 cm3 · mass/each 24.3 g (fill 1.0)</text><text x="880.0" y="560.0" text-anchor="start" class="ts">BBox (assembly) Z 608.5..620.5 · r_max 31.90</text><text x="40.0" y="576.0" text-anchor="start" class="ts">Mesh: 1928 tris · closed True · CGAL simple None</text><text x="460.0" y="576.0" text-anchor="start" class="ts">Qty 1</text><text x="880.0" y="576.0" text-anchor="start" class="ts">Datum: STA 0 = nose tip; angles from +X toward +Y</text><text x="40.0" y="592.0" text-anchor="start" class="ts">Export: cad/exports/dxf/AV-304-outer_aft_bulkhead_2_discs.dxf</text><text x="460.0" y="592.0" text-anchor="start" class="ts">Export: cad/exports/dxf/AV-304-outer_aft_bulkhead_2_discs.svg</text><text x="880.0" y="592.0" text-anchor="start" class="ts">Export: cad/exports/dxf/AV-304-inner_aft_bulkhead_2_discs.dxf</text><text x="40.0" y="608.0" text-anchor="start" class="ts">Export: cad/exports/dxf/AV-304-inner_aft_bulkhead_2_discs.svg</text><text x="460.0" y="608.0" text-anchor="start" class="ts">Tol: Rod holes ±0.2 true position</text><text x="880.0" y="608.0" text-anchor="start" class="ts">Assembly: Slides on rods; washer + nylock nut each rod</text><text x="18.0" y="24.0" text-anchor="start" class="tl">AV-304 · AFT BULKHEAD (2 DISCS)</text><text x="18.0" y="40.0" text-anchor="start" class="tm ts">Source: cad/parts/AV-304_aft_bulkhead.scad · generated from the CAD mesh</text><rect x="12.0" y="710.0" width="1276.0" height="38.0" class="ln thin"/><line x1="12.0" y1="710.0" x2="12.0" y2="748.0" class="ln thin"/><text x="18.0" y="723.0" text-anchor="start" class="tm ts">DWG NO.</text><text x="18.0" y="740.0" text-anchor="start">CAD-AV-304</text><line x1="132.0" y1="710.0" x2="132.0" y2="748.0" class="ln thin"/><text x="138.0" y="723.0" text-anchor="start" class="tm ts">TITLE</text><text x="138.0" y="740.0" text-anchor="start" class="tb">AV-304 Aft bulkhead (2 discs)</text><line x1="552.0" y1="710.0" x2="552.0" y2="748.0" class="ln thin"/><text x="558.0" y="723.0" text-anchor="start" class="tm ts">MATERIAL</text><text x="558.0" y="740.0" text-anchor="start">6 mm birch ply x2</text><line x1="736.0" y1="710.0" x2="736.0" y2="748.0" class="ln thin"/><text x="742.0" y="723.0" text-anchor="start" class="tm ts">QTY</text><text x="742.0" y="740.0" text-anchor="start">1</text><line x1="920.0" y1="710.0" x2="920.0" y2="748.0" class="ln thin"/><text x="926.0" y="723.0" text-anchor="start" class="tm ts">UNITS</text><text x="926.0" y="740.0" text-anchor="start">mm</text><line x1="1104.0" y1="710.0" x2="1104.0" y2="748.0" class="ln thin"/><text x="1110.0" y="723.0" text-anchor="start" class="tm ts">REV</text><text x="1110.0" y="740.0" text-anchor="start">B</text></svg>