  0
SECTION
  2
BLOCKS
  0
ENDSEC
  0
SECTION
  2
ENTITIES
  0
LINE
  8
0
 10
1.98825
 20
-30.3349
 11
3.96799
 21
-30.1399
  0
LINE
  8
0
 10
3.96799
 20
-30.1399
 11
5.93074
 21
-29.8159
  0
LINE
  8
0
 10
5.93074
 20
-29.8159
 11
7.86809
 21
-29.3641
  0
LINE
  8
0
 10
7.86809
 20
-29.3641
 11
9.77176
 21
-28.7867
  0
LINE
  8
0
 10
9.77176
 20
-28.7867
 11
11.6336
 21
-28.0859
  0
LINE
  8
0
 10
11.6336
 20
-28.0859
 11
13.4456
 21
-27.2649
  0
LINE
  8
0
 10
13.4456
 20
-27.2649
 11
15.2
 21
-26.3272
  0
LINE
  8
0
 10
15.2
 20
-26.3272
 11
16.8893
 21
-25.2767
  0
LINE
  8
0
 10
16.8893
 20
-25.2767
 11
18.5063
 21
-24.1179
  0
LINE
  8
0
 10
18.5063
 20
-24.1179
 11
20.0441
 21
-22.8559
  0
LINE
  8
0
 10
20.0441
 20
-22.8559
 11
21.496
 21
-21.496
  0
LINE
  8
0
 10
21.496
 20
-21.496
 11
22.8559
 21
-20.0441
  0
LINE
  8
0
 10
22.8559
 20
-20.0441
 11
24.1179
 21
-18.5063
  0
LINE
  8
0
 10
24.1179
 20
-18.5063
 11
25.2767
 21
-16.8893
  0
LINE
  8
0
 10
25.2767
 20
-16.8893
 11
26.3272
 21
-15.2
  0
LINE
  8
0
 10
26.3272
 20
-15.2
 11
27.2649
 21
-13.4456
  0
LINE
  8
0
 10
27.2649
 20
-13.4456
 11
28.0859
 21
-11.6336
  0
LINE
  8
0
 10
28.0859
 20
-11.6336
 11
28.7867
 21
-9.77176
  0
LINE
  8
0
 10
28.7867
 20
-9.77176
 11
29.3641
 21
-7.86809
  0
LINE
  8
0
 10
29.3641
 20
-7.86809
 11
29.8159
 21
-5.93074
  0
LINE
  8
0
 10
29.8159
 20
-5.93074
 11
30.1399
 21
-3.96799
  0
LINE
  8
0
 10
30.1399
 20
-3.96799
 11
30.3349
 21
-1.98825
  0
LINE
  8
0
 10
30.3349
 20
-1.98825
 11
30.4
 21
0
  0
LINE
  8
0
 10
30.4
 20
0
 11
30.3349
 21
1.98825
  0
LINE
  8
0
 10
30.3349
 20
1.98825
 11
30.1399
 21
3.96799
  0
LINE
  8
0
 10
30.1399
 20
3.96799
 11
29.8159
 21
5.93074
  0
LINE
  8
0
 10
29.8159
 20
5.93074
 11
29.3641
 21
7.86809
  0
LINE
  8
0
 10
29.3641
 20
7.86809
 11
28.7867
 21
9.77176
  0
LINE
  8
0
 10
28.7867
 20
9.77176
 11
28.0859
 21
11.6336
  0
LINE
  8
0
 10
28.0859
 20
11.6336
 11
27.2649
 21
13.4456
  0
LINE
  8
0
 10
27.2649
 20
13.4456
 11
26.3272
 21
15.2
  0
LINE
  8
0
 10
26.3272
 20
15.2
 11
25.2767
 21
16.8893
  0
LINE
  8
0
 10
25.2767
 20
16.8893
 11
24.1179
 21
18.5063
  0
LINE
  8
0
 10
24.1179
 20
18.5063
 11
22.8559
 21
20.0441
  0
LINE
  8
0
 10
22.8559
 20
20.0441
 11
21.496
 21
21.496
  0
LINE
  8
0
 10
21.496
 20
21.496
 11
20.0441
 21
22.8559
  0
LINE
  8
0
 10
20.0441
 20
22.8559
 11
18.5063
 21
24.1179
  0
LINE
  8
0
 10
18.5063
 20
24.1179
 11
16.8893
 21
25.2767
  0
LINE
  8
0
 10
16.8893
 20
25.2767
 11
15.2
 21
26.3272
  0
LINE
  8
0
 10
15.2
 20
26.3272
 11
13.4456
 21
27.2649
  0
LINE
  8
0
 10
13.4456
 20
27.2649
 11
11.6336
 21
28.0859
  0
LINE
  8
0
 10
11.6336
 20
28.0859
 11
9.77176
 21
28.7867
  0
LINE
  8
0
 10
9.77176
 20
28.7867
 11
7.86809
 21
29.3641
  0
LINE
  8
0
 10
7.86809
 20
29.3641
 11
5.93074
 21
29.8159
  0
LINE
  8
0
 10
5.93074
 20
29.8159
 11
3.96799
 21
30.1399
  0
LINE
  8
0
 10
3.96799
 20
30.1399
 11
1.98825
 21
30.3349
  0
LINE
  8
0
 10
1.98825
 20
30.3349
 11
0
 21
30.4
  0
LINE
  8
0
 10
0
 20
30.4
 11
-1.98825
 21
30.3349
  0
LINE
  8
0
 10
-1.98825
 20
30.3349
 11
-3.96799
 21
30.1399
  0
LINE
  8
0
 10
-3.96799
 20
30.1399
 11
-5.93074
 21
29.8159
  0
LINE
  8
0
 10
-5.93074
 20
29.8159
 11
-7.86809
 21
29.3641
  0
LINE
  8
0
 10
-7.86809
 20
29.3641
 11
-9.77176
 21
28.7867
  0
LINE
  8
0
 10
-9.77176
 20
28.7867
 11
-11.6336
 21
28.0859
  0
LINE
  8
0
 10
-11.6336
 20
28.0859
 11
-13.4456
 21
27.2649
  0
LINE
  8
0
 10
-13.4456
 20
27.2649
 11
-15.2
 21
26.3272
  0
LINE
  8
0
 10
-15.2
 20
26.3272
 11
-16.8893
 21
25.2767
  0
LINE
  8
0
 10
-16.8893
 20
25.2767
 11
-18.5063
 21
24.1179
  0
LINE
  8
0
 10
-18.5063
 20
24.1179
 11
-20.0441
 21
22.8559
  0
LINE
  8
0
 10
-20.0441
 20
22.8559
 11
-21.496
 21
21.496
  0
LINE
  8
0
 10
-21.496
 20
21.496
 11
-22.8559
 21
20.0441
  0
LINE
  8
0
 10
-22.8559
 20
20.0441
 11
-24.1179
 21
18.5063
  0
LINE
  8
0
 10
-24.1179
 20
18.5063
 11
-25.2767
 21
16.8893
  0
LINE
  8
0
 10
-25.2767
 20
16.8893
 11
-26.3272
 21
15.2
  0
LINE
  8
0
 10
-26.3272
 20
15.2
 11
-27.2649
 21
13.4456
  0
LINE
  8
0
 10
-27.2649
 20
13.4456
 11
-28.0859
 21
11.6336
  0
LINE
  8
0
 10
-28.0859
 20
11.6336
 11
-28.7867
 21
9.77176
  0
LINE
  8
0
 10
-28.7867
 20
9.77176
 11
-29.3641
 21
7.86809
  0
LINE
  8
0
 10
-29.3641
 20
7.86809
 11
-29.8159
 21
5.93074
  0
LINE
  8
0
 10
-29.8159
 20
5.93074
 11
-30.1399
 21
3.96799
  0
LINE
  8
0
 10
-30.1399
 20
3.96799
 11
-30.3349
 21
1.98825
  0
LINE
  8
0
 10
-30.3349
 20
1.98825
 11
-30.4
 21
0
  0
LINE
  8
0
 10
-30.4
 20
0
 11
-30.3349
 21
-1.98825
  0
LINE
  8
0
 10
-30.3349
 20
-1.98825
 11
-30.1399
 21
-3.96799
  0
LINE
  8
0
 10
-30.1399
 20
-3.96799
 11
-29.8159
 21
-5.93074
  0
LINE
  8
0
 10
-29.8159
 20
-5.93074
 11
-29.3641
 21
-7.86809
  0
LINE
  8
0
 10
-29.3641
 20
-7.86809
 11
-28.7867
 21
-9.77176
  0
LINE
  8
0
 10
-28.7867
 20
-9.77176
 11
-28.0859
 21
-11.6336
  0
LINE
  8
0
 10
-28.0859
 20
-11.6336
 11
-27.2649
 21
-13.4456
  0
LINE
  8
0
 10
-27.2649
 20
-13.4456
 11
-26.3272
 21
-15.2
  0
LINE
  8
0
 10
-26.3272
 20
-15.2
 11
-25.2767
 21
-16.8893
  0
LINE
  8
0
 10
-25.2767
 20
-16.8893
 11
-24.1179
 21
-18.5063
  0
LINE
  8
0
 10
-24.1179
 20
-18.5063
 11
-22.8559
 21
-20.0441
  0
LINE
  8
0
 10
-22.8559
 20
-20.0441
 11
-21.496
 21
-21.496
  0
LINE
  8
0
 10
-21.496
 20
-21.496
 11
-20.0441
 21
-22.8559
  0
LINE
  8
0
 10
-20.0441
 20
-22.8559
 11
-18.5063
 21
-24.1179
  0
LINE
  8
0
 10
-18.5063
 20
-24.1179
 11
-16.8893
 21
-25.2767
  0
LINE
  8
0
 10
-16.8893
 20
-25.2767
 11
-15.2
 21
-26.3272
  0
LINE
  8
0
 10
-15.2
 20
-26.3272
 11
-13.4456
 21
-27.2649
  0
LINE
  8
0
 10
-13.4456
 20
-27.2649
 11
-11.6336
 21
-28.0859
  0
LINE
  8
0
 10
-11.6336
 20
-28.0859
 11
-9.77176
 21
-28.7867
  0
LINE
  8
0
 10
-9.77176
 20
-28.7867
 11
-7.86809
 21
-29.3641
  0
LINE
  8
0
 10
-7.86809
 20
-29.3641
 11
-5.93074
 21
-29.8159
  0
LINE
  8
0
 10
-5.93074
 20
-29.8159
 11
-3.96799
 21
-30.1399
  0
LINE
  8
0
 10
-3.96799
 20
-30.1399
 11
-1.98825
 21
-30.3349
  0
LINE
  8
0
 10
-1.98825
 20
-30.3349
 11
0
 21
-30.4
  0
LINE
  8
0
 10
0
 20
-30.4
 11
1.98825
 21
-30.3349
  0
LINE
  8
0
 10
-0.212555
 20
-3.24303
 11
-0.42421
 21
-3.22218
  0
LINE
  8
0
 10
-0.42421
 20
-3.22218
 11
-0.634033
 21
-3.18755
  0
LINE
  8
0
 10
-0.634033
 20
-3.18755
 11
-0.841156
 21
-3.13925
  0
LINE
  8
0
 10
-0.841156
 20
-3.13925
 11
-1.04468
 21
-3.07751
  0
LINE
  8
0
 10
-1.04468
 20
-3.07751
 11
-1.24371
 21
-3.00259
  0
LINE
  8
0
 10
-1.24371
 20
-3.00259
 11
-1.43742
 21
-2.91483
  0
LINE
  8
0
 10
-1.43742
 20
-2.91483
 11
-1.625
 21
-2.81458
  0
LINE
  8
0
 10
-1.625
 20
-2.81458
 11
-1.8056
 21
-2.70227
  0
LINE
  8
0
 10
-1.8056
 20
-2.70227
 11
-1.97847
 21
-2.57838
  0
LINE
  8
0
 10
-1.97847
 20
-2.57838
 11
-2.14287
 21
-2.44347
  0
LINE
  8
0
 10
-2.14287
 20
-2.44347
 11
-2.2981
 21
-2.2981
  0
LINE
  8
0
 10
-2.2981
 20
-2.2981
 11
-2.44347
 21
-2.14287
  0
LINE
  8
0
 10
-2.44347
 20
-2.14287
 11
-2.57838
 21
-1.97847
  0
LINE
  8
0
 10
-2.57838
 20
-1.97847
 11
-2.70227
 21
-1.8056
  0
LINE
  8
0
 10
-2.70227
 20
-1.8056
 11
-2.81458
 21
-1.625
  0
LINE
  8
0
 10
-2.81458
 20
-1.625
 11
-2.91483
 21
-1.43742
  0
LINE
  8
0
 10
-2.91483
 20
-1.43742
 11
-3.00259
 21
-1.24371
  0
LINE
  8
0
 10
-3.00259
 20
-1.24371
 11
-3.07751
 21
-1.04468
  0
LINE
  8
0
 10
-3.07751
 20
-1.04468
 11
-3.13925
 21
-0.841156
  0
LINE
  8
0
 10
-3.13925
 20
-0.841156
 11
-3.18755
 21
-0.634033
  0
LINE
  8
0
 10
-3.18755
 20
-0.634033
 11
-3.22218
 21
-0.42421
  0
LINE
  8
0
 10
-3.22218
 20
-0.42421
 11
-3.24303
 21
-0.212555
  0
LINE
  8
0
 10
-3.24303
 20
-0.212555
 11
-3.25
 21
0
  0
LINE
  8
0
 10
-3.25
 20
0
 11
-3.24303
 21
0.212555
  0
LINE
  8
0
 10
-3.24303
 20
0.212555
 11
-3.22218
 21
0.42421
  0
LINE
  8
0
 10
-3.22218
 20
0.42421
 11
-3.18755
 21
0.634033
  0
LINE
  8
0
 10
-3.18755
 20
0.634033
 11
-3.13925
 21
0.841156
  0
LINE
  8
0
 10
-3.13925
 20
0.841156
 11
-3.07751
 21
1.04468
  0
LINE
  8
0
 10
-3.07751
 20
1.04468
 11
-3.00259
 21
1.24371
  0
LINE
  8
0
 10
-3.00259
 20
1.24371
 11
-2.91483
 21
1.43742
  0
LINE
  8
0
 10
-2.91483
 20
1.43742
 11
-2.81458
 21
1.625
  0
LINE
  8
0
 10
-2.81458
 20
1.625
 11
-2.70227
 21
1.8056
  0
LINE
  8
0
 10
-2.70227
 20
1.8056
 11
-2.57838
 21
1.97847
  0
LINE
  8
0
 10
-2.57838
 20
1.97847
 11
-2.44347
 21
2.14287
  0
LINE
  8
0
 10
-2.44347
 20
2.14287
 11
-2.2981
 21
2.2981
  0
LINE
  8
0
 10
-2.2981
 20
2.2981
 11
-2.14287
 21
2.44347
  0
LINE
  8
0
 10
-2.14287
 20
2.44347
 11
-1.97847
 21
2.57838
  0
LINE
  8
0
 10
-1.97847
 20
2.57838
 11
-1.8056
 21
2.70227
  0
LINE
  8
0
 10
-1.8056
 20
2.70227
 11
-1.625
 21
2.81458
  0
LINE
  8
0
 10
-1.625
 20
2.81458
 11
-1.43742
 21
2.91483
  0
LINE
  8
0
 10
-1.43742
 20
2.91483
 11
-1.24371
 21
3.00259
  0
LINE
  8
0
 10
-1.24371
 20
3.00259
 11
-1.04468
 21
3.07751
  0
LINE
  8
0
 10
-1.04468
 20
3.07751
 11
-0.841156
 21
3.13925
  0
LINE
  8
0
 10
-0.841156
 20
3.13925
 11
-0.634033
 21
3.18755
  0
LINE
  8
0
 10
-0.634033
 20
3.18755
 11
-0.42421
 21
3.22218
  0
LINE
  8
0
 10
-0.42421
 20
3.22218
 11
-0.212555
 21
3.24303
  0
LINE
  8
0
 10
-0.212555
 20
3.24303
 11
0
 21
3.25
  0
LINE
  8
0
 10
0
 20
3.25
 11
0.212555
 21
3.24303
  0
LINE
  8
0
 10
0.212555
 20
3.24303
 11
0.42421
 21
3.22218
  0
LINE
  8
0
 10
0.42421
 20
3.22218
 11
0.634033
 21
3.18755
  0
LINE
  8
0
 10
0.634033
 20
3.18755
 11
0.841156
 21
3.13925
  0
LINE
  8
0
 10
0.841156
 20
3.13925
 11
1.04468
 21
3.07751
  0
LINE
  8
0
 10
1.04468
 20
3.07751
 11
1.24371
 21
3.00259
  0
LINE
  8
0
 10
1.24371
 20
3.00259
 11
1.43742
 21
2.91483
  0
LINE
  8
0
 10
1.43742
 20
2.91483
 11
1.625
 21
2.81458
  0
LINE
  8
0
 10
1.625
 20
2.81458
 11
1.8056
 21
2.70227
  0
LINE
  8
0
 10
1.8056
 20
2.70227
 11
1.97847
 21
2.57838
  0
LINE
  8
0
 10
1.97847
 20
2.57838
 11
2.14287
 21
2.44347
  0
LINE
  8
0
 10
2.14287
 20
2.44347
 11
2.2981
 21
2.2981
  0
LINE
  8
0
 10
2.2981
 20
2.2981
 11
2.44347
 21
2.14287
  0
LINE
  8
0
 10
2.44347
 20
2.14287
 11
2.57838
 21
1.97847
  0
LINE
  8
0
 10
2.57838
 20
1.97847
 11
2.70227
 21
1.8056
  0
LINE
  8
0
 10
2.70227
 20
1.8056
 11
2.81458
 21
1.625
  0
LINE
  8
0
 10
2.81458
 20
1.625
 11
2.91483
 21
1.43742
  0
LINE
  8
0
 10
2.91483
 20
1.43742
 11
3.00259
 21
1.24371
  0
LINE
  8
0
 10
3.00259
 20
1.24371
 11
3.07751
 21
1.04468
  0
LINE
  8
0
 10
3.07751
 20
1.04468
 11
3.13925
 21
0.841156
  0
LINE
  8
0
 10
3.13925
 20
0.841156
 11
3.18755
 21
0.634033
  0
LINE
  8
0
 10
3.18755
 20
0.634033
 11
3.22218
 21
0.42421
  0
LINE
  8
0
 10
3.22218
 20
0.42421
 11
3.24303
 21
0.212555
  0
LINE
  8
0
 10
3.24303
 20
0.212555
 11
3.25
 21
0
  0
LINE
  8
0
 10
3.25
 20
0
 11
3.24303
 21
-0.212555
  0
LINE
  8
0
 10
3.24303
 20
-0.212555
 11
3.22218
 21
-0.42421
  0
LINE
  8
0
 10
3.22218
 20
-0.42421
 11
3.18755
 21
-0.634033
  0
LINE
  8
0
 10
3.18755
 20
-0.634033
 11
3.13925
 21
-0.841156
  0
LINE
  8
0
 10
3.13925
 20
-0.841156
 11
3.07751
 21
-1.04468
  0
LINE
  8
0
 10
3.07751
 20
-1.04468
 11
3.00259
 21
-1.24371
  0
LINE
  8
0
 10
3.00259
 20
-1.24371
 11
2.91483
 21
-1.43742
  0
LINE
  8
0
 10
2.91483
 20
-1.43742
 11
2.81458
 21
-1.625
  0
LINE
  8
0
 10
2.81458
 20
-1.625
 11
2.70227
 21
-1.8056
  0
LINE
  8
0
 10
2.70227
 20
-1.8056
 11
2.57838
 21
-1.97847
  0
LINE
  8
0
 10
2.57838
 20
-1.97847
 11
2.44347
 21
-2.14287
  0
LINE
  8
0
 10
2.44347
 20
-2.14287
 11
2.2981
 21
-2.2981
  0
LINE
  8
0
 10
2.2981
 20
-2.2981
 11
2.14287
 21
-2.44347
  0
LINE
  8
0
 10
2.14287
 20
-2.44347
 11
1.97847
 21
-2.57838
  0
LINE
  8
0
 10
1.97847
 20
-2.57838
 11
1.8056
 21
-2.70227
  0
LINE
  8
0
 10
1.8056
 20
-2.70227
 11
1.625
 21
-2.81458
  0
LINE
  8
0
 10
1.625
 20
-2.81458
 11
1.43742
 21
-2.91483
  0
LINE
  8
0
 10
1.43742
 20
-2.91483
 11
1.24371
 21
-3.00259
  0
LINE
  8
0
 10
1.24371
 20
-3.00259
 11
1.04468
 21
-3.07751
  0
LINE
  8
0
 10
1.04468
 20
-3.07751
 11
0.841156
 21
-3.13925
  0
LINE
  8
0
 10
0.841156
 20
-3.13925
 11
0.634033
 21
-3.18755
  0
LINE
  8
0
 10
0.634033
 20
-3.18755
 11
0.42421
 21
-3.22218
  0
LINE
  8
0
 10
0.42421
 20
-3.22218
 11
0.212555
 21
-3.24303
  0
LINE
  8
0
 10
0.212555
 20
-3.24303
 11
0
 21
-3.25
  0
LINE
  8
0
 10
0
 20
-3.25
 11
-0.212555
 21
-3.24303
  0
LINE
  8
0
 10
19.8528
 20
-2.24518
 11
19.7063
 21
-2.23074
  0
LINE
  8
0
 10
19.7063
 20
-2.23074
 11
19.561
 21
-2.20676
  0
LINE
  8
0
 10
19.561
 20
-2.20676
 11
19.4176
 21
-2.17332
  0
LINE
  8
0
 10
19.4176
 20
-2.17332
 11
19.2767
 21
-2.13058
  0
LINE
  8
0
 10
19.2767
 20
-2.13058
 11
19.139
 21
-2.07872
  0
LINE
  8
0
 10
19.139
 20
-2.07872
 11
19.0048
 21
-2.01796
  0
LINE
  8
0
 10
19.0048
 20
-2.01796
 11
18.875
 21
-1.94855
  0
LINE
  8
0
 10
18.875
 20
-1.94855
 11
18.75
 21
-1.8708
  0
LINE
  8
0
 10
18.75
 20
-1.8708
 11
18.6303
 21
-1.78503
  0
LINE
  8
0
 10
18.6303
 20
-1.78503
 11
18.5165
 21
-1.69164
  0
LINE
  8
0
 10
18.5165
 20
-1.69164
 11
18.409
 21
-1.59099
  0
LINE
  8
0
 10
18.409
 20
-1.59099
 11
18.3083
 21
-1.48352
  0
LINE
  8
0
 10
18.3083
 20
-1.48352
 11
18.215
 21
-1.36971
  0
LINE
  8
0
 10
18.215
 20
-1.36971
 11
18.1292
 21
-1.25003
  0
LINE
  8
0
 10
18.1292
 20
-1.25003
 11
18.0514
 21
-1.125
  0
LINE
  8
0
 10
18.0514
 20
-1.125
 11
17.982
 21
-0.995148
  0
LINE
  8
0
 10
17.982
 20
-0.995148
 11
17.9213
 21
-0.861023
  0
LINE
  8
0
 10
17.9213
 20
-0.861023
 11
17.8694
 21
-0.723236
  0
LINE
  8
0
 10
17.8694
 20
-0.723236
 11
17.8267
 21
-0.582336
  0
LINE
  8
0
 10
17.8267
 20
-0.582336
 11
17.7932
 21
-0.43895
  0
LINE
  8
0
 10
17.7932
 20
-0.43895
 11
17.7692
 21
-0.293671
  0
LINE
  8
0
 10
17.7692
 20
-0.293671
 11
17.7548
 21
-0.147156
  0
LINE
  8
0
 10
17.7548
 20
-0.147156
 11
17.75
 21
0
  0
LINE
  8
0
 10
17.75
 20
0
 11
17.7548
 21
0.147156
  0
LINE
  8
0
 10
17.7548
 20
0.147156
 11
17.7692
 21
0.293671
  0
LINE
  8
0
 10
17.7692
 20
0.293671
 11
17.7932
 21
0.43895
  0
LINE
  8
0
 10
17.7932
 20
0.43895
 11
17.8267
 21
0.582336
  0
LINE
  8
0
 10
17.8267
 20
0.582336
 11
17.8694
 21
0.723236
  0
LINE
  8
0
 10
17.8694
 20
0.723236
 11
17.9213
 21
0.861023
  0
LINE
  8
0
 10
17.9213
 20
0.861023
 11
17.982
 21
0.995148
  0
LINE
  8
0
 10
17.982
 20
0.995148
 11
18.0514
 21
1.125
  0
LINE
  8
0
 10
18.0514
 20
1.125
 11
18.1292
 21
1.25003
  0
LINE
  8
0
 10
18.1292
 20
1.25003
 11
18.215
 21
1.36971
  0
LINE
  8
0
 10
18.215
 20
1.36971
 11
18.3083
 21
1.48352
  0
LINE
  8
0
 10
18.3083
 20
1.48352
 11
18.409
 21
1.59099
  0
LINE
  8
0
 10
18.409
 20
1.59099
 11
18.5165
 21
1.69164
  0
LINE
  8
0
 10
18.5165
 20
1.69164
 11
18.6303
 21
1.78503
  0
LINE
  8
0
 10
18.6303
 20
1.78503
 11
18.75
 21
1.8708
  0
LINE
  8
0
 10
18.75
 20
1.8708
 11
18.875
 21
1.94855
  0
LINE
  8
0
 10
18.875
 20
1.94855
 11
19.0048
 21
2.01796
  0
LINE
  8
0
 10
19.0048
 20
2.01796
 11
19.139
 21
2.07872
  0
LINE
  8
0
 10
19.139
 20
2.07872
 11
19.2767
 21
2.13058
  0
LINE
  8
0
 10
19.2767
 20
2.13058
 11
19.4176
 21
2.17332
  0
LINE
  8
0
 10
19.4176
 20
2.17332
 11
19.561
 21
2.20676
  0
LINE
  8
0
 10
19.561
 20
2.20676
 11
19.7063
 21
2.23074
  0
LINE
  8
0
 10
19.7063
 20
2.23074
 11
19.8528
 21
2.24518
  0
LINE
  8
0
 10
19.8528
 20
2.24518
 11
20
 21
2.25
  0
LINE
  8
0
 10
20
 20
2.25
 11
20.1472
 21
2.24518
  0
LINE
  8
0
 10
20.1472
 20
2.24518
 11
20.2937
 21
2.23074
  0
LINE
  8
0
 10
20.2937
 20
2.23074
 11
20.4389
 21
2.20676
  0
LINE
  8
0
 10
20.4389
 20
2.20676
 11
20.5823
 21
2.17332
  0
LINE
  8
0
 10
20.5823
 20
2.17332
 11
20.7232
 21
2.13058
  0
LINE
  8
0
 10
20.7232
 20
2.13058
 11
20.861
 21
2.07872
  0
LINE
  8
0
 10
20.861
 20
2.07872
 11
20.9951
 21
2.01796
  0
LINE
  8
0
 10
20.9951
 20
2.01796
 11
21.125
 21
1.94855
  0
LINE
  8
0
 10
21.125
 20
1.94855
 11
21.25
 21
1.8708
  0
LINE
  8
0
 10
21.25
 20
1.8708
 11
21.3697
 21
1.78503
  0
LINE
  8
0
 10
21.3697
 20
1.78503
 11
21.4835
 21
1.69164
  0
LINE
  8
0
 10
21.4835
 20
1.69164
 11
21.591
 21
1.59099
  0
LINE
  8
0
 10
21.591
 20
1.59099
 11
21.6916
 21
1.48352
  0
LINE
  8
0
 10
21.6916
 20
1.48352
 11
21.785
 21
1.36971
  0
LINE
  8
0
 10
21.785
 20
1.36971
 11
21.8708
 21
1.25003
  0
LINE
  8
0
 10
21.8708
 20
1.25003
 11
21.9485
 21
1.125
  0
LINE
  8
0
 10
21.9485
 20
1.125
 11
22.018
 21
0.995148
  0
LINE
  8
0
 10
22.018
 20
0.995148
 11
22.0787
 21
0.861023
  0
LINE
  8
0
 10
22.0787
 20
0.861023
 11
22.1306
 21
0.723236
  0
LINE
  8
0
 10
22.1306
 20
0.723236
 11
22.1733
 21
0.582336
  0
LINE
  8
0
 10
22.1733
 20
0.582336
 11
22.2068
 21
0.43895
  0
LINE
  8
0
 10
22.2068
 20
0.43895
 11
22.2307
 21
0.293671
  0
LINE
  8
0
 10
22.2307
 20
0.293671
 11
22.2452
 21
0.147156
  0
LINE
  8
0
 10
22.2452
 20
0.147156
 11
22.25
 21
0
  0
LINE
  8
0
 10
22.25
 20
0
 11
22.2452
 21
-0.147156
  0
LINE
  8
0
 10
22.2452
 20
-0.147156
 11
22.2307
 21
-0.293671
  0
LINE
  8
0
 10
22.2307
 20
-0.293671
 11
22.2068
 21
-0.43895
  0
LINE
  8
0
 10
22.2068
 20
-0.43895
 11
22.1733
 21
-0.582336
  0
LINE
  8
0
 10
22.1733
 20
-0.582336
 11
22.1306
 21
-0.723236
  0
LINE
  8
0
 10
22.1306
 20
-0.723236
 11
22.0787
 21
-0.861023
  0
LINE
  8
0
 10
22.0787
 20
-0.861023
 11
22.018
 21
-0.995148
  0
LINE
  8
0
 10
22.018
 20
-0.995148
 11
21.9485
 21
-1.125
  0
LINE
  8
0
 10
21.9485
 20
-1.125
 11
21.8708
 21
-1.25003
  0
LINE
  8
0
 10
21.8708
 20
-1.25003
 11
21.785
 21
-1.36971
  0
LINE
  8
0
 10
21.785
 20
-1.36971
 11
21.6916
 21
-1.48352
  0
LINE
  8
0
 10
21.6916
 20
-1.48352
 11
21.591
 21
-1.59099
  0
LINE
  8
0
 10
21.591
 20
-1.59099
 11
21.4835
 21
-1.69164
  0
LINE
  8
0
 10
21.4835
 20
-1.69164
 11
21.3697
 21
-1.78503
  0
LINE
  8
0
 10
21.3697
 20
-1.78503
 11
21.25
 21
-1.8708
  0
LINE
  8
0
 10
21.25
 20
-1.8708
 11
21.125
 21
-1.94855
  0
LINE
  8
0
 10
21.125
 20
-1.94855
 11
20.9951
 21
-2.01796
  0
LINE
  8
0
 10
20.9951
 20
-2.01796
 11
20.861
 21
-2.07872
  0
LINE
  8
0
 10
20.861
 20
-2.07872
 11
20.7232
 21
-2.13058
  0
LINE
  8
0
 10
20.7232
 20
-2.13058
 11
20.5823
 21
-2.17332
  0
LINE
  8
0
 10
20.5823
 20
-2.17332
 11
20.4389
 21
-2.20676
  0
LINE
  8
0
 10
20.4389
 20
-2.20676
 11
20.2937
 21
-2.23074
  0
LINE
  8
0
 10
20.2937
 20
-2.23074
 11
20.1472
 21
-2.24518
  0
LINE
  8
0
 10
20.1472
 20
-2.24518
 11
20
 21
-2.25
  0
LINE
  8
0
 10
20
 20
-2.25
 11
19.8528
 21
-2.24518
  0
LINE
  8
0
 10
-20.1472
 20
-2.24518
 11
-20.2937
 21
-2.23074
  0
LINE
  8
0
 10
-20.2937
 20
-2.23074
 11
-20.4389
 21
-2.20676
  0
LINE
  8
0
 10
-20.4389
 20
-2.20676
 11
-20.5823
 21
-2.17332
  0
LINE
  8
0
 10
-20.5823
 20
-2.17332
 11
-20.7232
 21
-2.13058
  0
LINE
  8
0
 10
-20.7232
 20
-2.13058
 11
-20.861
 21
-2.07872
  0
LINE
  8
0
 10
-20.861
 20
-2.07872
 11
-20.9951
 21
-2.01796
  0
LINE
  8
0
 10
-20.9951
 20
-2.01796
 11
-21.125
 21
-1.94855
  0
LINE
  8
0
 10
-21.125
 20
-1.94855
 11
-21.25
 21
-1.8708
  0
LINE
  8
0
 10
-21.25
 20
-1.8708
 11
-21.3697
 21
-1.78503
  0
LINE
  8
0
 10
-21.3697
 20
-1.78503
 11
-21.4835
 21
-1.69164
  0
LINE
  8
0
 10
-21.4835
 20
-1.69164
 11
-21.591
 21
-1.59099
  0
LINE
  8
0
 10
-21.591
 20
-1.59099
 11
-21.6916
 21
-1.48352
  0
LINE
  8
0
 10
-21.6916
 20
-1.48352
 11
-21.785
 21
-1.36971
  0
LINE
  8
0
 10
-21.785
 20
-1.36971
 11
-21.8708
 21
-1.25003
  0
LINE
  8
0
 10
-21.8708
 20
-1.25003
 11
-21.9485
 21
-1.125
  0
LINE
  8
0
 10
-21.9485
 20
-1.125
 11
-22.018
 21
-0.995148
  0
LINE
  8
0
 10
-22.018
 20
-0.995148
 11
-22.0787
 21
-0.861023
  0
LINE
  8
0
 10
-22.0787
 20
-0.861023
 11
-22.1306
 21
-0.723236
  0
LINE
  8
0
 10
-22.1306
 20
-0.723236
 11
-22.1733
 21
-0.582336
  0
LINE
  8
0
 10
-22.1733
 20
-0.582336
 11
-22.2068
 21
-0.43895
  0
LINE
  8
0
 10
-22.2068
 20
-0.43895
 11
-22.2307
 21
-0.293671
  0
LINE
  8
0
 10
-22.2307
 20
-0.293671
 11
-22.2452
 21
-0.147156
  0
LINE
  8
0
 10
-22.2452
 20
-0.147156
 11
-22.25
 21
0
  0
LINE
  8
0
 10
-22.25
 20
0
 11
-22.2452
 21
0.147156
  0
LINE
  8
0
 10
-22.2452
 20
0.147156
 11
-22.2307
 21
0.293671
  0
LINE
  8
0
 10
-22.2307
 20
0.293671
 11
-22.2068
 21
0.43895
  0
LINE
  8
0
 10
-22.2068
 20
0.43895
 11
-22.1733
 21
0.582336
  0
LINE
  8
0
 10
-22.1733
 20
0.582336
 11
-22.1306
 21
0.723236
  0
LINE
  8
0
 10
-22.1306
 20
0.723236
 11
-22.0787
 21
0.861023
  0
LINE
  8
0
 10
-22.0787
 20
0.861023
 11
-22.018
 21
0.995148
  0
LINE
  8
0
 10
-22.018
 20
0.995148
 11
-21.9485
 21
1.125
  0
LINE
  8
0
 10
-21.9485
 20
1.125
 11
-21.8708
 21
1.25003
  0
LINE
  8
0
 10
-21.8708
 20
1.25003
 11
-21.785
 21
1.36971
  0
LINE
  8
0
 10
-21.785
 20
1.36971
 11
-21.6916
 21
1.48352
  0
LINE
  8
0
 10
-21.6916
 20
1.48352
 11
-21.591
 21
1.59099
  0
LINE
  8
0
 10
-21.591
 20
1.59099
 11
-21.4835
 21
1.69164
  0
LINE
  8
0
 10
-21.4835
 20
1.69164
 11
-21.3697
 21
1.78503
  0
LINE
  8
0
 10
-21.3697
 20
1.78503
 11
-21.25
 21
1.8708
  0
LINE
  8
0
 10
-21.25
 20
1.8708
 11
-21.125
 21
1.94855
  0
LINE
  8
0
 10
-21.125
 20
1.94855
 11
-20.9951
 21
2.01796
  0
LINE
  8
0
 10
-20.9951
 20
2.01796
 11
-20.861
 21
2.07872
  0
LINE
  8
0
 10
-20.861
 20
2.07872
 11
-20.7232
 21
2.13058
  0
LINE
  8
0
 10
-20.7232
 20
2.13058
 11
-20.5823
 21
2.17332
  0
LINE
  8
0
 10
-20.5823
 20
2.17332
 11
-20.4389
 21
2.20676
  0
LINE
  8
0
 10
-20.4389
 20
2.20676
 11
-20.2937
 21
2.23074
  0
LINE
  8
0
 10
-20.2937
 20
2.23074
 11
-20.1472
 21
2.24518
  0
LINE
  8
0
 10
-20.1472
 20
2.24518
 11
-20
 21
2.25
  0
LINE
  8
0
 10
-20
 20
2.25
 11
-19.8528
 21
2.24518
  0
LINE
  8
0
 10
-19.8528
 20
2.24518
 11
-19.7063
 21
2.23074
  0
LINE
  8
0
 10
-19.7063
 20
2.23074
 11
-19.561
 21
2.20676
  0
LINE
  8
0
 10
-19.561
 20
2.20676
 11
-19.4176
 21
2.17332
  0
LINE
  8
0
 10
-19.4176
 20
2.17332
 11
-19.2767
 21
2.13058
  0
LINE
  8
0
 10
-19.2767
 20
2.13058
 11
-19.139
 21
2.07872
  0
LINE
  8
0
 10
-19.139
 20
2.07872
 11
-19.0048
 21
2.01796
  0
LINE
  8
0
 10
-19.0048
 20
2.01796
 11
-18.875
 21
1.94855
  0
LINE
  8
0
 10
-18.875
 20
1.94855
 11
-18.75
 21
1.8708
  0
LINE
  8
0
 10
-18.75
 20
1.8708
 11
-18.6303
 21
1.78503
  0
LINE
  8
0
 10
-18.6303
 20
1.78503
 11
-18.5165
 21
1.69164
  0
LINE
  8
0
 10
-18.5165
 20
1.69164
 11
-18.409
 21
1.59099
  0
LINE
  8
0
 10
-18.409
 20
1.59099
 11
-18.3083
 21
1.48352
  0
LINE
  8
0
 10
-18.3083
 20
1.48352
 11
-18.215
 21
1.36971
  0
LINE
  8
0
 10
-18.215
 20
1.36971
 11
-18.1292
 21
1.25003
  0
LINE
  8
0
 10
-18.1292
 20
1.25003
 11
-18.0514
 21
1.125
  0
LINE
  8
0
 10
-18.0514
 20
1.125
 11
-17.982
 21
0.995148
  0
LINE
  8
0
 10
-17.982
 20
0.995148
 11
-17.9213
 21
0.861023
  0
LINE
  8
0
 10
-17.9213
 20
0.861023
 11
-17.8694
 21
0.723236
  0
LINE
  8
0
 10
-17.8694
 20
0.723236
 11
-17.8267
 21
0.582336
  0
LINE
  8
0
 10
-17.8267
 20
0.582336
 11
-17.7932
 21
0.43895
  0
LINE
  8
0
 10
-17.7932
 20
0.43895
 11
-17.7692
 21
0.293671
  0
LINE
  8
0
 10
-17.7692
 20
0.293671
 11
-17.7548
 21
0.147156
  0
LINE
  8
0
 10
-17.7548
 20
0.147156
 11
-17.75
 21
0
  0
LINE
  8
0
 10
-17.75
 20
0
 11
-17.7548
 21
-0.147156
  0
LINE
  8
0
 10
-17.7548
 20
-0.147156
 11
-17.7692
 21
-0.293671
  0
LINE
  8
0
 10
-17.7692
 20
-0.293671
 11
-17.7932
 21
-0.43895
  0
LINE
  8
0
 10
-17.7932
 20
-0.43895
 11
-17.8267
 21
-0.582336
  0
LINE
  8
0
 10
-17.8267
 20
-0.582336
 11
-17.8694
 21
-0.723236
  0
LINE
  8
0
 10
-17.8694
 20
-0.723236
 11
-17.9213
 21
-0.861023
  0
LINE
  8
0
 10
-17.9213
 20
-0.861023
 11
-17.982
 21
-0.995148
  0
LINE
  8
0
 10
-17.982
 20
-0.995148
 11
-18.0514
 21
-1.125
  0
LINE
  8
0
 10
-18.0514
 20
-1.125
 11
-18.1292
 21
-1.25003
  0
LINE
  8
0
 10
-18.1292
 20
-1.25003
 11
-18.215
 21
-1.36971
  0
LINE
  8
0
 10
-18.215
 20
-1.36971
 11
-18.3083
 21
-1.48352
  0
LINE
  8
0
 10
-18.3083
 20
-1.48352
 11
-18.409
 21
-1.59099
  0
LINE
  8
0
 10
-18.409
 20
-1.59099
 11
-18.5165
 21
-1.69164
  0
LINE
  8
0
 10
-18.5165
 20
-1.69164
 11
-18.6303
 21
-1.78503
  0
LINE
  8
0
 10
-18.6303
 20
-1.78503
 11
-18.75
 21
-1.8708
  0
LINE
  8
0
 10
-18.75
 20
-1.8708
 11
-18.875
 21
-1.94855
  0
LINE
  8
0
 10
-18.875
 20
-1.94855
 11
-19.0048
 21
-2.01796
  0
LINE
  8
0
 10
-19.0048
 20
-2.01796
 11
-19.139
 21
-2.07872
  0
LINE
  8
0
 10
-19.139
 20
-2.07872
 11
-19.2767
 21
-2.13058
  0
LINE
  8
0
 10
-19.2767
 20
-2.13058
 11
-19.4176
 21
-2.17332
  0
LINE
  8
0
 10
-19.4176
 20
-2.17332
 11
-19.561
 21
-2.20676
  0
LINE
  8
0
 10
-19.561
 20
-2.20676
 11
-19.7063
 21
-2.23074
  0
LINE
  8
0
 10
-19.7063
 20
-2.23074
 11
-19.8528
 21
-2.24518
  0
LINE
  8
0
 10
-19.8528
 20
-2.24518
 11
-20
 21
-2.25
  0
LINE
  8
0
 10
-20
 20
-2.25
 11
-20.1472
 21
-2.24518
  0
ENDSEC
  0
SECTION
  2
OBJECTS
  0
DICTIONARY
  0
ENDSEC
  0
EOF
