  0
SECTION
  2
BLOCKS
  0
ENDSEC
  0
SECTION
  2
ENTITIES
  0
LINE
  8
0
 10
2.08635
 20
-31.8317
 11
4.16377
 21
-31.6271
  0
LINE
  8
0
 10
4.16377
 20
-31.6271
 11
6.22337
 21
-31.287
  0
LINE
  8
0
 10
6.22337
 20
-31.287
 11
8.25632
 21
-30.813
  0
LINE
  8
0
 10
8.25632
 20
-30.813
 11
10.2539
 21
-30.2071
  0
LINE
  8
0
 10
10.2539
 20
-30.2071
 11
12.2076
 21
-29.4718
  0
LINE
  8
0
 10
12.2076
 20
-29.4718
 11
14.109
 21
-28.6102
  0
LINE
  8
0
 10
14.109
 20
-28.6102
 11
15.95
 21
-27.6262
  0
LINE
  8
0
 10
15.95
 20
-27.6262
 11
17.7227
 21
-26.5239
  0
LINE
  8
0
 10
17.7227
 20
-26.5239
 11
19.4195
 21
-25.308
  0
LINE
  8
0
 10
19.4195
 20
-25.308
 11
21.0331
 21
-23.9837
  0
LINE
  8
0
 10
21.0331
 20
-23.9837
 11
22.5567
 21
-22.5567
  0
LINE
  8
0
 10
22.5567
 20
-22.5567
 11
23.9837
 21
-21.0331
  0
LINE
  8
0
 10
23.9837
 20
-21.0331
 11
25.308
 21
-19.4195
  0
LINE
  8
0
 10
25.308
 20
-19.4195
 11
26.5239
 21
-17.7227
  0
LINE
  8
0
 10
26.5239
 20
-17.7227
 11
27.6262
 21
-15.95
  0
LINE
  8
0
 10
27.6262
 20
-15.95
 11
28.6102
 21
-14.109
  0
LINE
  8
0
 10
28.6102
 20
-14.109
 11
29.4718
 21
-12.2076
  0
LINE
  8
0
 10
29.4718
 20
-12.2076
 11
30.2071
 21
-10.2539
  0
LINE
  8
0
 10
30.2071
 20
-10.2539
 11
30.813
 21
-8.25632
  0
LINE
  8
0
 10
30.813
 20
-8.25632
 11
31.287
 21
-6.22337
  0
LINE
  8
0
 10
31.287
 20
-6.22337
 11
31.6271
 21
-4.16377
  0
LINE
  8
0
 10
31.6271
 20
-4.16377
 11
31.8317
 21
-2.08635
  0
LINE
  8
0
 10
31.8317
 20
-2.08635
 11
31.9
 21
0
  0
LINE
  8
0
 10
31.9
 20
0
 11
31.8317
 21
2.08635
  0
LINE
  8
0
 10
31.8317
 20
2.08635
 11
31.6271
 21
4.16377
  0
LINE
  8
0
 10
31.6271
 20
4.16377
 11
31.287
 21
6.22337
  0
LINE
  8
0
 10
31.287
 20
6.22337
 11
30.813
 21
8.25632
  0
LINE
  8
0
 10
30.813
 20
8.25632
 11
30.2071
 21
10.2539
  0
LINE
  8
0
 10
30.2071
 20
10.2539
 11
29.4718
 21
12.2076
  0
LINE
  8
0
 10
29.4718
 20
12.2076
 11
28.6102
 21
14.109
  0
LINE
  8
0
 10
28.6102
 20
14.109
 11
27.6262
 21
15.95
  0
LINE
  8
0
 10
27.6262
 20
15.95
 11
26.5239
 21
17.7227
  0
LINE
  8
0
 10
26.5239
 20
17.7227
 11
25.308
 21
19.4195
  0
LINE
  8
0
 10
25.308
 20
19.4195
 11
23.9837
 21
21.0331
  0
LINE
  8
0
 10
23.9837
 20
21.0331
 11
22.5567
 21
22.5567
  0
LINE
  8
0
 10
22.5567
 20
22.5567
 11
21.0331
 21
23.9837
  0
LINE
  8
0
 10
21.0331
 20
23.9837
 11
19.4195
 21
25.308
  0
LINE
  8
0
 10
19.4195
 20
25.308
 11
17.7227
 21
26.5239
  0
LINE
  8
0
 10
17.7227
 20
26.5239
 11
15.95
 21
27.6262
  0
LINE
  8
0
 10
15.95
 20
27.6262
 11
14.109
 21
28.6102
  0
LINE
  8
0
 10
14.109
 20
28.6102
 11
12.2076
 21
29.4718
  0
LINE
  8
0
 10
12.2076
 20
29.4718
 11
10.2539
 21
30.2071
  0
LINE
  8
0
 10
10.2539
 20
30.2071
 11
8.25632
 21
30.813
  0
LINE
  8
0
 10
8.25632
 20
30.813
 11
6.22337
 21
31.287
  0
LINE
  8
0
 10
6.22337
 20
31.287
 11
4.16377
 21
31.6271
  0
LINE
  8
0
 10
4.16377
 20
31.6271
 11
2.08635
 21
31.8317
  0
LINE
  8
0
 10
2.08635
 20
31.8317
 11
0
 21
31.9
  0
LINE
  8
0
 10
0
 20
31.9
 11
-2.08635
 21
31.8317
  0
LINE
  8
0
 10
-2.08635
 20
31.8317
 11
-4.16377
 21
31.6271
  0
LINE
  8
0
 10
-4.16377
 20
31.6271
 11
-6.22337
 21
31.287
  0
LINE
  8
0
 10
-6.22337
 20
31.287
 11
-8.25632
 21
30.813
  0
LINE
  8
0
 10
-8.25632
 20
30.813
 11
-10.2539
 21
30.2071
  0
LINE
  8
0
 10
-10.2539
 20
30.2071
 11
-12.2076
 21
29.4718
  0
LINE
  8
0
 10
-12.2076
 20
29.4718
 11
-14.109
 21
28.6102
  0
LINE
  8
0
 10
-14.109
 20
28.6102
 11
-15.95
 21
27.6262
  0
LINE
  8
0
 10
-15.95
 20
27.6262
 11
-17.7227
 21
26.5239
  0
LINE
  8
0
 10
-17.7227
 20
26.5239
 11
-19.4195
 21
25.308
  0
LINE
  8
0
 10
-19.4195
 20
25.308
 11
-21.0331
 21
23.9837
  0
LINE
  8
0
 10
-21.0331
 20
23.9837
 11
-22.5567
 21
22.5567
  0
LINE
  8
0
 10
-22.5567
 20
22.5567
 11
-23.9837
 21
21.0331
  0
LINE
  8
0
 10
-23.9837
 20
21.0331
 11
-25.308
 21
19.4195
  0
LINE
  8
0
 10
-25.308
 20
19.4195
 11
-26.5239
 21
17.7227
  0
LINE
  8
0
 10
-26.5239
 20
17.7227
 11
-27.6262
 21
15.95
  0
LINE
  8
0
 10
-27.6262
 20
15.95
 11
-28.6102
 21
14.109
  0
LINE
  8
0
 10
-28.6102
 20
14.109
 11
-29.4718
 21
12.2076
  0
LINE
  8
0
 10
-29.4718
 20
12.2076
 11
-30.2071
 21
10.2539
  0
LINE
  8
0
 10
-30.2071
 20
10.2539
 11
-30.813
 21
8.25632
  0
LINE
  8
0
 10
-30.813
 20
8.25632
 11
-31.287
 21
6.22337
  0
LINE
  8
0
 10
-31.287
 20
6.22337
 11
-31.6271
 21
4.16377
  0
LINE
  8
0
 10
-31.6271
 20
4.16377
 11
-31.8317
 21
2.08635
  0
LINE
  8
0
 10
-31.8317
 20
2.08635
 11
-31.9
 21
0
  0
LINE
  8
0
 10
-31.9
 20
0
 11
-31.8317
 21
-2.08635
  0
LINE
  8
0
 10
-31.8317
 20
-2.08635
 11
-31.6271
 21
-4.16377
  0
LINE
  8
0
 10
-31.6271
 20
-4.16377
 11
-31.287
 21
-6.22337
  0
LINE
  8
0
 10
-31.287
 20
-6.22337
 11
-30.813
 21
-8.25632
  0
LINE
  8
0
 10
-30.813
 20
-8.25632
 11
-30.2071
 21
-10.2539
  0
LINE
  8
0
 10
-30.2071
 20
-10.2539
 11
-29.4718
 21
-12.2076
  0
LINE
  8
0
 10
-29.4718
 20
-12.2076
 11
-28.6102
 21
-14.109
  0
LINE
  8
0
 10
-28.6102
 20
-14.109
 11
-27.6262
 21
-15.95
  0
LINE
  8
0
 10
-27.6262
 20
-15.95
 11
-26.5239
 21
-17.7227
  0
LINE
  8
0
 10
-26.5239
 20
-17.7227
 11
-25.308
 21
-19.4195
  0
LINE
  8
0
 10
-25.308
 20
-19.4195
 11
-23.9837
 21
-21.0331
  0
LINE
  8
0
 10
-23.9837
 20
-21.0331
 11
-22.5567
 21
-22.5567
  0
LINE
  8
0
 10
-22.5567
 20
-22.5567
 11
-21.0331
 21
-23.9837
  0
LINE
  8
0
 10
-21.0331
 20
-23.9837
 11
-19.4195
 21
-25.308
  0
LINE
  8
0
 10
-19.4195
 20
-25.308
 11
-17.7227
 21
-26.5239
  0
LINE
  8
0
 10
-17.7227
 20
-26.5239
 11
-15.95
 21
-27.6262
  0
LINE
  8
0
 10
-15.95
 20
-27.6262
 11
-14.109
 21
-28.6102
  0
LINE
  8
0
 10
-14.109
 20
-28.6102
 11
-12.2076
 21
-29.4718
  0
LINE
  8
0
 10
-12.2076
 20
-29.4718
 11
-10.2539
 21
-30.2071
  0
LINE
  8
0
 10
-10.2539
 20
-30.2071
 11
-8.25632
 21
-30.813
  0
LINE
  8
0
 10
-8.25632
 20
-30.813
 11
-6.22337
 21
-31.287
  0
LINE
  8
0
 10
-6.22337
 20
-31.287
 11
-4.16377
 21
-31.6271
  0
LINE
  8
0
 10
-4.16377
 20
-31.6271
 11
-2.08635
 21
-31.8317
  0
LINE
  8
0
 10
-2.08635
 20
-31.8317
 11
0
 21
-31.9
  0
LINE
  8
0
 10
0
 20
-31.9
 11
2.08635
 21
-31.8317
  0
LINE
  8
0
 10
-0.212555
 20
-3.24303
 11
-0.42421
 21
-3.22218
  0
LINE
  8
0
 10
-0.42421
 20
-3.22218
 11
-0.634033
 21
-3.18755
  0
LINE
  8
0
 10
-0.634033
 20
-3.18755
 11
-0.841156
 21
-3.13925
  0
LINE
  8
0
 10
-0.841156
 20
-3.13925
 11
-1.04468
 21
-3.07751
  0
LINE
  8
0
 10
-1.04468
 20
-3.07751
 11
-1.24371
 21
-3.00259
  0
LINE
  8
0
 10
-1.24371
 20
-3.00259
 11
-1.43742
 21
-2.91483
  0
LINE
  8
0
 10
-1.43742
 20
-2.91483
 11
-1.625
 21
-2.81458
  0
LINE
  8
0
 10
-1.625
 20
-2.81458
 11
-1.8056
 21
-2.70227
  0
LINE
  8
0
 10
-1.8056
 20
-2.70227
 11
-1.97847
 21
-2.57838
  0
LINE
  8
0
 10
-1.97847
 20
-2.57838
 11
-2.14287
 21
-2.44347
  0
LINE
  8
0
 10
-2.14287
 20
-2.44347
 11
-2.2981
 21
-2.2981
  0
LINE
  8
0
 10
-2.2981
 20
-2.2981
 11
-2.44347
 21
-2.14287
  0
LINE
  8
0
 10
-2.44347
 20
-2.14287
 11
-2.57838
 21
-1.97847
  0
LINE
  8
0
 10
-2.57838
 20
-1.97847
 11
-2.70227
 21
-1.8056
  0
LINE
  8
0
 10
-2.70227
 20
-1.8056
 11
-2.81458
 21
-1.625
  0
LINE
  8
0
 10
-2.81458
 20
-1.625
 11
-2.91483
 21
-1.43742
  0
LINE
  8
0
 10
-2.91483
 20
-1.43742
 11
-3.00259
 21
-1.24371
  0
LINE
  8
0
 10
-3.00259
 20
-1.24371
 11
-3.07751
 21
-1.04468
  0
LINE
  8
0
 10
-3.07751
 20
-1.04468
 11
-3.13925
 21
-0.841156
  0
LINE
  8
0
 10
-3.13925
 20
-0.841156
 11
-3.18755
 21
-0.634033
  0
LINE
  8
0
 10
-3.18755
 20
-0.634033
 11
-3.22218
 21
-0.42421
  0
LINE
  8
0
 10
-3.22218
 20
-0.42421
 11
-3.24303
 21
-0.212555
  0
LINE
  8
0
 10
-3.24303
 20
-0.212555
 11
-3.25
 21
0
  0
LINE
  8
0
 10
-3.25
 20
0
 11
-3.24303
 21
0.212555
  0
LINE
  8
0
 10
-3.24303
 20
0.212555
 11
-3.22218
 21
0.42421
  0
LINE
  8
0
 10
-3.22218
 20
0.42421
 11
-3.18755
 21
0.634033
  0
LINE
  8
0
 10
-3.18755
 20
0.634033
 11
-3.13925
 21
0.841156
  0
LINE
  8
0
 10
-3.13925
 20
0.841156
 11
-3.07751
 21
1.04468
  0
LINE
  8
0
 10
-3.07751
 20
1.04468
 11
-3.00259
 21
1.24371
  0
LINE
  8
0
 10
-3.00259
 20
1.24371
 11
-2.91483
 21
1.43742
  0
LINE
  8
0
 10
-2.91483
 20
1.43742
 11
-2.81458
 21
1.625
  0
LINE
  8
0
 10
-2.81458
 20
1.625
 11
-2.70227
 21
1.8056
  0
LINE
  8
0
 10
-2.70227
 20
1.8056
 11
-2.57838
 21
1.97847
  0
LINE
  8
0
 10
-2.57838
 20
1.97847
 11
-2.44347
 21
2.14287
  0
LINE
  8
0
 10
-2.44347
 20
2.14287
 11
-2.2981
 21
2.2981
  0
LINE
  8
0
 10
-2.2981
 20
2.2981
 11
-2.14287
 21
2.44347
  0
LINE
  8
0
 10
-2.14287
 20
2.44347
 11
-1.97847
 21
2.57838
  0
LINE
  8
0
 10
-1.97847
 20
2.57838
 11
-1.8056
 21
2.70227
  0
LINE
  8
0
 10
-1.8056
 20
2.70227
 11
-1.625
 21
2.81458
  0
LINE
  8
0
 10
-1.625
 20
2.81458
 11
-1.43742
 21
2.91483
  0
LINE
  8
0
 10
-1.43742
 20
2.91483
 11
-1.24371
 21
3.00259
  0
LINE
  8
0
 10
-1.24371
 20
3.00259
 11
-1.04468
 21
3.07751
  0
LINE
  8
0
 10
-1.04468
 20
3.07751
 11
-0.841156
 21
3.13925
  0
LINE
  8
0
 10
-0.841156
 20
3.13925
 11
-0.634033
 21
3.18755
  0
LINE
  8
0
 10
-0.634033
 20
3.18755
 11
-0.42421
 21
3.22218
  0
LINE
  8
0
 10
-0.42421
 20
3.22218
 11
-0.212555
 21
3.24303
  0
LINE
  8
0
 10
-0.212555
 20
3.24303
 11
0
 21
3.25
  0
LINE
  8
0
 10
0
 20
3.25
 11
0.212555
 21
3.24303
  0
LINE
  8
0
 10
0.212555
 20
3.24303
 11
0.42421
 21
3.22218
  0
LINE
  8
0
 10
0.42421
 20
3.22218
 11
0.634033
 21
3.18755
  0
LINE
  8
0
 10
0.634033
 20
3.18755
 11
0.841156
 21
3.13925
  0
LINE
  8
0
 10
0.841156
 20
3.13925
 11
1.04468
 21
3.07751
  0
LINE
  8
0
 10
1.04468
 20
3.07751
 11
1.24371
 21
3.00259
  0
LINE
  8
0
 10
1.24371
 20
3.00259
 11
1.43742
 21
2.91483
  0
LINE
  8
0
 10
1.43742
 20
2.91483
 11
1.625
 21
2.81458
  0
LINE
  8
0
 10
1.625
 20
2.81458
 11
1.8056
 21
2.70227
  0
LINE
  8
0
 10
1.8056
 20
2.70227
 11
1.97847
 21
2.57838
  0
LINE
  8
0
 10
1.97847
 20
2.57838
 11
2.14287
 21
2.44347
  0
LINE
  8
0
 10
2.14287
 20
2.44347
 11
2.2981
 21
2.2981
  0
LINE
  8
0
 10
2.2981
 20
2.2981
 11
2.44347
 21
2.14287
  0
LINE
  8
0
 10
2.44347
 20
2.14287
 11
2.57838
 21
1.97847
  0
LINE
  8
0
 10
2.57838
 20
1.97847
 11
2.70227
 21
1.8056
  0
LINE
  8
0
 10
2.70227
 20
1.8056
 11
2.81458
 21
1.625
  0
LINE
  8
0
 10
2.81458
 20
1.625
 11
2.91483
 21
1.43742
  0
LINE
  8
0
 10
2.91483
 20
1.43742
 11
3.00259
 21
1.24371
  0
LINE
  8
0
 10
3.00259
 20
1.24371
 11
3.07751
 21
1.04468
  0
LINE
  8
0
 10
3.07751
 20
1.04468
 11
3.13925
 21
0.841156
  0
LINE
  8
0
 10
3.13925
 20
0.841156
 11
3.18755
 21
0.634033
  0
LINE
  8
0
 10
3.18755
 20
0.634033
 11
3.22218
 21
0.42421
  0
LINE
  8
0
 10
3.22218
 20
0.42421
 11
3.24303
 21
0.212555
  0
LINE
  8
0
 10
3.24303
 20
0.212555
 11
3.25
 21
0
  0
LINE
  8
0
 10
3.25
 20
0
 11
3.24303
 21
-0.212555
  0
LINE
  8
0
 10
3.24303
 20
-0.212555
 11
3.22218
 21
-0.42421
  0
LINE
  8
0
 10
3.22218
 20
-0.42421
 11
3.18755
 21
-0.634033
  0
LINE
  8
0
 10
3.18755
 20
-0.634033
 11
3.13925
 21
-0.841156
  0
LINE
  8
0
 10
3.13925
 20
-0.841156
 11
3.07751
 21
-1.04468
  0
LINE
  8
0
 10
3.07751
 20
-1.04468
 11
3.00259
 21
-1.24371
  0
LINE
  8
0
 10
3.00259
 20
-1.24371
 11
2.91483
 21
-1.43742
  0
LINE
  8
0
 10
2.91483
 20
-1.43742
 11
2.81458
 21
-1.625
  0
LINE
  8
0
 10
2.81458
 20
-1.625
 11
2.70227
 21
-1.8056
  0
LINE
  8
0
 10
2.70227
 20
-1.8056
 11
2.57838
 21
-1.97847
  0
LINE
  8
0
 10
2.57838
 20
-1.97847
 11
2.44347
 21
-2.14287
  0
LINE
  8
0
 10
2.44347
 20
-2.14287
 11
2.2981
 21
-2.2981
  0
LINE
  8
0
 10
2.2981
 20
-2.2981
 11
2.14287
 21
-2.44347
  0
LINE
  8
0
 10
2.14287
 20
-2.44347
 11
1.97847
 21
-2.57838
  0
LINE
  8
0
 10
1.97847
 20
-2.57838
 11
1.8056
 21
-2.70227
  0
LINE
  8
0
 10
1.8056
 20
-2.70227
 11
1.625
 21
-2.81458
  0
LINE
  8
0
 10
1.625
 20
-2.81458
 11
1.43742
 21
-2.91483
  0
LINE
  8
0
 10
1.43742
 20
-2.91483
 11
1.24371
 21
-3.00259
  0
LINE
  8
0
 10
1.24371
 20
-3.00259
 11
1.04468
 21
-3.07751
  0
LINE
  8
0
 10
1.04468
 20
-3.07751
 11
0.841156
 21
-3.13925
  0
LINE
  8
0
 10
0.841156
 20
-3.13925
 11
0.634033
 21
-3.18755
  0
LINE
  8
0
 10
0.634033
 20
-3.18755
 11
0.42421
 21
-3.22218
  0
LINE
  8
0
 10
0.42421
 20
-3.22218
 11
0.212555
 21
-3.24303
  0
LINE
  8
0
 10
0.212555
 20
-3.24303
 11
0
 21
-3.25
  0
LINE
  8
0
 10
0
 20
-3.25
 11
-0.212555
 21
-3.24303
  0
LINE
  8
0
 10
-20.1472
 20
-2.24518
 11
-20.2937
 21
-2.23074
  0
LINE
  8
0
 10
-20.2937
 20
-2.23074
 11
-20.4389
 21
-2.20676
  0
LINE
  8
0
 10
-20.4389
 20
-2.20676
 11
-20.5823
 21
-2.17332
  0
LINE
  8
0
 10
-20.5823
 20
-2.17332
 11
-20.7232
 21
-2.13058
  0
LINE
  8
0
 10
-20.7232
 20
-2.13058
 11
-20.861
 21
-2.07872
  0
LINE
  8
0
 10
-20.861
 20
-2.07872
 11
-20.9951
 21
-2.01796
  0
LINE
  8
0
 10
-20.9951
 20
-2.01796
 11
-21.125
 21
-1.94855
  0
LINE
  8
0
 10
-21.125
 20
-1.94855
 11
-21.25
 21
-1.8708
  0
LINE
  8
0
 10
-21.25
 20
-1.8708
 11
-21.3697
 21
-1.78503
  0
LINE
  8
0
 10
-21.3697
 20
-1.78503
 11
-21.4835
 21
-1.69164
  0
LINE
  8
0
 10
-21.4835
 20
-1.69164
 11
-21.591
 21
-1.59099
  0
LINE
  8
0
 10
-21.591
 20
-1.59099
 11
-21.6916
 21
-1.48352
  0
LINE
  8
0
 10
-21.6916
 20
-1.48352
 11
-21.785
 21
-1.36971
  0
LINE
  8
0
 10
-21.785
 20
-1.36971
 11
-21.8708
 21
-1.25003
  0
LINE
  8
0
 10
-21.8708
 20
-1.25003
 11
-21.9485
 21
-1.125
  0
LINE
  8
0
 10
-21.9485
 20
-1.125
 11
-22.018
 21
-0.995148
  0
LINE
  8
0
 10
-22.018
 20
-0.995148
 11
-22.0787
 21
-0.861023
  0
LINE
  8
0
 10
-22.0787
 20
-0.861023
 11
-22.1306
 21
-0.723236
  0
LINE
  8
0
 10
-22.1306
 20
-0.723236
 11
-22.1733
 21
-0.582336
  0
LINE
  8
0
 10
-22.1733
 20
-0.582336
 11
-22.2068
 21
-0.43895
  0
LINE
  8
0
 10
-22.2068
 20
-0.43895
 11
-22.2307
 21
-0.293671
  0
LINE
  8
0
 10
-22.2307
 20
-0.293671
 11
-22.2452
 21
-0.147156
  0
LINE
  8
0
 10
-22.2452
 20
-0.147156
 11
-22.25
 21
0
  0
LINE
  8
0
 10
-22.25
 20
0
 11
-22.2452
 21
0.147156
  0
LINE
  8
0
 10
-22.2452
 20
0.147156
 11
-22.2307
 21
0.293671
  0
LINE
  8
0
 10
-22.2307
 20
0.293671
 11
-22.2068
 21
0.43895
  0
LINE
  8
0
 10
-22.2068
 20
0.43895
 11
-22.1733
 21
0.582336
  0
LINE
  8
0
 10
-22.1733
 20
0.582336
 11
-22.1306
 21
0.723236
  0
LINE
  8
0
 10
-22.1306
 20
0.723236
 11
-22.0787
 21
0.861023
  0
LINE
  8
0
 10
-22.0787
 20
0.861023
 11
-22.018
 21
0.995148
  0
LINE
  8
0
 10
-22.018
 20
0.995148
 11
-21.9485
 21
1.125
  0
LINE
  8
0
 10
-21.9485
 20
1.125
 11
-21.8708
 21
1.25003
  0
LINE
  8
0
 10
-21.8708
 20
1.25003
 11
-21.785
 21
1.36971
  0
LINE
  8
0
 10
-21.785
 20
1.36971
 11
-21.6916
 21
1.48352
  0
LINE
  8
0
 10
-21.6916
 20
1.48352
 11
-21.591
 21
1.59099
  0
LINE
  8
0
 10
-21.591
 20
1.59099
 11
-21.4835
 21
1.69164
  0
LINE
  8
0
 10
-21.4835
 20
1.69164
 11
-21.3697
 21
1.78503
  0
LINE
  8
0
 10
-21.3697
 20
1.78503
 11
-21.25
 21
1.8708
  0
LINE
  8
0
 10
-21.25
 20
1.8708
 11
-21.125
 21
1.94855
  0
LINE
  8
0
 10
-21.125
 20
1.94855
 11
-20.9951
 21
2.01796
  0
LINE
  8
0
 10
-20.9951
 20
2.01796
 11
-20.861
 21
2.07872
  0
LINE
  8
0
 10
-20.861
 20
2.07872
 11
-20.7232
 21
2.13058
  0
LINE
  8
0
 10
-20.7232
 20
2.13058
 11
-20.5823
 21
2.17332
  0
LINE
  8
0
 10
-20.5823
 20
2.17332
 11
-20.4389
 21
2.20676
  0
LINE
  8
0
 10
-20.4389
 20
2.20676
 11
-20.2937
 21
2.23074
  0
LINE
  8
0
 10
-20.2937
 20
2.23074
 11
-20.1472
 21
2.24518
  0
LINE
  8
0
 10
-20.1472
 20
2.24518
 11
-20
 21
2.25
  0
LINE
  8
0
 10
-20
 20
2.25
 11
-19.8528
 21
2.24518
  0
LINE
  8
0
 10
-19.8528
 20
2.24518
 11
-19.7063
 21
2.23074
  0
LINE
  8
0
 10
-19.7063
 20
2.23074
 11
-19.561
 21
2.20676
  0
LINE
  8
0
 10
-19.561
 20
2.20676
 11
-19.4176
 21
2.17332
  0
LINE
  8
0
 10
-19.4176
 20
2.17332
 11
-19.2767
 21
2.13058
  0
LINE
  8
0
 10
-19.2767
 20
2.13058
 11
-19.139
 21
2.07872
  0
LINE
  8
0
 10
-19.139
 20
2.07872
 11
-19.0048
 21
2.01796
  0
LINE
  8
0
 10
-19.0048
 20
2.01796
 11
-18.875
 21
1.94855
  0
LINE
  8
0
 10
-18.875
 20
1.94855
 11
-18.75
 21
1.8708
  0
LINE
  8
0
 10
-18.75
 20
1.8708
 11
-18.6303
 21
1.78503
  0
LINE
  8
0
 10
-18.6303
 20
1.78503
 11
-18.5165
 21
1.69164
  0
LINE
  8
0
 10
-18.5165
 20
1.69164
 11
-18.409
 21
1.59099
  0
LINE
  8
0
 10
-18.409
 20
1.59099
 11
-18.3083
 21
1.48352
  0
LINE
  8
0
 10
-18.3083
 20
1.48352
 11
-18.215
 21
1.36971
  0
LINE
  8
0
 10
-18.215
 20
1.36971
 11
-18.1292
 21
1.25003
  0
LINE
  8
0
 10
-18.1292
 20
1.25003
 11
-18.0514
 21
1.125
  0
LINE
  8
0
 10
-18.0514
 20
1.125
 11
-17.982
 21
0.995148
  0
LINE
  8
0
 10
-17.982
 20
0.995148
 11
-17.9213
 21
0.861023
  0
LINE
  8
0
 10
-17.9213
 20
0.861023
 11
-17.8694
 21
0.723236
  0
LINE
  8
0
 10
-17.8694
 20
0.723236
 11
-17.8267
 21
0.582336
  0
LINE
  8
0
 10
-17.8267
 20
0.582336
 11
-17.7932
 21
0.43895
  0
LINE
  8
0
 10
-17.7932
 20
0.43895
 11
-17.7692
 21
0.293671
  0
LINE
  8
0
 10
-17.7692
 20
0.293671
 11
-17.7548
 21
0.147156
  0
LINE
  8
0
 10
-17.7548
 20
0.147156
 11
-17.75
 21
0
  0
LINE
  8
0
 10
-17.75
 20
0
 11
-17.7548
 21
-0.147156
  0
LINE
  8
0
 10
-17.7548
 20
-0.147156
 11
-17.7692
 21
-0.293671
  0
LINE
  8
0
 10
-17.7692
 20
-0.293671
 11
-17.7932
 21
-0.43895
  0
LINE
  8
0
 10
-17.7932
 20
-0.43895
 11
-17.8267
 21
-0.582336
  0
LINE
  8
0
 10
-17.8267
 20
-0.582336
 11
-17.8694
 21
-0.723236
  0
LINE
  8
0
 10
-17.8694
 20
-0.723236
 11
-17.9213
 21
-0.861023
  0
LINE
  8
0
 10
-17.9213
 20
-0.861023
 11
-17.982
 21
-0.995148
  0
LINE
  8
0
 10
-17.982
 20
-0.995148
 11
-18.0514
 21
-1.125
  0
LINE
  8
0
 10
-18.0514
 20
-1.125
 11
-18.1292
 21
-1.25003
  0
LINE
  8
0
 10
-18.1292
 20
-1.25003
 11
-18.215
 21
-1.36971
  0
LINE
  8
0
 10
-18.215
 20
-1.36971
 11
-18.3083
 21
-1.48352
  0
LINE
  8
0
 10
-18.3083
 20
-1.48352
 11
-18.409
 21
-1.59099
  0
LINE
  8
0
 10
-18.409
 20
-1.59099
 11
-18.5165
 21
-1.69164
  0
LINE
  8
0
 10
-18.5165
 20
-1.69164
 11
-18.6303
 21
-1.78503
  0
LINE
  8
0
 10
-18.6303
 20
-1.78503
 11
-18.75
 21
-1.8708
  0
LINE
  8
0
 10
-18.75
 20
-1.8708
 11
-18.875
 21
-1.94855
  0
LINE
  8
0
 10
-18.875
 20
-1.94855
 11
-19.0048
 21
-2.01796
  0
LINE
  8
0
 10
-19.0048
 20
-2.01796
 11
-19.139
 21
-2.07872
  0
LINE
  8
0
 10
-19.139
 20
-2.07872
 11
-19.2767
 21
-2.13058
  0
LINE
  8
0
 10
-19.2767
 20
-2.13058
 11
-19.4176
 21
-2.17332
  0
LINE
  8
0
 10
-19.4176
 20
-2.17332
 11
-19.561
 21
-2.20676
  0
LINE
  8
0
 10
-19.561
 20
-2.20676
 11
-19.7063
 21
-2.23074
  0
LINE
  8
0
 10
-19.7063
 20
-2.23074
 11
-19.8528
 21
-2.24518
  0
LINE
  8
0
 10
-19.8528
 20
-2.24518
 11
-20
 21
-2.25
  0
LINE
  8
0
 10
-20
 20
-2.25
 11
-20.1472
 21
-2.24518
  0
LINE
  8
0
 10
19.8528
 20
-2.24518
 11
19.7063
 21
-2.23074
  0
LINE
  8
0
 10
19.7063
 20
-2.23074
 11
19.561
 21
-2.20676
  0
LINE
  8
0
 10
19.561
 20
-2.20676
 11
19.4176
 21
-2.17332
  0
LINE
  8
0
 10
19.4176
 20
-2.17332
 11
19.2767
 21
-2.13058
  0
LINE
  8
0
 10
19.2767
 20
-2.13058
 11
19.139
 21
-2.07872
  0
LINE
  8
0
 10
19.139
 20
-2.07872
 11
19.0048
 21
-2.01796
  0
LINE
  8
0
 10
19.0048
 20
-2.01796
 11
18.875
 21
-1.94855
  0
LINE
  8
0
 10
18.875
 20
-1.94855
 11
18.75
 21
-1.8708
  0
LINE
  8
0
 10
18.75
 20
-1.8708
 11
18.6303
 21
-1.78503
  0
LINE
  8
0
 10
18.6303
 20
-1.78503
 11
18.5165
 21
-1.69164
  0
LINE
  8
0
 10
18.5165
 20
-1.69164
 11
18.409
 21
-1.59099
  0
LINE
  8
0
 10
18.409
 20
-1.59099
 11
18.3083
 21
-1.48352
  0
LINE
  8
0
 10
18.3083
 20
-1.48352
 11
18.215
 21
-1.36971
  0
LINE
  8
0
 10
18.215
 20
-1.36971
 11
18.1292
 21
-1.25003
  0
LINE
  8
0
 10
18.1292
 20
-1.25003
 11
18.0514
 21
-1.125
  0
LINE
  8
0
 10
18.0514
 20
-1.125
 11
17.982
 21
-0.995148
  0
LINE
  8
0
 10
17.982
 20
-0.995148
 11
17.9213
 21
-0.861023
  0
LINE
  8
0
 10
17.9213
 20
-0.861023
 11
17.8694
 21
-0.723236
  0
LINE
  8
0
 10
17.8694
 20
-0.723236
 11
17.8267
 21
-0.582336
  0
LINE
  8
0
 10
17.8267
 20
-0.582336
 11
17.7932
 21
-0.43895
  0
LINE
  8
0
 10
17.7932
 20
-0.43895
 11
17.7692
 21
-0.293671
  0
LINE
  8
0
 10
17.7692
 20
-0.293671
 11
17.7548
 21
-0.147156
  0
LINE
  8
0
 10
17.7548
 20
-0.147156
 11
17.75
 21
0
  0
LINE
  8
0
 10
17.75
 20
0
 11
17.7548
 21
0.147156
  0
LINE
  8
0
 10
17.7548
 20
0.147156
 11
17.7692
 21
0.293671
  0
LINE
  8
0
 10
17.7692
 20
0.293671
 11
17.7932
 21
0.43895
  0
LINE
  8
0
 10
17.7932
 20
0.43895
 11
17.8267
 21
0.582336
  0
LINE
  8
0
 10
17.8267
 20
0.582336
 11
17.8694
 21
0.723236
  0
LINE
  8
0
 10
17.8694
 20
0.723236
 11
17.9213
 21
0.861023
  0
LINE
  8
0
 10
17.9213
 20
0.861023
 11
17.982
 21
0.995148
  0
LINE
  8
0
 10
17.982
 20
0.995148
 11
18.0514
 21
1.125
  0
LINE
  8
0
 10
18.0514
 20
1.125
 11
18.1292
 21
1.25003
  0
LINE
  8
0
 10
18.1292
 20
1.25003
 11
18.215
 21
1.36971
  0
LINE
  8
0
 10
18.215
 20
1.36971
 11
18.3083
 21
1.48352
  0
LINE
  8
0
 10
18.3083
 20
1.48352
 11
18.409
 21
1.59099
  0
LINE
  8
0
 10
18.409
 20
1.59099
 11
18.5165
 21
1.69164
  0
LINE
  8
0
 10
18.5165
 20
1.69164
 11
18.6303
 21
1.78503
  0
LINE
  8
0
 10
18.6303
 20
1.78503
 11
18.75
 21
1.8708
  0
LINE
  8
0
 10
18.75
 20
1.8708
 11
18.875
 21
1.94855
  0
LINE
  8
0
 10
18.875
 20
1.94855
 11
19.0048
 21
2.01796
  0
LINE
  8
0
 10
19.0048
 20
2.01796
 11
19.139
 21
2.07872
  0
LINE
  8
0
 10
19.139
 20
2.07872
 11
19.2767
 21
2.13058
  0
LINE
  8
0
 10
19.2767
 20
2.13058
 11
19.4176
 21
2.17332
  0
LINE
  8
0
 10
19.4176
 20
2.17332
 11
19.561
 21
2.20676
  0
LINE
  8
0
 10
19.561
 20
2.20676
 11
19.7063
 21
2.23074
  0
LINE
  8
0
 10
19.7063
 20
2.23074
 11
19.8528
 21
2.24518
  0
LINE
  8
0
 10
19.8528
 20
2.24518
 11
20
 21
2.25
  0
LINE
  8
0
 10
20
 20
2.25
 11
20.1472
 21
2.24518
  0
LINE
  8
0
 10
20.1472
 20
2.24518
 11
20.2937
 21
2.23074
  0
LINE
  8
0
 10
20.2937
 20
2.23074
 11
20.4389
 21
2.20676
  0
LINE
  8
0
 10
20.4389
 20
2.20676
 11
20.5823
 21
2.17332
  0
LINE
  8
0
 10
20.5823
 20
2.17332
 11
20.7232
 21
2.13058
  0
LINE
  8
0
 10
20.7232
 20
2.13058
 11
20.861
 21
2.07872
  0
LINE
  8
0
 10
20.861
 20
2.07872
 11
20.9951
 21
2.01796
  0
LINE
  8
0
 10
20.9951
 20
2.01796
 11
21.125
 21
1.94855
  0
LINE
  8
0
 10
21.125
 20
1.94855
 11
21.25
 21
1.8708
  0
LINE
  8
0
 10
21.25
 20
1.8708
 11
21.3697
 21
1.78503
  0
LINE
  8
0
 10
21.3697
 20
1.78503
 11
21.4835
 21
1.69164
  0
LINE
  8
0
 10
21.4835
 20
1.69164
 11
21.591
 21
1.59099
  0
LINE
  8
0
 10
21.591
 20
1.59099
 11
21.6916
 21
1.48352
  0
LINE
  8
0
 10
21.6916
 20
1.48352
 11
21.785
 21
1.36971
  0
LINE
  8
0
 10
21.785
 20
1.36971
 11
21.8708
 21
1.25003
  0
LINE
  8
0
 10
21.8708
 20
1.25003
 11
21.9485
 21
1.125
  0
LINE
  8
0
 10
21.9485
 20
1.125
 11
22.018
 21
0.995148
  0
LINE
  8
0
 10
22.018
 20
0.995148
 11
22.0787
 21
0.861023
  0
LINE
  8
0
 10
22.0787
 20
0.861023
 11
22.1306
 21
0.723236
  0
LINE
  8
0
 10
22.1306
 20
0.723236
 11
22.1733
 21
0.582336
  0
LINE
  8
0
 10
22.1733
 20
0.582336
 11
22.2068
 21
0.43895
  0
LINE
  8
0
 10
22.2068
 20
0.43895
 11
22.2307
 21
0.293671
  0
LINE
  8
0
 10
22.2307
 20
0.293671
 11
22.2452
 21
0.147156
  0
LINE
  8
0
 10
22.2452
 20
0.147156
 11
22.25
 21
0
  0
LINE
  8
0
 10
22.25
 20
0
 11
22.2452
 21
-0.147156
  0
LINE
  8
0
 10
22.2452
 20
-0.147156
 11
22.2307
 21
-0.293671
  0
LINE
  8
0
 10
22.2307
 20
-0.293671
 11
22.2068
 21
-0.43895
  0
LINE
  8
0
 10
22.2068
 20
-0.43895
 11
22.1733
 21
-0.582336
  0
LINE
  8
0
 10
22.1733
 20
-0.582336
 11
22.1306
 21
-0.723236
  0
LINE
  8
0
 10
22.1306
 20
-0.723236
 11
22.0787
 21
-0.861023
  0
LINE
  8
0
 10
22.0787
 20
-0.861023
 11
22.018
 21
-0.995148
  0
LINE
  8
0
 10
22.018
 20
-0.995148
 11
21.9485
 21
-1.125
  0
LINE
  8
0
 10
21.9485
 20
-1.125
 11
21.8708
 21
-1.25003
  0
LINE
  8
0
 10
21.8708
 20
-1.25003
 11
21.785
 21
-1.36971
  0
LINE
  8
0
 10
21.785
 20
-1.36971
 11
21.6916
 21
-1.48352
  0
LINE
  8
0
 10
21.6916
 20
-1.48352
 11
21.591
 21
-1.59099
  0
LINE
  8
0
 10
21.591
 20
-1.59099
 11
21.4835
 21
-1.69164
  0
LINE
  8
0
 10
21.4835
 20
-1.69164
 11
21.3697
 21
-1.78503
  0
LINE
  8
0
 10
21.3697
 20
-1.78503
 11
21.25
 21
-1.8708
  0
LINE
  8
0
 10
21.25
 20
-1.8708
 11
21.125
 21
-1.94855
  0
LINE
  8
0
 10
21.125
 20
-1.94855
 11
20.9951
 21
-2.01796
  0
LINE
  8
0
 10
20.9951
 20
-2.01796
 11
20.861
 21
-2.07872
  0
LINE
  8
0
 10
20.861
 20
-2.07872
 11
20.7232
 21
-2.13058
  0
LINE
  8
0
 10
20.7232
 20
-2.13058
 11
20.5823
 21
-2.17332
  0
LINE
  8
0
 10
20.5823
 20
-2.17332
 11
20.4389
 21
-2.20676
  0
LINE
  8
0
 10
20.4389
 20
-2.20676
 11
20.2937
 21
-2.23074
  0
LINE
  8
0
 10
20.2937
 20
-2.23074
 11
20.1472
 21
-2.24518
  0
LINE
  8
0
 10
20.1472
 20
-2.24518
 11
20
 21
-2.25
  0
LINE
  8
0
 10
20
 20
-2.25
 11
19.8528
 21
-2.24518
  0
ENDSEC
  0
SECTION
  2
OBJECTS
  0
DICTIONARY
  0
ENDSEC
  0
EOF
