  0
SECTION
  2
BLOCKS
  0
ENDSEC
  0
SECTION
  2
ENTITIES
  0
LINE
  8
0
 10
2.08635
 20
-31.8317
 11
4.16377
 21
-31.6271
  0
LINE
  8
0
 10
4.16377
 20
-31.6271
 11
6.22337
 21
-31.287
  0
LINE
  8
0
 10
6.22337
 20
-31.287
 11
8.25632
 21
-30.813
  0
LINE
  8
0
 10
8.25632
 20
-30.813
 11
10.2539
 21
-30.2071
  0
LINE
  8
0
 10
10.2539
 20
-30.2071
 11
12.2076
 21
-29.4718
  0
LINE
  8
0
 10
12.2076
 20
-29.4718
 11
14.109
 21
-28.6102
  0
LINE
  8
0
 10
14.109
 20
-28.6102
 11
15.95
 21
-27.6262
  0
LINE
  8
0
 10
15.95
 20
-27.6262
 11
17.7227
 21
-26.5239
  0
LINE
  8
0
 10
17.7227
 20
-26.5239
 11
19.4195
 21
-25.308
  0
LINE
  8
0
 10
19.4195
 20
-25.308
 11
21.0331
 21
-23.9837
  0
LINE
  8
0
 10
21.0331
 20
-23.9837
 11
22.5567
 21
-22.5567
  0
LINE
  8
0
 10
22.5567
 20
-22.5567
 11
23.9837
 21
-21.0331
  0
LINE
  8
0
 10
23.9837
 20
-21.0331
 11
25.308
 21
-19.4195
  0
LINE
  8
0
 10
25.308
 20
-19.4195
 11
26.5239
 21
-17.7227
  0
LINE
  8
0
 10
26.5239
 20
-17.7227
 11
27.6262
 21
-15.95
  0
LINE
  8
0
 10
27.6262
 20
-15.95
 11
28.6102
 21
-14.109
  0
LINE
  8
0
 10
28.6102
 20
-14.109
 11
29.4718
 21
-12.2076
  0
LINE
  8
0
 10
29.4718
 20
-12.2076
 11
30.2071
 21
-10.2539
  0
LINE
  8
0
 10
30.2071
 20
-10.2539
 11
30.813
 21
-8.25632
  0
LINE
  8
0
 10
30.813
 20
-8.25632
 11
31.287
 21
-6.22337
  0
LINE
  8
0
 10
31.287
 20
-6.22337
 11
31.6271
 21
-4.16377
  0
LINE
  8
0
 10
31.6271
 20
-4.16377
 11
31.8317
 21
-2.08635
  0
LINE
  8
0
 10
31.8317
 20
-2.08635
 11
31.9
 21
0
  0
LINE
  8
0
 10
31.9
 20
0
 11
31.8317
 21
2.08635
  0
LINE
  8
0
 10
31.8317
 20
2.08635
 11
31.6271
 21
4.16377
  0
LINE
  8
0
 10
31.6271
 20
4.16377
 11
31.287
 21
6.22337
  0
LINE
  8
0
 10
31.287
 20
6.22337
 11
30.813
 21
8.25632
  0
LINE
  8
0
 10
30.813
 20
8.25632
 11
30.2071
 21
10.2539
  0
LINE
  8
0
 10
30.2071
 20
10.2539
 11
29.4718
 21
12.2076
  0
LINE
  8
0
 10
29.4718
 20
12.2076
 11
28.6102
 21
14.109
  0
LINE
  8
0
 10
28.6102
 20
14.109
 11
27.6262
 21
15.95
  0
LINE
  8
0
 10
27.6262
 20
15.95
 11
26.5239
 21
17.7227
  0
LINE
  8
0
 10
26.5239
 20
17.7227
 11
25.308
 21
19.4195
  0
LINE
  8
0
 10
25.308
 20
19.4195
 11
23.9837
 21
21.0331
  0
LINE
  8
0
 10
23.9837
 20
21.0331
 11
22.5567
 21
22.5567
  0
LINE
  8
0
 10
22.5567
 20
22.5567
 11
21.0331
 21
23.9837
  0
LINE
  8
0
 10
21.0331
 20
23.9837
 11
19.4195
 21
25.308
  0
LINE
  8
0
 10
19.4195
 20
25.308
 11
17.7227
 21
26.5239
  0
LINE
  8
0
 10
17.7227
 20
26.5239
 11
15.95
 21
27.6262
  0
LINE
  8
0
 10
15.95
 20
27.6262
 11
14.109
 21
28.6102
  0
LINE
  8
0
 10
14.109
 20
28.6102
 11
12.2076
 21
29.4718
  0
LINE
  8
0
 10
12.2076
 20
29.4718
 11
10.2539
 21
30.2071
  0
LINE
  8
0
 10
10.2539
 20
30.2071
 11
8.25632
 21
30.813
  0
LINE
  8
0
 10
8.25632
 20
30.813
 11
6.22337
 21
31.287
  0
LINE
  8
0
 10
6.22337
 20
31.287
 11
4.16377
 21
31.6271
  0
LINE
  8
0
 10
4.16377
 20
31.6271
 11
2.08635
 21
31.8317
  0
LINE
  8
0
 10
2.08635
 20
31.8317
 11
0
 21
31.9
  0
LINE
  8
0
 10
0
 20
31.9
 11
-2.08635
 21
31.8317
  0
LINE
  8
0
 10
-2.08635
 20
31.8317
 11
-4.16377
 21
31.6271
  0
LINE
  8
0
 10
-4.16377
 20
31.6271
 11
-6.22337
 21
31.287
  0
LINE
  8
0
 10
-6.22337
 20
31.287
 11
-8.25632
 21
30.813
  0
LINE
  8
0
 10
-8.25632
 20
30.813
 11
-10.2539
 21
30.2071
  0
LINE
  8
0
 10
-10.2539
 20
30.2071
 11
-12.2076
 21
29.4718
  0
LINE
  8
0
 10
-12.2076
 20
29.4718
 11
-14.109
 21
28.6102
  0
LINE
  8
0
 10
-14.109
 20
28.6102
 11
-15.95
 21
27.6262
  0
LINE
  8
0
 10
-15.95
 20
27.6262
 11
-17.7227
 21
26.5239
  0
LINE
  8
0
 10
-17.7227
 20
26.5239
 11
-19.4195
 21
25.308
  0
LINE
  8
0
 10
-19.4195
 20
25.308
 11
-21.0331
 21
23.9837
  0
LINE
  8
0
 10
-21.0331
 20
23.9837
 11
-22.5567
 21
22.5567
  0
LINE
  8
0
 10
-22.5567
 20
22.5567
 11
-23.9837
 21
21.0331
  0
LINE
  8
0
 10
-23.9837
 20
21.0331
 11
-25.308
 21
19.4195
  0
LINE
  8
0
 10
-25.308
 20
19.4195
 11
-26.5239
 21
17.7227
  0
LINE
  8
0
 10
-26.5239
 20
17.7227
 11
-27.6262
 21
15.95
  0
LINE
  8
0
 10
-27.6262
 20
15.95
 11
-28.6102
 21
14.109
  0
LINE
  8
0
 10
-28.6102
 20
14.109
 11
-29.4718
 21
12.2076
  0
LINE
  8
0
 10
-29.4718
 20
12.2076
 11
-30.2071
 21
10.2539
  0
LINE
  8
0
 10
-30.2071
 20
10.2539
 11
-30.813
 21
8.25632
  0
LINE
  8
0
 10
-30.813
 20
8.25632
 11
-31.287
 21
6.22337
  0
LINE
  8
0
 10
-31.287
 20
6.22337
 11
-31.6271
 21
4.16377
  0
LINE
  8
0
 10
-31.6271
 20
4.16377
 11
-31.8317
 21
2.08635
  0
LINE
  8
0
 10
-31.8317
 20
2.08635
 11
-31.9
 21
0
  0
LINE
  8
0
 10
-31.9
 20
0
 11
-31.8317
 21
-2.08635
  0
LINE
  8
0
 10
-31.8317
 20
-2.08635
 11
-31.6271
 21
-4.16377
  0
LINE
  8
0
 10
-31.6271
 20
-4.16377
 11
-31.287
 21
-6.22337
  0
LINE
  8
0
 10
-31.287
 20
-6.22337
 11
-30.813
 21
-8.25632
  0
LINE
  8
0
 10
-30.813
 20
-8.25632
 11
-30.2071
 21
-10.2539
  0
LINE
  8
0
 10
-30.2071
 20
-10.2539
 11
-29.4718
 21
-12.2076
  0
LINE
  8
0
 10
-29.4718
 20
-12.2076
 11
-28.6102
 21
-14.109
  0
LINE
  8
0
 10
-28.6102
 20
-14.109
 11
-27.6262
 21
-15.95
  0
LINE
  8
0
 10
-27.6262
 20
-15.95
 11
-26.5239
 21
-17.7227
  0
LINE
  8
0
 10
-26.5239
 20
-17.7227
 11
-25.308
 21
-19.4195
  0
LINE
  8
0
 10
-25.308
 20
-19.4195
 11
-23.9837
 21
-21.0331
  0
LINE
  8
0
 10
-23.9837
 20
-21.0331
 11
-22.5567
 21
-22.5567
  0
LINE
  8
0
 10
-22.5567
 20
-22.5567
 11
-21.0331
 21
-23.9837
  0
LINE
  8
0
 10
-21.0331
 20
-23.9837
 11
-19.4195
 21
-25.308
  0
LINE
  8
0
 10
-19.4195
 20
-25.308
 11
-17.7227
 21
-26.5239
  0
LINE
  8
0
 10
-17.7227
 20
-26.5239
 11
-15.95
 21
-27.6262
  0
LINE
  8
0
 10
-15.95
 20
-27.6262
 11
-14.109
 21
-28.6102
  0
LINE
  8
0
 10
-14.109
 20
-28.6102
 11
-12.2076
 21
-29.4718
  0
LINE
  8
0
 10
-12.2076
 20
-29.4718
 11
-10.2539
 21
-30.2071
  0
LINE
  8
0
 10
-10.2539
 20
-30.2071
 11
-8.25632
 21
-30.813
  0
LINE
  8
0
 10
-8.25632
 20
-30.813
 11
-6.22337
 21
-31.287
  0
LINE
  8
0
 10
-6.22337
 20
-31.287
 11
-4.16377
 21
-31.6271
  0
LINE
  8
0
 10
-4.16377
 20
-31.6271
 11
-2.08635
 21
-31.8317
  0
LINE
  8
0
 10
-2.08635
 20
-31.8317
 11
0
 21
-31.9
  0
LINE
  8
0
 10
0
 20
-31.9
 11
2.08635
 21
-31.8317
  0
LINE
  8
0
 10
-1.99478
 20
-30.4347
 11
-3.98105
 21
-30.2391
  0
LINE
  8
0
 10
-3.98105
 20
-30.2391
 11
-5.95024
 21
-29.9139
  0
LINE
  8
0
 10
-5.95024
 20
-29.9139
 11
-7.89397
 21
-29.4607
  0
LINE
  8
0
 10
-7.89397
 20
-29.4607
 11
-9.80389
 21
-28.8814
  0
LINE
  8
0
 10
-9.80389
 20
-28.8814
 11
-11.6718
 21
-28.1783
  0
LINE
  8
0
 10
-11.6718
 20
-28.1783
 11
-13.4898
 21
-27.3546
  0
LINE
  8
0
 10
-13.4898
 20
-27.3546
 11
-15.25
 21
-26.4138
  0
LINE
  8
0
 10
-15.25
 20
-26.4138
 11
-16.9449
 21
-25.3598
  0
LINE
  8
0
 10
-16.9449
 20
-25.3598
 11
-18.5672
 21
-24.1973
  0
LINE
  8
0
 10
-18.5672
 20
-24.1973
 11
-20.11
 21
-22.9311
  0
LINE
  8
0
 10
-20.11
 20
-22.9311
 11
-21.5668
 21
-21.5668
  0
LINE
  8
0
 10
-21.5668
 20
-21.5668
 11
-22.9311
 21
-20.11
  0
LINE
  8
0
 10
-22.9311
 20
-20.11
 11
-24.1973
 21
-18.5672
  0
LINE
  8
0
 10
-24.1973
 20
-18.5672
 11
-25.3598
 21
-16.9449
  0
LINE
  8
0
 10
-25.3598
 20
-16.9449
 11
-26.4138
 21
-15.25
  0
LINE
  8
0
 10
-26.4138
 20
-15.25
 11
-27.3546
 21
-13.4898
  0
LINE
  8
0
 10
-27.3546
 20
-13.4898
 11
-28.1783
 21
-11.6718
  0
LINE
  8
0
 10
-28.1783
 20
-11.6718
 11
-28.8814
 21
-9.80389
  0
LINE
  8
0
 10
-28.8814
 20
-9.80389
 11
-29.4607
 21
-7.89397
  0
LINE
  8
0
 10
-29.4607
 20
-7.89397
 11
-29.9139
 21
-5.95024
  0
LINE
  8
0
 10
-29.9139
 20
-5.95024
 11
-30.2391
 21
-3.98105
  0
LINE
  8
0
 10
-30.2391
 20
-3.98105
 11
-30.4347
 21
-1.99478
  0
LINE
  8
0
 10
-30.4347
 20
-1.99478
 11
-30.5
 21
0
  0
LINE
  8
0
 10
-30.5
 20
0
 11
-30.4347
 21
1.99478
  0
LINE
  8
0
 10
-30.4347
 20
1.99478
 11
-30.2391
 21
3.98105
  0
LINE
  8
0
 10
-30.2391
 20
3.98105
 11
-29.9139
 21
5.95024
  0
LINE
  8
0
 10
-29.9139
 20
5.95024
 11
-29.4607
 21
7.89397
  0
LINE
  8
0
 10
-29.4607
 20
7.89397
 11
-28.8814
 21
9.80389
  0
LINE
  8
0
 10
-28.8814
 20
9.80389
 11
-28.1783
 21
11.6718
  0
LINE
  8
0
 10
-28.1783
 20
11.6718
 11
-27.3546
 21
13.4898
  0
LINE
  8
0
 10
-27.3546
 20
13.4898
 11
-26.4138
 21
15.25
  0
LINE
  8
0
 10
-26.4138
 20
15.25
 11
-25.3598
 21
16.9449
  0
LINE
  8
0
 10
-25.3598
 20
16.9449
 11
-24.1973
 21
18.5672
  0
LINE
  8
0
 10
-24.1973
 20
18.5672
 11
-22.9311
 21
20.11
  0
LINE
  8
0
 10
-22.9311
 20
20.11
 11
-21.5668
 21
21.5668
  0
LINE
  8
0
 10
-21.5668
 20
21.5668
 11
-20.11
 21
22.9311
  0
LINE
  8
0
 10
-20.11
 20
22.9311
 11
-18.5672
 21
24.1973
  0
LINE
  8
0
 10
-18.5672
 20
24.1973
 11
-16.9449
 21
25.3598
  0
LINE
  8
0
 10
-16.9449
 20
25.3598
 11
-15.25
 21
26.4138
  0
LINE
  8
0
 10
-15.25
 20
26.4138
 11
-13.4898
 21
27.3546
  0
LINE
  8
0
 10
-13.4898
 20
27.3546
 11
-11.6718
 21
28.1783
  0
LINE
  8
0
 10
-11.6718
 20
28.1783
 11
-9.80389
 21
28.8814
  0
LINE
  8
0
 10
-9.80389
 20
28.8814
 11
-7.89397
 21
29.4607
  0
LINE
  8
0
 10
-7.89397
 20
29.4607
 11
-5.95024
 21
29.9139
  0
LINE
  8
0
 10
-5.95024
 20
29.9139
 11
-3.98105
 21
30.2391
  0
LINE
  8
0
 10
-3.98105
 20
30.2391
 11
-1.99478
 21
30.4347
  0
LINE
  8
0
 10
-1.99478
 20
30.4347
 11
0
 21
30.5
  0
LINE
  8
0
 10
0
 20
30.5
 11
1.99478
 21
30.4347
  0
LINE
  8
0
 10
1.99478
 20
30.4347
 11
3.98105
 21
30.2391
  0
LINE
  8
0
 10
3.98105
 20
30.2391
 11
5.95024
 21
29.9139
  0
LINE
  8
0
 10
5.95024
 20
29.9139
 11
7.89397
 21
29.4607
  0
LINE
  8
0
 10
7.89397
 20
29.4607
 11
9.80389
 21
28.8814
  0
LINE
  8
0
 10
9.80389
 20
28.8814
 11
11.6718
 21
28.1783
  0
LINE
  8
0
 10
11.6718
 20
28.1783
 11
13.4898
 21
27.3546
  0
LINE
  8
0
 10
13.4898
 20
27.3546
 11
15.25
 21
26.4138
  0
LINE
  8
0
 10
15.25
 20
26.4138
 11
16.9449
 21
25.3598
  0
LINE
  8
0
 10
16.9449
 20
25.3598
 11
18.5672
 21
24.1973
  0
LINE
  8
0
 10
18.5672
 20
24.1973
 11
20.11
 21
22.9311
  0
LINE
  8
0
 10
20.11
 20
22.9311
 11
21.5668
 21
21.5668
  0
LINE
  8
0
 10
21.5668
 20
21.5668
 11
22.9311
 21
20.11
  0
LINE
  8
0
 10
22.9311
 20
20.11
 11
24.1973
 21
18.5672
  0
LINE
  8
0
 10
24.1973
 20
18.5672
 11
25.3598
 21
16.9449
  0
LINE
  8
0
 10
25.3598
 20
16.9449
 11
26.4138
 21
15.25
  0
LINE
  8
0
 10
26.4138
 20
15.25
 11
27.3546
 21
13.4898
  0
LINE
  8
0
 10
27.3546
 20
13.4898
 11
28.1783
 21
11.6718
  0
LINE
  8
0
 10
28.1783
 20
11.6718
 11
28.8814
 21
9.80389
  0
LINE
  8
0
 10
28.8814
 20
9.80389
 11
29.4607
 21
7.89397
  0
LINE
  8
0
 10
29.4607
 20
7.89397
 11
29.9139
 21
5.95024
  0
LINE
  8
0
 10
29.9139
 20
5.95024
 11
30.2391
 21
3.98105
  0
LINE
  8
0
 10
30.2391
 20
3.98105
 11
30.4347
 21
1.99478
  0
LINE
  8
0
 10
30.4347
 20
1.99478
 11
30.5
 21
0
  0
LINE
  8
0
 10
30.5
 20
0
 11
30.4347
 21
-1.99478
  0
LINE
  8
0
 10
30.4347
 20
-1.99478
 11
30.2391
 21
-3.98105
  0
LINE
  8
0
 10
30.2391
 20
-3.98105
 11
29.9139
 21
-5.95024
  0
LINE
  8
0
 10
29.9139
 20
-5.95024
 11
29.4607
 21
-7.89397
  0
LINE
  8
0
 10
29.4607
 20
-7.89397
 11
28.8814
 21
-9.80389
  0
LINE
  8
0
 10
28.8814
 20
-9.80389
 11
28.1783
 21
-11.6718
  0
LINE
  8
0
 10
28.1783
 20
-11.6718
 11
27.3546
 21
-13.4898
  0
LINE
  8
0
 10
27.3546
 20
-13.4898
 11
26.4138
 21
-15.25
  0
LINE
  8
0
 10
26.4138
 20
-15.25
 11
25.3598
 21
-16.9449
  0
LINE
  8
0
 10
25.3598
 20
-16.9449
 11
24.1973
 21
-18.5672
  0
LINE
  8
0
 10
24.1973
 20
-18.5672
 11
22.9311
 21
-20.11
  0
LINE
  8
0
 10
22.9311
 20
-20.11
 11
21.5668
 21
-21.5668
  0
LINE
  8
0
 10
21.5668
 20
-21.5668
 11
20.11
 21
-22.9311
  0
LINE
  8
0
 10
20.11
 20
-22.9311
 11
18.5672
 21
-24.1973
  0
LINE
  8
0
 10
18.5672
 20
-24.1973
 11
16.9449
 21
-25.3598
  0
LINE
  8
0
 10
16.9449
 20
-25.3598
 11
15.25
 21
-26.4138
  0
LINE
  8
0
 10
15.25
 20
-26.4138
 11
13.4898
 21
-27.3546
  0
LINE
  8
0
 10
13.4898
 20
-27.3546
 11
11.6718
 21
-28.1783
  0
LINE
  8
0
 10
11.6718
 20
-28.1783
 11
9.80389
 21
-28.8814
  0
LINE
  8
0
 10
9.80389
 20
-28.8814
 11
7.89397
 21
-29.4607
  0
LINE
  8
0
 10
7.89397
 20
-29.4607
 11
5.95024
 21
-29.9139
  0
LINE
  8
0
 10
5.95024
 20
-29.9139
 11
3.98105
 21
-30.2391
  0
LINE
  8
0
 10
3.98105
 20
-30.2391
 11
1.99478
 21
-30.4347
  0
LINE
  8
0
 10
1.99478
 20
-30.4347
 11
0
 21
-30.5
  0
LINE
  8
0
 10
0
 20
-30.5
 11
-1.99478
 21
-30.4347
  0
ENDSEC
  0
SECTION
  2
OBJECTS
  0
DICTIONARY
  0
ENDSEC
  0
EOF
