  0
SECTION
  2
BLOCKS
  0
ENDSEC
  0
SECTION
  2
ENTITIES
  0
LINE
  8
0
 10
2.08635
 20
-31.8317
 11
4.16377
 21
-31.6271
  0
LINE
  8
0
 10
4.16377
 20
-31.6271
 11
6.22337
 21
-31.287
  0
LINE
  8
0
 10
6.22337
 20
-31.287
 11
8.25632
 21
-30.813
  0
LINE
  8
0
 10
8.25632
 20
-30.813
 11
10.2539
 21
-30.2071
  0
LINE
  8
0
 10
10.2539
 20
-30.2071
 11
12.2076
 21
-29.4718
  0
LINE
  8
0
 10
12.2076
 20
-29.4718
 11
14.109
 21
-28.6102
  0
LINE
  8
0
 10
14.109
 20
-28.6102
 11
15.95
 21
-27.6262
  0
LINE
  8
0
 10
15.95
 20
-27.6262
 11
17.7227
 21
-26.5239
  0
LINE
  8
0
 10
17.7227
 20
-26.5239
 11
19.4195
 21
-25.308
  0
LINE
  8
0
 10
19.4195
 20
-25.308
 11
21.0331
 21
-23.9837
  0
LINE
  8
0
 10
21.0331
 20
-23.9837
 11
22.5567
 21
-22.5567
  0
LINE
  8
0
 10
22.5567
 20
-22.5567
 11
23.9837
 21
-21.0331
  0
LINE
  8
0
 10
23.9837
 20
-21.0331
 11
25.308
 21
-19.4195
  0
LINE
  8
0
 10
25.308
 20
-19.4195
 11
26.5239
 21
-17.7227
  0
LINE
  8
0
 10
26.5239
 20
-17.7227
 11
27.6262
 21
-15.95
  0
LINE
  8
0
 10
27.6262
 20
-15.95
 11
28.6102
 21
-14.109
  0
LINE
  8
0
 10
28.6102
 20
-14.109
 11
29.4718
 21
-12.2076
  0
LINE
  8
0
 10
29.4718
 20
-12.2076
 11
30.2071
 21
-10.2539
  0
LINE
  8
0
 10
30.2071
 20
-10.2539
 11
30.813
 21
-8.25632
  0
LINE
  8
0
 10
30.813
 20
-8.25632
 11
31.287
 21
-6.22337
  0
LINE
  8
0
 10
31.287
 20
-6.22337
 11
31.6271
 21
-4.16377
  0
LINE
  8
0
 10
31.6271
 20
-4.16377
 11
31.8317
 21
-2.08635
  0
LINE
  8
0
 10
31.8317
 20
-2.08635
 11
31.9
 21
0
  0
LINE
  8
0
 10
31.9
 20
0
 11
31.8317
 21
2.08635
  0
LINE
  8
0
 10
31.8317
 20
2.08635
 11
31.6271
 21
4.16377
  0
LINE
  8
0
 10
31.6271
 20
4.16377
 11
31.287
 21
6.22337
  0
LINE
  8
0
 10
31.287
 20
6.22337
 11
30.813
 21
8.25632
  0
LINE
  8
0
 10
30.813
 20
8.25632
 11
30.2071
 21
10.2539
  0
LINE
  8
0
 10
30.2071
 20
10.2539
 11
29.4718
 21
12.2076
  0
LINE
  8
0
 10
29.4718
 20
12.2076
 11
28.6102
 21
14.109
  0
LINE
  8
0
 10
28.6102
 20
14.109
 11
27.6262
 21
15.95
  0
LINE
  8
0
 10
27.6262
 20
15.95
 11
26.5239
 21
17.7227
  0
LINE
  8
0
 10
26.5239
 20
17.7227
 11
25.308
 21
19.4195
  0
LINE
  8
0
 10
25.308
 20
19.4195
 11
23.9837
 21
21.0331
  0
LINE
  8
0
 10
23.9837
 20
21.0331
 11
22.5567
 21
22.5567
  0
LINE
  8
0
 10
22.5567
 20
22.5567
 11
21.0331
 21
23.9837
  0
LINE
  8
0
 10
21.0331
 20
23.9837
 11
19.4195
 21
25.308
  0
LINE
  8
0
 10
19.4195
 20
25.308
 11
17.7227
 21
26.5239
  0
LINE
  8
0
 10
17.7227
 20
26.5239
 11
15.95
 21
27.6262
  0
LINE
  8
0
 10
15.95
 20
27.6262
 11
14.109
 21
28.6102
  0
LINE
  8
0
 10
14.109
 20
28.6102
 11
12.2076
 21
29.4718
  0
LINE
  8
0
 10
12.2076
 20
29.4718
 11
10.2539
 21
30.2071
  0
LINE
  8
0
 10
10.2539
 20
30.2071
 11
8.25632
 21
30.813
  0
LINE
  8
0
 10
8.25632
 20
30.813
 11
6.22337
 21
31.287
  0
LINE
  8
0
 10
6.22337
 20
31.287
 11
4.16377
 21
31.6271
  0
LINE
  8
0
 10
4.16377
 20
31.6271
 11
2.08635
 21
31.8317
  0
LINE
  8
0
 10
2.08635
 20
31.8317
 11
0
 21
31.9
  0
LINE
  8
0
 10
0
 20
31.9
 11
-2.08635
 21
31.8317
  0
LINE
  8
0
 10
-2.08635
 20
31.8317
 11
-4.16377
 21
31.6271
  0
LINE
  8
0
 10
-4.16377
 20
31.6271
 11
-6.22337
 21
31.287
  0
LINE
  8
0
 10
-6.22337
 20
31.287
 11
-8.25632
 21
30.813
  0
LINE
  8
0
 10
-8.25632
 20
30.813
 11
-10.2539
 21
30.2071
  0
LINE
  8
0
 10
-10.2539
 20
30.2071
 11
-12.2076
 21
29.4718
  0
LINE
  8
0
 10
-12.2076
 20
29.4718
 11
-14.109
 21
28.6102
  0
LINE
  8
0
 10
-14.109
 20
28.6102
 11
-15.95
 21
27.6262
  0
LINE
  8
0
 10
-15.95
 20
27.6262
 11
-17.7227
 21
26.5239
  0
LINE
  8
0
 10
-17.7227
 20
26.5239
 11
-19.4195
 21
25.308
  0
LINE
  8
0
 10
-19.4195
 20
25.308
 11
-21.0331
 21
23.9837
  0
LINE
  8
0
 10
-21.0331
 20
23.9837
 11
-22.5567
 21
22.5567
  0
LINE
  8
0
 10
-22.5567
 20
22.5567
 11
-23.9837
 21
21.0331
  0
LINE
  8
0
 10
-23.9837
 20
21.0331
 11
-25.308
 21
19.4195
  0
LINE
  8
0
 10
-25.308
 20
19.4195
 11
-26.5239
 21
17.7227
  0
LINE
  8
0
 10
-26.5239
 20
17.7227
 11
-27.6262
 21
15.95
  0
LINE
  8
0
 10
-27.6262
 20
15.95
 11
-28.6102
 21
14.109
  0
LINE
  8
0
 10
-28.6102
 20
14.109
 11
-29.4718
 21
12.2076
  0
LINE
  8
0
 10
-29.4718
 20
12.2076
 11
-30.2071
 21
10.2539
  0
LINE
  8
0
 10
-30.2071
 20
10.2539
 11
-30.813
 21
8.25632
  0
LINE
  8
0
 10
-30.813
 20
8.25632
 11
-31.287
 21
6.22337
  0
LINE
  8
0
 10
-31.287
 20
6.22337
 11
-31.6271
 21
4.16377
  0
LINE
  8
0
 10
-31.6271
 20
4.16377
 11
-31.8317
 21
2.08635
  0
LINE
  8
0
 10
-31.8317
 20
2.08635
 11
-31.9
 21
0
  0
LINE
  8
0
 10
-31.9
 20
0
 11
-31.8317
 21
-2.08635
  0
LINE
  8
0
 10
-31.8317
 20
-2.08635
 11
-31.6271
 21
-4.16377
  0
LINE
  8
0
 10
-31.6271
 20
-4.16377
 11
-31.287
 21
-6.22337
  0
LINE
  8
0
 10
-31.287
 20
-6.22337
 11
-30.813
 21
-8.25632
  0
LINE
  8
0
 10
-30.813
 20
-8.25632
 11
-30.2071
 21
-10.2539
  0
LINE
  8
0
 10
-30.2071
 20
-10.2539
 11
-29.4718
 21
-12.2076
  0
LINE
  8
0
 10
-29.4718
 20
-12.2076
 11
-28.6102
 21
-14.109
  0
LINE
  8
0
 10
-28.6102
 20
-14.109
 11
-27.6262
 21
-15.95
  0
LINE
  8
0
 10
-27.6262
 20
-15.95
 11
-26.5239
 21
-17.7227
  0
LINE
  8
0
 10
-26.5239
 20
-17.7227
 11
-25.308
 21
-19.4195
  0
LINE
  8
0
 10
-25.308
 20
-19.4195
 11
-23.9837
 21
-21.0331
  0
LINE
  8
0
 10
-23.9837
 20
-21.0331
 11
-22.5567
 21
-22.5567
  0
LINE
  8
0
 10
-22.5567
 20
-22.5567
 11
-21.0331
 21
-23.9837
  0
LINE
  8
0
 10
-21.0331
 20
-23.9837
 11
-19.4195
 21
-25.308
  0
LINE
  8
0
 10
-19.4195
 20
-25.308
 11
-17.7227
 21
-26.5239
  0
LINE
  8
0
 10
-17.7227
 20
-26.5239
 11
-15.95
 21
-27.6262
  0
LINE
  8
0
 10
-15.95
 20
-27.6262
 11
-14.109
 21
-28.6102
  0
LINE
  8
0
 10
-14.109
 20
-28.6102
 11
-12.2076
 21
-29.4718
  0
LINE
  8
0
 10
-12.2076
 20
-29.4718
 11
-10.2539
 21
-30.2071
  0
LINE
  8
0
 10
-10.2539
 20
-30.2071
 11
-8.25632
 21
-30.813
  0
LINE
  8
0
 10
-8.25632
 20
-30.813
 11
-6.22337
 21
-31.287
  0
LINE
  8
0
 10
-6.22337
 20
-31.287
 11
-4.16377
 21
-31.6271
  0
LINE
  8
0
 10
-4.16377
 20
-31.6271
 11
-2.08635
 21
-31.8317
  0
LINE
  8
0
 10
-2.08635
 20
-31.8317
 11
0
 21
-31.9
  0
LINE
  8
0
 10
0
 20
-31.9
 11
2.08635
 21
-31.8317
  0
LINE
  8
0
 10
-0.261612
 20
10.0086
 11
-0.522095
 21
10.0342
  0
LINE
  8
0
 10
-0.522095
 20
10.0342
 11
-0.78035
 21
10.0769
  0
LINE
  8
0
 10
-0.78035
 20
10.0769
 11
-1.03526
 21
10.1363
  0
LINE
  8
0
 10
-1.03526
 20
10.1363
 11
-1.28575
 21
10.2123
  0
LINE
  8
0
 10
-1.28575
 20
10.2123
 11
-1.53073
 21
10.3045
  0
LINE
  8
0
 10
-1.53073
 20
10.3045
 11
-1.76915
 21
10.4125
  0
LINE
  8
0
 10
-1.76915
 20
10.4125
 11
-2
 21
10.5359
  0
LINE
  8
0
 10
-2
 20
10.5359
 11
-2.22227
 21
10.6741
  0
LINE
  8
0
 10
-2.22227
 20
10.6741
 11
-2.43504
 21
10.8266
  0
LINE
  8
0
 10
-2.43504
 20
10.8266
 11
-2.63737
 21
10.9926
  0
LINE
  8
0
 10
-2.63737
 20
10.9926
 11
-2.82841
 21
11.1716
  0
LINE
  8
0
 10
-2.82841
 20
11.1716
 11
-3.00735
 21
11.3626
  0
LINE
  8
0
 10
-3.00735
 20
11.3626
 11
-3.1734
 21
11.5649
  0
LINE
  8
0
 10
-3.1734
 20
11.5649
 11
-3.32587
 21
11.7777
  0
LINE
  8
0
 10
-3.32587
 20
11.7777
 11
-3.4641
 21
12
  0
LINE
  8
0
 10
-3.4641
 20
12
 11
-3.58748
 21
12.2308
  0
LINE
  8
0
 10
-3.58748
 20
12.2308
 11
-3.69551
 21
12.4693
  0
LINE
  8
0
 10
-3.69551
 20
12.4693
 11
-3.78772
 21
12.7142
  0
LINE
  8
0
 10
-3.78772
 20
12.7142
 11
-3.86369
 21
12.9647
  0
LINE
  8
0
 10
-3.86369
 20
12.9647
 11
-3.92313
 21
13.2196
  0
LINE
  8
0
 10
-3.92313
 20
13.2196
 11
-3.96577
 21
13.4779
  0
LINE
  8
0
 10
-3.96577
 20
13.4779
 11
-3.99142
 21
13.7384
  0
LINE
  8
0
 10
-3.99142
 20
13.7384
 11
-4
 21
14
  0
LINE
  8
0
 10
-4
 20
14
 11
-3.99142
 21
14.2616
  0
LINE
  8
0
 10
-3.99142
 20
14.2616
 11
-3.96577
 21
14.5221
  0
LINE
  8
0
 10
-3.96577
 20
14.5221
 11
-3.92313
 21
14.7803
  0
LINE
  8
0
 10
-3.92313
 20
14.7803
 11
-3.86369
 21
15.0353
  0
LINE
  8
0
 10
-3.86369
 20
15.0353
 11
-3.78772
 21
15.2858
  0
LINE
  8
0
 10
-3.78772
 20
15.2858
 11
-3.69551
 21
15.5307
  0
LINE
  8
0
 10
-3.69551
 20
15.5307
 11
-3.58748
 21
15.7691
  0
LINE
  8
0
 10
-3.58748
 20
15.7691
 11
-3.4641
 21
16
  0
LINE
  8
0
 10
-3.4641
 20
16
 11
-3.32587
 21
16.2223
  0
LINE
  8
0
 10
-3.32587
 20
16.2223
 11
-3.1734
 21
16.435
  0
LINE
  8
0
 10
-3.1734
 20
16.435
 11
-3.00735
 21
16.6374
  0
LINE
  8
0
 10
-3.00735
 20
16.6374
 11
-2.82841
 21
16.8284
  0
LINE
  8
0
 10
-2.82841
 20
16.8284
 11
-2.63737
 21
17.0074
  0
LINE
  8
0
 10
-2.63737
 20
17.0074
 11
-2.43504
 21
17.1734
  0
LINE
  8
0
 10
-2.43504
 20
17.1734
 11
-2.22227
 21
17.3259
  0
LINE
  8
0
 10
-2.22227
 20
17.3259
 11
-2
 21
17.4641
  0
LINE
  8
0
 10
-2
 20
17.4641
 11
-1.76915
 21
17.5875
  0
LINE
  8
0
 10
-1.76915
 20
17.5875
 11
-1.53073
 21
17.6955
  0
LINE
  8
0
 10
-1.53073
 20
17.6955
 11
-1.28575
 21
17.7877
  0
LINE
  8
0
 10
-1.28575
 20
17.7877
 11
-1.03526
 21
17.8637
  0
LINE
  8
0
 10
-1.03526
 20
17.8637
 11
-0.78035
 21
17.9231
  0
LINE
  8
0
 10
-0.78035
 20
17.9231
 11
-0.522095
 21
17.9658
  0
LINE
  8
0
 10
-0.522095
 20
17.9658
 11
-0.261612
 21
17.9914
  0
LINE
  8
0
 10
-0.261612
 20
17.9914
 11
0
 21
18
  0
LINE
  8
0
 10
0
 20
18
 11
0.261612
 21
17.9914
  0
LINE
  8
0
 10
0.261612
 20
17.9914
 11
0.522095
 21
17.9658
  0
LINE
  8
0
 10
0.522095
 20
17.9658
 11
0.78035
 21
17.9231
  0
LINE
  8
0
 10
0.78035
 20
17.9231
 11
1.03526
 21
17.8637
  0
LINE
  8
0
 10
1.03526
 20
17.8637
 11
1.28575
 21
17.7877
  0
LINE
  8
0
 10
1.28575
 20
17.7877
 11
1.53073
 21
17.6955
  0
LINE
  8
0
 10
1.53073
 20
17.6955
 11
1.76915
 21
17.5875
  0
LINE
  8
0
 10
1.76915
 20
17.5875
 11
2
 21
17.4641
  0
LINE
  8
0
 10
2
 20
17.4641
 11
2.22227
 21
17.3259
  0
LINE
  8
0
 10
2.22227
 20
17.3259
 11
2.43504
 21
17.1734
  0
LINE
  8
0
 10
2.43504
 20
17.1734
 11
2.63737
 21
17.0074
  0
LINE
  8
0
 10
2.63737
 20
17.0074
 11
2.82841
 21
16.8284
  0
LINE
  8
0
 10
2.82841
 20
16.8284
 11
3.00735
 21
16.6374
  0
LINE
  8
0
 10
3.00735
 20
16.6374
 11
3.1734
 21
16.435
  0
LINE
  8
0
 10
3.1734
 20
16.435
 11
3.32587
 21
16.2223
  0
LINE
  8
0
 10
3.32587
 20
16.2223
 11
3.4641
 21
16
  0
LINE
  8
0
 10
3.4641
 20
16
 11
3.58748
 21
15.7691
  0
LINE
  8
0
 10
3.58748
 20
15.7691
 11
3.69551
 21
15.5307
  0
LINE
  8
0
 10
3.69551
 20
15.5307
 11
3.78772
 21
15.2858
  0
LINE
  8
0
 10
3.78772
 20
15.2858
 11
3.86369
 21
15.0353
  0
LINE
  8
0
 10
3.86369
 20
15.0353
 11
3.92313
 21
14.7803
  0
LINE
  8
0
 10
3.92313
 20
14.7803
 11
3.96577
 21
14.5221
  0
LINE
  8
0
 10
3.96577
 20
14.5221
 11
3.99142
 21
14.2616
  0
LINE
  8
0
 10
3.99142
 20
14.2616
 11
4
 21
14
  0
LINE
  8
0
 10
4
 20
14
 11
3.99142
 21
13.7384
  0
LINE
  8
0
 10
3.99142
 20
13.7384
 11
3.96577
 21
13.4779
  0
LINE
  8
0
 10
3.96577
 20
13.4779
 11
3.92313
 21
13.2196
  0
LINE
  8
0
 10
3.92313
 20
13.2196
 11
3.86369
 21
12.9647
  0
LINE
  8
0
 10
3.86369
 20
12.9647
 11
3.78772
 21
12.7142
  0
LINE
  8
0
 10
3.78772
 20
12.7142
 11
3.69551
 21
12.4693
  0
LINE
  8
0
 10
3.69551
 20
12.4693
 11
3.58748
 21
12.2308
  0
LINE
  8
0
 10
3.58748
 20
12.2308
 11
3.4641
 21
12
  0
LINE
  8
0
 10
3.4641
 20
12
 11
3.32587
 21
11.7777
  0
LINE
  8
0
 10
3.32587
 20
11.7777
 11
3.1734
 21
11.5649
  0
LINE
  8
0
 10
3.1734
 20
11.5649
 11
3.00735
 21
11.3626
  0
LINE
  8
0
 10
3.00735
 20
11.3626
 11
2.82841
 21
11.1716
  0
LINE
  8
0
 10
2.82841
 20
11.1716
 11
2.63737
 21
10.9926
  0
LINE
  8
0
 10
2.63737
 20
10.9926
 11
2.43504
 21
10.8266
  0
LINE
  8
0
 10
2.43504
 20
10.8266
 11
2.22227
 21
10.6741
  0
LINE
  8
0
 10
2.22227
 20
10.6741
 11
2
 21
10.5359
  0
LINE
  8
0
 10
2
 20
10.5359
 11
1.76915
 21
10.4125
  0
LINE
  8
0
 10
1.76915
 20
10.4125
 11
1.53073
 21
10.3045
  0
LINE
  8
0
 10
1.53073
 20
10.3045
 11
1.28575
 21
10.2123
  0
LINE
  8
0
 10
1.28575
 20
10.2123
 11
1.03526
 21
10.1363
  0
LINE
  8
0
 10
1.03526
 20
10.1363
 11
0.78035
 21
10.0769
  0
LINE
  8
0
 10
0.78035
 20
10.0769
 11
0.522095
 21
10.0342
  0
LINE
  8
0
 10
0.522095
 20
10.0342
 11
0.261612
 21
10.0086
  0
LINE
  8
0
 10
0.261612
 20
10.0086
 11
0
 21
10
  0
LINE
  8
0
 10
0
 20
10
 11
-0.261612
 21
10.0086
  0
LINE
  8
0
 10
-20.1799
 20
-2.74411
 11
-20.3589
 21
-2.72647
  0
LINE
  8
0
 10
-20.3589
 20
-2.72647
 11
-20.5365
 21
-2.69716
  0
LINE
  8
0
 10
-20.5365
 20
-2.69716
 11
-20.7117
 21
-2.6563
  0
LINE
  8
0
 10
-20.7117
 20
-2.6563
 11
-20.884
 21
-2.60405
  0
LINE
  8
0
 10
-20.884
 20
-2.60405
 11
-21.0524
 21
-2.54066
  0
LINE
  8
0
 10
-21.0524
 20
-2.54066
 11
-21.2163
 21
-2.46638
  0
LINE
  8
0
 10
-21.2163
 20
-2.46638
 11
-21.375
 21
-2.38156
  0
LINE
  8
0
 10
-21.375
 20
-2.38156
 11
-21.5278
 21
-2.28653
  0
LINE
  8
0
 10
-21.5278
 20
-2.28653
 11
-21.6741
 21
-2.18172
  0
LINE
  8
0
 10
-21.6741
 20
-2.18172
 11
-21.8132
 21
-2.06755
  0
LINE
  8
0
 10
-21.8132
 20
-2.06755
 11
-21.9445
 21
-1.94453
  0
LINE
  8
0
 10
-21.9445
 20
-1.94453
 11
-22.0676
 21
-1.81319
  0
LINE
  8
0
 10
-22.0676
 20
-1.81319
 11
-22.1817
 21
-1.67409
  0
LINE
  8
0
 10
-22.1817
 20
-1.67409
 11
-22.2865
 21
-1.52782
  0
LINE
  8
0
 10
-22.2865
 20
-1.52782
 11
-22.3816
 21
-1.375
  0
LINE
  8
0
 10
-22.3816
 20
-1.375
 11
-22.4664
 21
-1.21629
  0
LINE
  8
0
 10
-22.4664
 20
-1.21629
 11
-22.5407
 21
-1.05237
  0
LINE
  8
0
 10
-22.5407
 20
-1.05237
 11
-22.604
 21
-0.883957
  0
LINE
  8
0
 10
-22.604
 20
-0.883957
 11
-22.6563
 21
-0.711746
  0
LINE
  8
0
 10
-22.6563
 20
-0.711746
 11
-22.6972
 21
-0.536484
  0
LINE
  8
0
 10
-22.6972
 20
-0.536484
 11
-22.7265
 21
-0.358932
  0
LINE
  8
0
 10
-22.7265
 20
-0.358932
 11
-22.7441
 21
-0.179855
  0
LINE
  8
0
 10
-22.7441
 20
-0.179855
 11
-22.75
 21
0
  0
LINE
  8
0
 10
-22.75
 20
0
 11
-22.7441
 21
0.179855
  0
LINE
  8
0
 10
-22.7441
 20
0.179855
 11
-22.7265
 21
0.358932
  0
LINE
  8
0
 10
-22.7265
 20
0.358932
 11
-22.6972
 21
0.536484
  0
LINE
  8
0
 10
-22.6972
 20
0.536484
 11
-22.6563
 21
0.711746
  0
LINE
  8
0
 10
-22.6563
 20
0.711746
 11
-22.604
 21
0.883957
  0
LINE
  8
0
 10
-22.604
 20
0.883957
 11
-22.5407
 21
1.05237
  0
LINE
  8
0
 10
-22.5407
 20
1.05237
 11
-22.4664
 21
1.21629
  0
LINE
  8
0
 10
-22.4664
 20
1.21629
 11
-22.3816
 21
1.375
  0
LINE
  8
0
 10
-22.3816
 20
1.375
 11
-22.2865
 21
1.52782
  0
LINE
  8
0
 10
-22.2865
 20
1.52782
 11
-22.1817
 21
1.67409
  0
LINE
  8
0
 10
-22.1817
 20
1.67409
 11
-22.0676
 21
1.81319
  0
LINE
  8
0
 10
-22.0676
 20
1.81319
 11
-21.9445
 21
1.94453
  0
LINE
  8
0
 10
-21.9445
 20
1.94453
 11
-21.8132
 21
2.06755
  0
LINE
  8
0
 10
-21.8132
 20
2.06755
 11
-21.6741
 21
2.18172
  0
LINE
  8
0
 10
-21.6741
 20
2.18172
 11
-21.5278
 21
2.28653
  0
LINE
  8
0
 10
-21.5278
 20
2.28653
 11
-21.375
 21
2.38156
  0
LINE
  8
0
 10
-21.375
 20
2.38156
 11
-21.2163
 21
2.46638
  0
LINE
  8
0
 10
-21.2163
 20
2.46638
 11
-21.0524
 21
2.54066
  0
LINE
  8
0
 10
-21.0524
 20
2.54066
 11
-20.884
 21
2.60405
  0
LINE
  8
0
 10
-20.884
 20
2.60405
 11
-20.7117
 21
2.6563
  0
LINE
  8
0
 10
-20.7117
 20
2.6563
 11
-20.5365
 21
2.69716
  0
LINE
  8
0
 10
-20.5365
 20
2.69716
 11
-20.3589
 21
2.72647
  0
LINE
  8
0
 10
-20.3589
 20
2.72647
 11
-20.1799
 21
2.74411
  0
LINE
  8
0
 10
-20.1799
 20
2.74411
 11
-20
 21
2.75
  0
LINE
  8
0
 10
-20
 20
2.75
 11
-19.8201
 21
2.74411
  0
LINE
  8
0
 10
-19.8201
 20
2.74411
 11
-19.6411
 21
2.72647
  0
LINE
  8
0
 10
-19.6411
 20
2.72647
 11
-19.4635
 21
2.69716
  0
LINE
  8
0
 10
-19.4635
 20
2.69716
 11
-19.2882
 21
2.6563
  0
LINE
  8
0
 10
-19.2882
 20
2.6563
 11
-19.116
 21
2.60405
  0
LINE
  8
0
 10
-19.116
 20
2.60405
 11
-18.9476
 21
2.54066
  0
LINE
  8
0
 10
-18.9476
 20
2.54066
 11
-18.7837
 21
2.46638
  0
LINE
  8
0
 10
-18.7837
 20
2.46638
 11
-18.625
 21
2.38156
  0
LINE
  8
0
 10
-18.625
 20
2.38156
 11
-18.4722
 21
2.28653
  0
LINE
  8
0
 10
-18.4722
 20
2.28653
 11
-18.3259
 21
2.18172
  0
LINE
  8
0
 10
-18.3259
 20
2.18172
 11
-18.1868
 21
2.06755
  0
LINE
  8
0
 10
-18.1868
 20
2.06755
 11
-18.0555
 21
1.94453
  0
LINE
  8
0
 10
-18.0555
 20
1.94453
 11
-17.9324
 21
1.81319
  0
LINE
  8
0
 10
-17.9324
 20
1.81319
 11
-17.8183
 21
1.67409
  0
LINE
  8
0
 10
-17.8183
 20
1.67409
 11
-17.7135
 21
1.52782
  0
LINE
  8
0
 10
-17.7135
 20
1.52782
 11
-17.6184
 21
1.375
  0
LINE
  8
0
 10
-17.6184
 20
1.375
 11
-17.5336
 21
1.21629
  0
LINE
  8
0
 10
-17.5336
 20
1.21629
 11
-17.4593
 21
1.05237
  0
LINE
  8
0
 10
-17.4593
 20
1.05237
 11
-17.3959
 21
0.883957
  0
LINE
  8
0
 10
-17.3959
 20
0.883957
 11
-17.3437
 21
0.711746
  0
LINE
  8
0
 10
-17.3437
 20
0.711746
 11
-17.3028
 21
0.536484
  0
LINE
  8
0
 10
-17.3028
 20
0.536484
 11
-17.2735
 21
0.358932
  0
LINE
  8
0
 10
-17.2735
 20
0.358932
 11
-17.2559
 21
0.179855
  0
LINE
  8
0
 10
-17.2559
 20
0.179855
 11
-17.25
 21
0
  0
LINE
  8
0
 10
-17.25
 20
0
 11
-17.2559
 21
-0.179855
  0
LINE
  8
0
 10
-17.2559
 20
-0.179855
 11
-17.2735
 21
-0.358932
  0
LINE
  8
0
 10
-17.2735
 20
-0.358932
 11
-17.3028
 21
-0.536484
  0
LINE
  8
0
 10
-17.3028
 20
-0.536484
 11
-17.3437
 21
-0.711746
  0
LINE
  8
0
 10
-17.3437
 20
-0.711746
 11
-17.3959
 21
-0.883957
  0
LINE
  8
0
 10
-17.3959
 20
-0.883957
 11
-17.4593
 21
-1.05237
  0
LINE
  8
0
 10
-17.4593
 20
-1.05237
 11
-17.5336
 21
-1.21629
  0
LINE
  8
0
 10
-17.5336
 20
-1.21629
 11
-17.6184
 21
-1.375
  0
LINE
  8
0
 10
-17.6184
 20
-1.375
 11
-17.7135
 21
-1.52782
  0
LINE
  8
0
 10
-17.7135
 20
-1.52782
 11
-17.8183
 21
-1.67409
  0
LINE
  8
0
 10
-17.8183
 20
-1.67409
 11
-17.9324
 21
-1.81319
  0
LINE
  8
0
 10
-17.9324
 20
-1.81319
 11
-18.0555
 21
-1.94453
  0
LINE
  8
0
 10
-18.0555
 20
-1.94453
 11
-18.1868
 21
-2.06755
  0
LINE
  8
0
 10
-18.1868
 20
-2.06755
 11
-18.3259
 21
-2.18172
  0
LINE
  8
0
 10
-18.3259
 20
-2.18172
 11
-18.4722
 21
-2.28653
  0
LINE
  8
0
 10
-18.4722
 20
-2.28653
 11
-18.625
 21
-2.38156
  0
LINE
  8
0
 10
-18.625
 20
-2.38156
 11
-18.7837
 21
-2.46638
  0
LINE
  8
0
 10
-18.7837
 20
-2.46638
 11
-18.9476
 21
-2.54066
  0
LINE
  8
0
 10
-18.9476
 20
-2.54066
 11
-19.116
 21
-2.60405
  0
LINE
  8
0
 10
-19.116
 20
-2.60405
 11
-19.2882
 21
-2.6563
  0
LINE
  8
0
 10
-19.2882
 20
-2.6563
 11
-19.4635
 21
-2.69716
  0
LINE
  8
0
 10
-19.4635
 20
-2.69716
 11
-19.6411
 21
-2.72647
  0
LINE
  8
0
 10
-19.6411
 20
-2.72647
 11
-19.8201
 21
-2.74411
  0
LINE
  8
0
 10
-19.8201
 20
-2.74411
 11
-20
 21
-2.75
  0
LINE
  8
0
 10
-20
 20
-2.75
 11
-20.1799
 21
-2.74411
  0
LINE
  8
0
 10
19.8201
 20
-2.74411
 11
19.6411
 21
-2.72647
  0
LINE
  8
0
 10
19.6411
 20
-2.72647
 11
19.4635
 21
-2.69716
  0
LINE
  8
0
 10
19.4635
 20
-2.69716
 11
19.2882
 21
-2.6563
  0
LINE
  8
0
 10
19.2882
 20
-2.6563
 11
19.116
 21
-2.60405
  0
LINE
  8
0
 10
19.116
 20
-2.60405
 11
18.9476
 21
-2.54066
  0
LINE
  8
0
 10
18.9476
 20
-2.54066
 11
18.7837
 21
-2.46638
  0
LINE
  8
0
 10
18.7837
 20
-2.46638
 11
18.625
 21
-2.38156
  0
LINE
  8
0
 10
18.625
 20
-2.38156
 11
18.4722
 21
-2.28653
  0
LINE
  8
0
 10
18.4722
 20
-2.28653
 11
18.3259
 21
-2.18172
  0
LINE
  8
0
 10
18.3259
 20
-2.18172
 11
18.1868
 21
-2.06755
  0
LINE
  8
0
 10
18.1868
 20
-2.06755
 11
18.0555
 21
-1.94453
  0
LINE
  8
0
 10
18.0555
 20
-1.94453
 11
17.9324
 21
-1.81319
  0
LINE
  8
0
 10
17.9324
 20
-1.81319
 11
17.8183
 21
-1.67409
  0
LINE
  8
0
 10
17.8183
 20
-1.67409
 11
17.7135
 21
-1.52782
  0
LINE
  8
0
 10
17.7135
 20
-1.52782
 11
17.6184
 21
-1.375
  0
LINE
  8
0
 10
17.6184
 20
-1.375
 11
17.5336
 21
-1.21629
  0
LINE
  8
0
 10
17.5336
 20
-1.21629
 11
17.4593
 21
-1.05237
  0
LINE
  8
0
 10
17.4593
 20
-1.05237
 11
17.3959
 21
-0.883957
  0
LINE
  8
0
 10
17.3959
 20
-0.883957
 11
17.3437
 21
-0.711746
  0
LINE
  8
0
 10
17.3437
 20
-0.711746
 11
17.3028
 21
-0.536484
  0
LINE
  8
0
 10
17.3028
 20
-0.536484
 11
17.2735
 21
-0.358932
  0
LINE
  8
0
 10
17.2735
 20
-0.358932
 11
17.2559
 21
-0.179855
  0
LINE
  8
0
 10
17.2559
 20
-0.179855
 11
17.25
 21
0
  0
LINE
  8
0
 10
17.25
 20
0
 11
17.2559
 21
0.179855
  0
LINE
  8
0
 10
17.2559
 20
0.179855
 11
17.2735
 21
0.358932
  0
LINE
  8
0
 10
17.2735
 20
0.358932
 11
17.3028
 21
0.536484
  0
LINE
  8
0
 10
17.3028
 20
0.536484
 11
17.3437
 21
0.711746
  0
LINE
  8
0
 10
17.3437
 20
0.711746
 11
17.3959
 21
0.883957
  0
LINE
  8
0
 10
17.3959
 20
0.883957
 11
17.4593
 21
1.05237
  0
LINE
  8
0
 10
17.4593
 20
1.05237
 11
17.5336
 21
1.21629
  0
LINE
  8
0
 10
17.5336
 20
1.21629
 11
17.6184
 21
1.375
  0
LINE
  8
0
 10
17.6184
 20
1.375
 11
17.7135
 21
1.52782
  0
LINE
  8
0
 10
17.7135
 20
1.52782
 11
17.8183
 21
1.67409
  0
LINE
  8
0
 10
17.8183
 20
1.67409
 11
17.9324
 21
1.81319
  0
LINE
  8
0
 10
17.9324
 20
1.81319
 11
18.0555
 21
1.94453
  0
LINE
  8
0
 10
18.0555
 20
1.94453
 11
18.1868
 21
2.06755
  0
LINE
  8
0
 10
18.1868
 20
2.06755
 11
18.3259
 21
2.18172
  0
LINE
  8
0
 10
18.3259
 20
2.18172
 11
18.4722
 21
2.28653
  0
LINE
  8
0
 10
18.4722
 20
2.28653
 11
18.625
 21
2.38156
  0
LINE
  8
0
 10
18.625
 20
2.38156
 11
18.7837
 21
2.46638
  0
LINE
  8
0
 10
18.7837
 20
2.46638
 11
18.9476
 21
2.54066
  0
LINE
  8
0
 10
18.9476
 20
2.54066
 11
19.116
 21
2.60405
  0
LINE
  8
0
 10
19.116
 20
2.60405
 11
19.2882
 21
2.6563
  0
LINE
  8
0
 10
19.2882
 20
2.6563
 11
19.4635
 21
2.69716
  0
LINE
  8
0
 10
19.4635
 20
2.69716
 11
19.6411
 21
2.72647
  0
LINE
  8
0
 10
19.6411
 20
2.72647
 11
19.8201
 21
2.74411
  0
LINE
  8
0
 10
19.8201
 20
2.74411
 11
20
 21
2.75
  0
LINE
  8
0
 10
20
 20
2.75
 11
20.1799
 21
2.74411
  0
LINE
  8
0
 10
20.1799
 20
2.74411
 11
20.3589
 21
2.72647
  0
LINE
  8
0
 10
20.3589
 20
2.72647
 11
20.5365
 21
2.69716
  0
LINE
  8
0
 10
20.5365
 20
2.69716
 11
20.7117
 21
2.6563
  0
LINE
  8
0
 10
20.7117
 20
2.6563
 11
20.884
 21
2.60405
  0
LINE
  8
0
 10
20.884
 20
2.60405
 11
21.0524
 21
2.54066
  0
LINE
  8
0
 10
21.0524
 20
2.54066
 11
21.2163
 21
2.46638
  0
LINE
  8
0
 10
21.2163
 20
2.46638
 11
21.375
 21
2.38156
  0
LINE
  8
0
 10
21.375
 20
2.38156
 11
21.5278
 21
2.28653
  0
LINE
  8
0
 10
21.5278
 20
2.28653
 11
21.6741
 21
2.18172
  0
LINE
  8
0
 10
21.6741
 20
2.18172
 11
21.8132
 21
2.06755
  0
LINE
  8
0
 10
21.8132
 20
2.06755
 11
21.9445
 21
1.94453
  0
LINE
  8
0
 10
21.9445
 20
1.94453
 11
22.0676
 21
1.81319
  0
LINE
  8
0
 10
22.0676
 20
1.81319
 11
22.1817
 21
1.67409
  0
LINE
  8
0
 10
22.1817
 20
1.67409
 11
22.2865
 21
1.52782
  0
LINE
  8
0
 10
22.2865
 20
1.52782
 11
22.3816
 21
1.375
  0
LINE
  8
0
 10
22.3816
 20
1.375
 11
22.4664
 21
1.21629
  0
LINE
  8
0
 10
22.4664
 20
1.21629
 11
22.5407
 21
1.05237
  0
LINE
  8
0
 10
22.5407
 20
1.05237
 11
22.604
 21
0.883957
  0
LINE
  8
0
 10
22.604
 20
0.883957
 11
22.6563
 21
0.711746
  0
LINE
  8
0
 10
22.6563
 20
0.711746
 11
22.6972
 21
0.536484
  0
LINE
  8
0
 10
22.6972
 20
0.536484
 11
22.7265
 21
0.358932
  0
LINE
  8
0
 10
22.7265
 20
0.358932
 11
22.7441
 21
0.179855
  0
LINE
  8
0
 10
22.7441
 20
0.179855
 11
22.75
 21
0
  0
LINE
  8
0
 10
22.75
 20
0
 11
22.7441
 21
-0.179855
  0
LINE
  8
0
 10
22.7441
 20
-0.179855
 11
22.7265
 21
-0.358932
  0
LINE
  8
0
 10
22.7265
 20
-0.358932
 11
22.6972
 21
-0.536484
  0
LINE
  8
0
 10
22.6972
 20
-0.536484
 11
22.6563
 21
-0.711746
  0
LINE
  8
0
 10
22.6563
 20
-0.711746
 11
22.604
 21
-0.883957
  0
LINE
  8
0
 10
22.604
 20
-0.883957
 11
22.5407
 21
-1.05237
  0
LINE
  8
0
 10
22.5407
 20
-1.05237
 11
22.4664
 21
-1.21629
  0
LINE
  8
0
 10
22.4664
 20
-1.21629
 11
22.3816
 21
-1.375
  0
LINE
  8
0
 10
22.3816
 20
-1.375
 11
22.2865
 21
-1.52782
  0
LINE
  8
0
 10
22.2865
 20
-1.52782
 11
22.1817
 21
-1.67409
  0
LINE
  8
0
 10
22.1817
 20
-1.67409
 11
22.0676
 21
-1.81319
  0
LINE
  8
0
 10
22.0676
 20
-1.81319
 11
21.9445
 21
-1.94453
  0
LINE
  8
0
 10
21.9445
 20
-1.94453
 11
21.8132
 21
-2.06755
  0
LINE
  8
0
 10
21.8132
 20
-2.06755
 11
21.6741
 21
-2.18172
  0
LINE
  8
0
 10
21.6741
 20
-2.18172
 11
21.5278
 21
-2.28653
  0
LINE
  8
0
 10
21.5278
 20
-2.28653
 11
21.375
 21
-2.38156
  0
LINE
  8
0
 10
21.375
 20
-2.38156
 11
21.2163
 21
-2.46638
  0
LINE
  8
0
 10
21.2163
 20
-2.46638
 11
21.0524
 21
-2.54066
  0
LINE
  8
0
 10
21.0524
 20
-2.54066
 11
20.884
 21
-2.60405
  0
LINE
  8
0
 10
20.884
 20
-2.60405
 11
20.7117
 21
-2.6563
  0
LINE
  8
0
 10
20.7117
 20
-2.6563
 11
20.5365
 21
-2.69716
  0
LINE
  8
0
 10
20.5365
 20
-2.69716
 11
20.3589
 21
-2.72647
  0
LINE
  8
0
 10
20.3589
 20
-2.72647
 11
20.1799
 21
-2.74411
  0
LINE
  8
0
 10
20.1799
 20
-2.74411
 11
20
 21
-2.75
  0
LINE
  8
0
 10
20
 20
-2.75
 11
19.8201
 21
-2.74411
  0
LINE
  8
0
 10
-7.11118
 20
-15.6964
 11
-7.22189
 21
-15.6855
  0
LINE
  8
0
 10
-7.22189
 20
-15.6855
 11
-7.33165
 21
-15.6673
  0
LINE
  8
0
 10
-7.33165
 20
-15.6673
 11
-7.43999
 21
-15.6421
  0
LINE
  8
0
 10
-7.43999
 20
-15.6421
 11
-7.54643
 21
-15.6098
  0
LINE
  8
0
 10
-7.54643
 20
-15.6098
 11
-7.65056
 21
-15.5706
  0
LINE
  8
0
 10
-7.65056
 20
-15.5706
 11
-7.75188
 21
-15.5247
  0
LINE
  8
0
 10
-7.75188
 20
-15.5247
 11
-7.84999
 21
-15.4722
  0
LINE
  8
0
 10
-7.84999
 20
-15.4722
 11
-7.94446
 21
-15.4135
  0
LINE
  8
0
 10
-7.94446
 20
-15.4135
 11
-8.03488
 21
-15.3487
  0
LINE
  8
0
 10
-8.03488
 20
-15.3487
 11
-8.12088
 21
-15.2781
  0
LINE
  8
0
 10
-8.12088
 20
-15.2781
 11
-8.20207
 21
-15.2021
  0
LINE
  8
0
 10
-8.20207
 20
-15.2021
 11
-8.27812
 21
-15.1209
  0
LINE
  8
0
 10
-8.27812
 20
-15.1209
 11
-8.34869
 21
-15.0349
  0
LINE
  8
0
 10
-8.34869
 20
-15.0349
 11
-8.4135
 21
-14.9445
  0
LINE
  8
0
 10
-8.4135
 20
-14.9445
 11
-8.47223
 21
-14.85
  0
LINE
  8
0
 10
-8.47223
 20
-14.85
 11
-8.52467
 21
-14.7519
  0
LINE
  8
0
 10
-8.52467
 20
-14.7519
 11
-8.57059
 21
-14.6506
  0
LINE
  8
0
 10
-8.57059
 20
-14.6506
 11
-8.60977
 21
-14.5464
  0
LINE
  8
0
 10
-8.60977
 20
-14.5464
 11
-8.64206
 21
-14.44
  0
LINE
  8
0
 10
-8.64206
 20
-14.44
 11
-8.66733
 21
-14.3316
  0
LINE
  8
0
 10
-8.66733
 20
-14.3316
 11
-8.68546
 21
-14.2219
  0
LINE
  8
0
 10
-8.68546
 20
-14.2219
 11
-8.69635
 21
-14.1112
  0
LINE
  8
0
 10
-8.69635
 20
-14.1112
 11
-8.7
 21
-14
  0
LINE
  8
0
 10
-8.7
 20
-14
 11
-8.69635
 21
-13.8888
  0
LINE
  8
0
 10
-8.69635
 20
-13.8888
 11
-8.68546
 21
-13.7781
  0
LINE
  8
0
 10
-8.68546
 20
-13.7781
 11
-8.66733
 21
-13.6683
  0
LINE
  8
0
 10
-8.66733
 20
-13.6683
 11
-8.64206
 21
-13.56
  0
LINE
  8
0
 10
-8.64206
 20
-13.56
 11
-8.60977
 21
-13.4536
  0
LINE
  8
0
 10
-8.60977
 20
-13.4536
 11
-8.57059
 21
-13.3494
  0
LINE
  8
0
 10
-8.57059
 20
-13.3494
 11
-8.52467
 21
-13.2481
  0
LINE
  8
0
 10
-8.52467
 20
-13.2481
 11
-8.47223
 21
-13.15
  0
LINE
  8
0
 10
-8.47223
 20
-13.15
 11
-8.4135
 21
-13.0555
  0
LINE
  8
0
 10
-8.4135
 20
-13.0555
 11
-8.34869
 21
-12.9651
  0
LINE
  8
0
 10
-8.34869
 20
-12.9651
 11
-8.27812
 21
-12.8791
  0
LINE
  8
0
 10
-8.27812
 20
-12.8791
 11
-8.20207
 21
-12.7979
  0
LINE
  8
0
 10
-8.20207
 20
-12.7979
 11
-8.12088
 21
-12.7219
  0
LINE
  8
0
 10
-8.12088
 20
-12.7219
 11
-8.03488
 21
-12.6513
  0
LINE
  8
0
 10
-8.03488
 20
-12.6513
 11
-7.94446
 21
-12.5865
  0
LINE
  8
0
 10
-7.94446
 20
-12.5865
 11
-7.84999
 21
-12.5278
  0
LINE
  8
0
 10
-7.84999
 20
-12.5278
 11
-7.75188
 21
-12.4753
  0
LINE
  8
0
 10
-7.75188
 20
-12.4753
 11
-7.65056
 21
-12.4294
  0
LINE
  8
0
 10
-7.65056
 20
-12.4294
 11
-7.54643
 21
-12.3902
  0
LINE
  8
0
 10
-7.54643
 20
-12.3902
 11
-7.43999
 21
-12.3579
  0
LINE
  8
0
 10
-7.43999
 20
-12.3579
 11
-7.33165
 21
-12.3327
  0
LINE
  8
0
 10
-7.33165
 20
-12.3327
 11
-7.22189
 21
-12.3145
  0
LINE
  8
0
 10
-7.22189
 20
-12.3145
 11
-7.11118
 21
-12.3036
  0
LINE
  8
0
 10
-7.11118
 20
-12.3036
 11
-7
 21
-12.3
  0
LINE
  8
0
 10
-7
 20
-12.3
 11
-6.88881
 21
-12.3036
  0
LINE
  8
0
 10
-6.88881
 20
-12.3036
 11
-6.77809
 21
-12.3145
  0
LINE
  8
0
 10
-6.77809
 20
-12.3145
 11
-6.66833
 21
-12.3327
  0
LINE
  8
0
 10
-6.66833
 20
-12.3327
 11
-6.56
 21
-12.3579
  0
LINE
  8
0
 10
-6.56
 20
-12.3579
 11
-6.45355
 21
-12.3902
  0
LINE
  8
0
 10
-6.45355
 20
-12.3902
 11
-6.34943
 21
-12.4294
  0
LINE
  8
0
 10
-6.34943
 20
-12.4294
 11
-6.24811
 21
-12.4753
  0
LINE
  8
0
 10
-6.24811
 20
-12.4753
 11
-6.14999
 21
-12.5278
  0
LINE
  8
0
 10
-6.14999
 20
-12.5278
 11
-6.05553
 21
-12.5865
  0
LINE
  8
0
 10
-6.05553
 20
-12.5865
 11
-5.9651
 21
-12.6513
  0
LINE
  8
0
 10
-5.9651
 20
-12.6513
 11
-5.8791
 21
-12.7219
  0
LINE
  8
0
 10
-5.8791
 20
-12.7219
 11
-5.79791
 21
-12.7979
  0
LINE
  8
0
 10
-5.79791
 20
-12.7979
 11
-5.72186
 21
-12.8791
  0
LINE
  8
0
 10
-5.72186
 20
-12.8791
 11
-5.65129
 21
-12.9651
  0
LINE
  8
0
 10
-5.65129
 20
-12.9651
 11
-5.58649
 21
-13.0555
  0
LINE
  8
0
 10
-5.58649
 20
-13.0555
 11
-5.52776
 21
-13.15
  0
LINE
  8
0
 10
-5.52776
 20
-13.15
 11
-5.47531
 21
-13.2481
  0
LINE
  8
0
 10
-5.47531
 20
-13.2481
 11
-5.4294
 21
-13.3494
  0
LINE
  8
0
 10
-5.4294
 20
-13.3494
 11
-5.39021
 21
-13.4536
  0
LINE
  8
0
 10
-5.39021
 20
-13.4536
 11
-5.35793
 21
-13.56
  0
LINE
  8
0
 10
-5.35793
 20
-13.56
 11
-5.33266
 21
-13.6683
  0
LINE
  8
0
 10
-5.33266
 20
-13.6683
 11
-5.31453
 21
-13.7781
  0
LINE
  8
0
 10
-5.31453
 20
-13.7781
 11
-5.30363
 21
-13.8888
  0
LINE
  8
0
 10
-5.30363
 20
-13.8888
 11
-5.29999
 21
-14
  0
LINE
  8
0
 10
-5.29999
 20
-14
 11
-5.30363
 21
-14.1112
  0
LINE
  8
0
 10
-5.30363
 20
-14.1112
 11
-5.31453
 21
-14.2219
  0
LINE
  8
0
 10
-5.31453
 20
-14.2219
 11
-5.33266
 21
-14.3316
  0
LINE
  8
0
 10
-5.33266
 20
-14.3316
 11
-5.35793
 21
-14.44
  0
LINE
  8
0
 10
-5.35793
 20
-14.44
 11
-5.39021
 21
-14.5464
  0
LINE
  8
0
 10
-5.39021
 20
-14.5464
 11
-5.4294
 21
-14.6506
  0
LINE
  8
0
 10
-5.4294
 20
-14.6506
 11
-5.47531
 21
-14.7519
  0
LINE
  8
0
 10
-5.47531
 20
-14.7519
 11
-5.52776
 21
-14.85
  0
LINE
  8
0
 10
-5.52776
 20
-14.85
 11
-5.58649
 21
-14.9445
  0
LINE
  8
0
 10
-5.58649
 20
-14.9445
 11
-5.65129
 21
-15.0349
  0
LINE
  8
0
 10
-5.65129
 20
-15.0349
 11
-5.72186
 21
-15.1209
  0
LINE
  8
0
 10
-5.72186
 20
-15.1209
 11
-5.79791
 21
-15.2021
  0
LINE
  8
0
 10
-5.79791
 20
-15.2021
 11
-5.8791
 21
-15.2781
  0
LINE
  8
0
 10
-5.8791
 20
-15.2781
 11
-5.9651
 21
-15.3487
  0
LINE
  8
0
 10
-5.9651
 20
-15.3487
 11
-6.05553
 21
-15.4135
  0
LINE
  8
0
 10
-6.05553
 20
-15.4135
 11
-6.14999
 21
-15.4722
  0
LINE
  8
0
 10
-6.14999
 20
-15.4722
 11
-6.24811
 21
-15.5247
  0
LINE
  8
0
 10
-6.24811
 20
-15.5247
 11
-6.34943
 21
-15.5706
  0
LINE
  8
0
 10
-6.34943
 20
-15.5706
 11
-6.45355
 21
-15.6098
  0
LINE
  8
0
 10
-6.45355
 20
-15.6098
 11
-6.56
 21
-15.6421
  0
LINE
  8
0
 10
-6.56
 20
-15.6421
 11
-6.66833
 21
-15.6673
  0
LINE
  8
0
 10
-6.66833
 20
-15.6673
 11
-6.77809
 21
-15.6855
  0
LINE
  8
0
 10
-6.77809
 20
-15.6855
 11
-6.88881
 21
-15.6964
  0
LINE
  8
0
 10
-6.88881
 20
-15.6964
 11
-7
 21
-15.7
  0
LINE
  8
0
 10
-7
 20
-15.7
 11
-7.11118
 21
-15.6964
  0
LINE
  8
0
 10
6.88881
 20
-15.6964
 11
6.77809
 21
-15.6855
  0
LINE
  8
0
 10
6.77809
 20
-15.6855
 11
6.66833
 21
-15.6673
  0
LINE
  8
0
 10
6.66833
 20
-15.6673
 11
6.56
 21
-15.6421
  0
LINE
  8
0
 10
6.56
 20
-15.6421
 11
6.45355
 21
-15.6098
  0
LINE
  8
0
 10
6.45355
 20
-15.6098
 11
6.34943
 21
-15.5706
  0
LINE
  8
0
 10
6.34943
 20
-15.5706
 11
6.24811
 21
-15.5247
  0
LINE
  8
0
 10
6.24811
 20
-15.5247
 11
6.14999
 21
-15.4722
  0
LINE
  8
0
 10
6.14999
 20
-15.4722
 11
6.05553
 21
-15.4135
  0
LINE
  8
0
 10
6.05553
 20
-15.4135
 11
5.9651
 21
-15.3487
  0
LINE
  8
0
 10
5.9651
 20
-15.3487
 11
5.8791
 21
-15.2781
  0
LINE
  8
0
 10
5.8791
 20
-15.2781
 11
5.79791
 21
-15.2021
  0
LINE
  8
0
 10
5.79791
 20
-15.2021
 11
5.72186
 21
-15.1209
  0
LINE
  8
0
 10
5.72186
 20
-15.1209
 11
5.65129
 21
-15.0349
  0
LINE
  8
0
 10
5.65129
 20
-15.0349
 11
5.58649
 21
-14.9445
  0
LINE
  8
0
 10
5.58649
 20
-14.9445
 11
5.52776
 21
-14.85
  0
LINE
  8
0
 10
5.52776
 20
-14.85
 11
5.47531
 21
-14.7519
  0
LINE
  8
0
 10
5.47531
 20
-14.7519
 11
5.4294
 21
-14.6506
  0
LINE
  8
0
 10
5.4294
 20
-14.6506
 11
5.39021
 21
-14.5464
  0
LINE
  8
0
 10
5.39021
 20
-14.5464
 11
5.35793
 21
-14.44
  0
LINE
  8
0
 10
5.35793
 20
-14.44
 11
5.33266
 21
-14.3316
  0
LINE
  8
0
 10
5.33266
 20
-14.3316
 11
5.31453
 21
-14.2219
  0
LINE
  8
0
 10
5.31453
 20
-14.2219
 11
5.30363
 21
-14.1112
  0
LINE
  8
0
 10
5.30363
 20
-14.1112
 11
5.29999
 21
-14
  0
LINE
  8
0
 10
5.29999
 20
-14
 11
5.30363
 21
-13.8888
  0
LINE
  8
0
 10
5.30363
 20
-13.8888
 11
5.31453
 21
-13.7781
  0
LINE
  8
0
 10
5.31453
 20
-13.7781
 11
5.33266
 21
-13.6683
  0
LINE
  8
0
 10
5.33266
 20
-13.6683
 11
5.35793
 21
-13.56
  0
LINE
  8
0
 10
5.35793
 20
-13.56
 11
5.39021
 21
-13.4536
  0
LINE
  8
0
 10
5.39021
 20
-13.4536
 11
5.4294
 21
-13.3494
  0
LINE
  8
0
 10
5.4294
 20
-13.3494
 11
5.47531
 21
-13.2481
  0
LINE
  8
0
 10
5.47531
 20
-13.2481
 11
5.52776
 21
-13.15
  0
LINE
  8
0
 10
5.52776
 20
-13.15
 11
5.58649
 21
-13.0555
  0
LINE
  8
0
 10
5.58649
 20
-13.0555
 11
5.65129
 21
-12.9651
  0
LINE
  8
0
 10
5.65129
 20
-12.9651
 11
5.72186
 21
-12.8791
  0
LINE
  8
0
 10
5.72186
 20
-12.8791
 11
5.79791
 21
-12.7979
  0
LINE
  8
0
 10
5.79791
 20
-12.7979
 11
5.8791
 21
-12.7219
  0
LINE
  8
0
 10
5.8791
 20
-12.7219
 11
5.9651
 21
-12.6513
  0
LINE
  8
0
 10
5.9651
 20
-12.6513
 11
6.05553
 21
-12.5865
  0
LINE
  8
0
 10
6.05553
 20
-12.5865
 11
6.14999
 21
-12.5278
  0
LINE
  8
0
 10
6.14999
 20
-12.5278
 11
6.24811
 21
-12.4753
  0
LINE
  8
0
 10
6.24811
 20
-12.4753
 11
6.34943
 21
-12.4294
  0
LINE
  8
0
 10
6.34943
 20
-12.4294
 11
6.45355
 21
-12.3902
  0
LINE
  8
0
 10
6.45355
 20
-12.3902
 11
6.56
 21
-12.3579
  0
LINE
  8
0
 10
6.56
 20
-12.3579
 11
6.66833
 21
-12.3327
  0
LINE
  8
0
 10
6.66833
 20
-12.3327
 11
6.77809
 21
-12.3145
  0
LINE
  8
0
 10
6.77809
 20
-12.3145
 11
6.88881
 21
-12.3036
  0
LINE
  8
0
 10
6.88881
 20
-12.3036
 11
7
 21
-12.3
  0
LINE
  8
0
 10
7
 20
-12.3
 11
7.11118
 21
-12.3036
  0
LINE
  8
0
 10
7.11118
 20
-12.3036
 11
7.22189
 21
-12.3145
  0
LINE
  8
0
 10
7.22189
 20
-12.3145
 11
7.33165
 21
-12.3327
  0
LINE
  8
0
 10
7.33165
 20
-12.3327
 11
7.43999
 21
-12.3579
  0
LINE
  8
0
 10
7.43999
 20
-12.3579
 11
7.54643
 21
-12.3902
  0
LINE
  8
0
 10
7.54643
 20
-12.3902
 11
7.65056
 21
-12.4294
  0
LINE
  8
0
 10
7.65056
 20
-12.4294
 11
7.75188
 21
-12.4753
  0
LINE
  8
0
 10
7.75188
 20
-12.4753
 11
7.84999
 21
-12.5278
  0
LINE
  8
0
 10
7.84999
 20
-12.5278
 11
7.94446
 21
-12.5865
  0
LINE
  8
0
 10
7.94446
 20
-12.5865
 11
8.03488
 21
-12.6513
  0
LINE
  8
0
 10
8.03488
 20
-12.6513
 11
8.12088
 21
-12.7219
  0
LINE
  8
0
 10
8.12088
 20
-12.7219
 11
8.20207
 21
-12.7979
  0
LINE
  8
0
 10
8.20207
 20
-12.7979
 11
8.27812
 21
-12.8791
  0
LINE
  8
0
 10
8.27812
 20
-12.8791
 11
8.34869
 21
-12.9651
  0
LINE
  8
0
 10
8.34869
 20
-12.9651
 11
8.4135
 21
-13.0555
  0
LINE
  8
0
 10
8.4135
 20
-13.0555
 11
8.47223
 21
-13.15
  0
LINE
  8
0
 10
8.47223
 20
-13.15
 11
8.52467
 21
-13.2481
  0
LINE
  8
0
 10
8.52467
 20
-13.2481
 11
8.57059
 21
-13.3494
  0
LINE
  8
0
 10
8.57059
 20
-13.3494
 11
8.60977
 21
-13.4536
  0
LINE
  8
0
 10
8.60977
 20
-13.4536
 11
8.64206
 21
-13.56
  0
LINE
  8
0
 10
8.64206
 20
-13.56
 11
8.66733
 21
-13.6683
  0
LINE
  8
0
 10
8.66733
 20
-13.6683
 11
8.68546
 21
-13.7781
  0
LINE
  8
0
 10
8.68546
 20
-13.7781
 11
8.69635
 21
-13.8888
  0
LINE
  8
0
 10
8.69635
 20
-13.8888
 11
8.7
 21
-14
  0
LINE
  8
0
 10
8.7
 20
-14
 11
8.69635
 21
-14.1112
  0
LINE
  8
0
 10
8.69635
 20
-14.1112
 11
8.68546
 21
-14.2219
  0
LINE
  8
0
 10
8.68546
 20
-14.2219
 11
8.66733
 21
-14.3316
  0
LINE
  8
0
 10
8.66733
 20
-14.3316
 11
8.64206
 21
-14.44
  0
LINE
  8
0
 10
8.64206
 20
-14.44
 11
8.60977
 21
-14.5464
  0
LINE
  8
0
 10
8.60977
 20
-14.5464
 11
8.57059
 21
-14.6506
  0
LINE
  8
0
 10
8.57059
 20
-14.6506
 11
8.52467
 21
-14.7519
  0
LINE
  8
0
 10
8.52467
 20
-14.7519
 11
8.47223
 21
-14.85
  0
LINE
  8
0
 10
8.47223
 20
-14.85
 11
8.4135
 21
-14.9445
  0
LINE
  8
0
 10
8.4135
 20
-14.9445
 11
8.34869
 21
-15.0349
  0
LINE
  8
0
 10
8.34869
 20
-15.0349
 11
8.27812
 21
-15.1209
  0
LINE
  8
0
 10
8.27812
 20
-15.1209
 11
8.20207
 21
-15.2021
  0
LINE
  8
0
 10
8.20207
 20
-15.2021
 11
8.12088
 21
-15.2781
  0
LINE
  8
0
 10
8.12088
 20
-15.2781
 11
8.03488
 21
-15.3487
  0
LINE
  8
0
 10
8.03488
 20
-15.3487
 11
7.94446
 21
-15.4135
  0
LINE
  8
0
 10
7.94446
 20
-15.4135
 11
7.84999
 21
-15.4722
  0
LINE
  8
0
 10
7.84999
 20
-15.4722
 11
7.75188
 21
-15.5247
  0
LINE
  8
0
 10
7.75188
 20
-15.5247
 11
7.65056
 21
-15.5706
  0
LINE
  8
0
 10
7.65056
 20
-15.5706
 11
7.54643
 21
-15.6098
  0
LINE
  8
0
 10
7.54643
 20
-15.6098
 11
7.43999
 21
-15.6421
  0
LINE
  8
0
 10
7.43999
 20
-15.6421
 11
7.33165
 21
-15.6673
  0
LINE
  8
0
 10
7.33165
 20
-15.6673
 11
7.22189
 21
-15.6855
  0
LINE
  8
0
 10
7.22189
 20
-15.6855
 11
7.11118
 21
-15.6964
  0
LINE
  8
0
 10
7.11118
 20
-15.6964
 11
7
 21
-15.7
  0
LINE
  8
0
 10
7
 20
-15.7
 11
6.88881
 21
-15.6964
  0
ENDSEC
  0
SECTION
  2
OBJECTS
  0
DICTIONARY
  0
ENDSEC
  0
EOF
