<?xml version="1.0" standalone="no"?>
<!DOCTYPE svg PUBLIC "-//W3C//DTD SVG 1.1//EN" "http://www.w3.org/Graphics/SVG/1.1/DTD/svg11.dtd">
<svg width="64mm" height="64mm" viewBox="-32 -32 64 64" xmlns="http://www.w3.org/2000/svg" version="1.1">
<title>OpenSCAD Model</title>
<path d="
M 2.08308,31.7818 L 4.15726,31.5775 L 6.21362,31.238 L 8.24338,30.7647 L 10.2378,30.1597 L 12.1885,29.4256
 L 14.0869,28.5654 L 15.925,27.5829 L 17.6949,26.4823 L 19.389,25.2683 L 21.0002,23.9461 L 22.5213,22.5213
 L 23.9461,21.0002 L 25.2683,19.389 L 26.4823,17.6949 L 27.5829,15.925 L 28.5654,14.0869 L 29.4256,12.1885
 L 30.1597,10.2378 L 30.7647,8.24338 L 31.238,6.21362 L 31.5775,4.15726 L 31.7818,2.08308 L 31.85,-0
 L 31.7818,-2.08308 L 31.5775,-4.15726 L 31.238,-6.21362 L 30.7647,-8.24338 L 30.1597,-10.2378 L 29.4256,-12.1885
 L 28.5654,-14.0869 L 27.5829,-15.925 L 26.4823,-17.6949 L 25.2683,-19.389 L 23.9461,-21.0002 L 22.5213,-22.5213
 L 21.0002,-23.9461 L 19.389,-25.2683 L 17.6949,-26.4823 L 15.925,-27.5829 L 14.0869,-28.5654 L 12.1885,-29.4256
 L 10.2378,-30.1597 L 8.24338,-30.7647 L 6.21362,-31.238 L 4.15726,-31.5775 L 2.08308,-31.7818 L 0,-31.85
 L -2.08308,-31.7818 L -4.15726,-31.5775 L -6.21362,-31.238 L -8.24338,-30.7647 L -10.2378,-30.1597 L -12.1885,-29.4256
 L -14.0869,-28.5654 L -15.925,-27.5829 L -17.6949,-26.4823 L -19.389,-25.2683 L -21.0002,-23.9461 L -22.5213,-22.5213
 L -23.9461,-21.0002 L -25.2683,-19.389 L -26.4823,-17.6949 L -27.5829,-15.925 L -28.5654,-14.0869 L -29.4256,-12.1885
 L -30.1597,-10.2378 L -30.7647,-8.24338 L -31.238,-6.21362 L -31.5775,-4.15726 L -31.7818,-2.08308 L -31.85,-0
 L -31.7818,2.08308 L -31.5775,4.15726 L -31.238,6.21362 L -30.7647,8.24338 L -30.1597,10.2378 L -29.4256,12.1885
 L -28.5654,14.0869 L -27.5829,15.925 L -26.4823,17.6949 L -25.2683,19.389 L -23.9461,21.0002 L -22.5213,22.5213
 L -21.0002,23.9461 L -19.389,25.2683 L -17.6949,26.4823 L -15.925,27.5829 L -14.0869,28.5654 L -12.1885,29.4256
 L -10.2378,30.1597 L -8.24338,30.7647 L -6.21362,31.238 L -4.15726,31.5775 L -2.08308,31.7818 L 0,31.85
 z
M -1.02354,15.6165 L -2.04272,15.5161 L -3.05316,15.3493 L -4.05051,15.1167 L -5.03052,14.8194 L -5.98898,14.4587
 L -6.92181,14.0361 L -7.825,13.5533 L -8.69467,13.0125 L -8.73846,12.9811 L -11.0662,15.3089 L -15.3089,11.0662
 L -12.9811,8.73846 L -13.0125,8.69467 L -13.5533,7.825 L -14.0361,6.92181 L -14.4587,5.98898 L -14.8194,5.03052
 L -15.1167,4.05051 L -15.3493,3.05316 L -15.5161,2.04272 L -15.6165,1.02354 L -15.65,-0 L -15.6165,-1.02354
 L -15.5161,-2.04272 L -15.3493,-3.05316 L -15.1167,-4.05051 L -14.8194,-5.03052 L -14.4587,-5.98898 L -14.0361,-6.92181
 L -13.5533,-7.825 L -13.0125,-8.69467 L -12.416,-9.52711 L -11.7663,-10.3188 L -11.0662,-11.0662 L -10.3188,-11.7663
 L -9.52711,-12.416 L -8.69467,-13.0125 L -7.825,-13.5533 L -6.92181,-14.0361 L -5.98898,-14.4587 L -5.03052,-14.8194
 L -4.05051,-15.1167 L -3.05316,-15.3493 L -2.04272,-15.5161 L -1.02354,-15.6165 L 0,-15.65 L 1.02354,-15.6165
 L 2.04272,-15.5161 L 3.05316,-15.3493 L 4.05051,-15.1167 L 5.03052,-14.8194 L 5.98898,-14.4587 L 6.92181,-14.0361
 L 7.825,-13.5533 L 8.69467,-13.0125 L 9.52711,-12.416 L 10.3188,-11.7663 L 11.0662,-11.0662 L 11.7663,-10.3188
 L 12.416,-9.52711 L 13.0125,-8.69467 L 13.5533,-7.825 L 14.0361,-6.92181 L 14.4587,-5.98898 L 14.8194,-5.03052
 L 15.1167,-4.05051 L 15.3493,-3.05316 L 15.5161,-2.04272 L 15.6165,-1.02354 L 15.65,-0 L 15.6165,1.02354
 L 15.5161,2.04272 L 15.3493,3.05316 L 15.1167,4.05051 L 14.8194,5.03052 L 14.4587,5.98898 L 14.0361,6.92181
 L 13.5533,7.825 L 13.0125,8.69467 L 12.416,9.52711 L 11.7663,10.3188 L 11.0662,11.0662 L 10.3188,11.7663
 L 9.52711,12.416 L 8.69467,13.0125 L 7.825,13.5533 L 6.92181,14.0361 L 5.98898,14.4587 L 5.03052,14.8194
 L 4.05051,15.1167 L 3.05316,15.3493 L 2.04272,15.5161 L 1.02354,15.6165 L 0,15.65 z
" stroke="black" fill="lightgray" stroke-width="0.5"/>
</svg>
