  0
SECTION
  2
BLOCKS
  0
ENDSEC
  0
SECTION
  2
ENTITIES
  0
LINE
  8
0
 10
144
 20
0
 11
150
 21
0
  0
LINE
  8
0
 10
150
 20
0
 11
130
 21
60
  0
LINE
  8
0
 10
130
 20
60
 11
70
 21
60
  0
LINE
  8
0
 10
70
 20
60
 11
0
 21
0
  0
LINE
  8
0
 10
0
 20
0
 11
10
 21
0
  0
LINE
  8
0
 10
10
 20
0
 11
10
 21
-12.8
  0
LINE
  8
0
 10
10
 20
-12.8
 11
144
 21
-12.8
  0
LINE
  8
0
 10
144
 20
-12.8
 11
144
 21
0
  0
ENDSEC
  0
SECTION
  2
OBJECTS
  0
DICTIONARY
  0
ENDSEC
  0
EOF
