  0
SECTION
  2
BLOCKS
  0
ENDSEC
  0
SECTION
  2
ENTITIES
  0
LINE
  8
0
 10
2.08308
 20
-31.7818
 11
4.15726
 21
-31.5775
  0
LINE
  8
0
 10
4.15726
 20
-31.5775
 11
6.21362
 21
-31.238
  0
LINE
  8
0
 10
6.21362
 20
-31.238
 11
8.24338
 21
-30.7647
  0
LINE
  8
0
 10
8.24338
 20
-30.7647
 11
10.2378
 21
-30.1597
  0
LINE
  8
0
 10
10.2378
 20
-30.1597
 11
12.1885
 21
-29.4256
  0
LINE
  8
0
 10
12.1885
 20
-29.4256
 11
14.0869
 21
-28.5654
  0
LINE
  8
0
 10
14.0869
 20
-28.5654
 11
15.925
 21
-27.5829
  0
LINE
  8
0
 10
15.925
 20
-27.5829
 11
17.6949
 21
-26.4823
  0
LINE
  8
0
 10
17.6949
 20
-26.4823
 11
19.389
 21
-25.2683
  0
LINE
  8
0
 10
19.389
 20
-25.2683
 11
21.0002
 21
-23.9461
  0
LINE
  8
0
 10
21.0002
 20
-23.9461
 11
22.5213
 21
-22.5213
  0
LINE
  8
0
 10
22.5213
 20
-22.5213
 11
23.9461
 21
-21.0002
  0
LINE
  8
0
 10
23.9461
 20
-21.0002
 11
25.2683
 21
-19.389
  0
LINE
  8
0
 10
25.2683
 20
-19.389
 11
26.4823
 21
-17.6949
  0
LINE
  8
0
 10
26.4823
 20
-17.6949
 11
27.5829
 21
-15.925
  0
LINE
  8
0
 10
27.5829
 20
-15.925
 11
28.5654
 21
-14.0869
  0
LINE
  8
0
 10
28.5654
 20
-14.0869
 11
29.4256
 21
-12.1885
  0
LINE
  8
0
 10
29.4256
 20
-12.1885
 11
30.1597
 21
-10.2378
  0
LINE
  8
0
 10
30.1597
 20
-10.2378
 11
30.7647
 21
-8.24338
  0
LINE
  8
0
 10
30.7647
 20
-8.24338
 11
31.238
 21
-6.21362
  0
LINE
  8
0
 10
31.238
 20
-6.21362
 11
31.5775
 21
-4.15726
  0
LINE
  8
0
 10
31.5775
 20
-4.15726
 11
31.7818
 21
-2.08308
  0
LINE
  8
0
 10
31.7818
 20
-2.08308
 11
31.85
 21
0
  0
LINE
  8
0
 10
31.85
 20
0
 11
31.7818
 21
2.08308
  0
LINE
  8
0
 10
31.7818
 20
2.08308
 11
31.5775
 21
4.15726
  0
LINE
  8
0
 10
31.5775
 20
4.15726
 11
31.238
 21
6.21362
  0
LINE
  8
0
 10
31.238
 20
6.21362
 11
30.7647
 21
8.24338
  0
LINE
  8
0
 10
30.7647
 20
8.24338
 11
30.1597
 21
10.2378
  0
LINE
  8
0
 10
30.1597
 20
10.2378
 11
29.4256
 21
12.1885
  0
LINE
  8
0
 10
29.4256
 20
12.1885
 11
28.5654
 21
14.0869
  0
LINE
  8
0
 10
28.5654
 20
14.0869
 11
27.5829
 21
15.925
  0
LINE
  8
0
 10
27.5829
 20
15.925
 11
26.4823
 21
17.6949
  0
LINE
  8
0
 10
26.4823
 20
17.6949
 11
25.2683
 21
19.389
  0
LINE
  8
0
 10
25.2683
 20
19.389
 11
23.9461
 21
21.0002
  0
LINE
  8
0
 10
23.9461
 20
21.0002
 11
22.5213
 21
22.5213
  0
LINE
  8
0
 10
22.5213
 20
22.5213
 11
21.0002
 21
23.9461
  0
LINE
  8
0
 10
21.0002
 20
23.9461
 11
19.389
 21
25.2683
  0
LINE
  8
0
 10
19.389
 20
25.2683
 11
17.6949
 21
26.4823
  0
LINE
  8
0
 10
17.6949
 20
26.4823
 11
15.925
 21
27.5829
  0
LINE
  8
0
 10
15.925
 20
27.5829
 11
14.0869
 21
28.5654
  0
LINE
  8
0
 10
14.0869
 20
28.5654
 11
12.1885
 21
29.4256
  0
LINE
  8
0
 10
12.1885
 20
29.4256
 11
10.2378
 21
30.1597
  0
LINE
  8
0
 10
10.2378
 20
30.1597
 11
8.24338
 21
30.7647
  0
LINE
  8
0
 10
8.24338
 20
30.7647
 11
6.21362
 21
31.238
  0
LINE
  8
0
 10
6.21362
 20
31.238
 11
4.15726
 21
31.5775
  0
LINE
  8
0
 10
4.15726
 20
31.5775
 11
2.08308
 21
31.7818
  0
LINE
  8
0
 10
2.08308
 20
31.7818
 11
0
 21
31.85
  0
LINE
  8
0
 10
0
 20
31.85
 11
-2.08308
 21
31.7818
  0
LINE
  8
0
 10
-2.08308
 20
31.7818
 11
-4.15726
 21
31.5775
  0
LINE
  8
0
 10
-4.15726
 20
31.5775
 11
-6.21362
 21
31.238
  0
LINE
  8
0
 10
-6.21362
 20
31.238
 11
-8.24338
 21
30.7647
  0
LINE
  8
0
 10
-8.24338
 20
30.7647
 11
-10.2378
 21
30.1597
  0
LINE
  8
0
 10
-10.2378
 20
30.1597
 11
-12.1885
 21
29.4256
  0
LINE
  8
0
 10
-12.1885
 20
29.4256
 11
-14.0869
 21
28.5654
  0
LINE
  8
0
 10
-14.0869
 20
28.5654
 11
-15.925
 21
27.5829
  0
LINE
  8
0
 10
-15.925
 20
27.5829
 11
-17.6949
 21
26.4823
  0
LINE
  8
0
 10
-17.6949
 20
26.4823
 11
-19.389
 21
25.2683
  0
LINE
  8
0
 10
-19.389
 20
25.2683
 11
-21.0002
 21
23.9461
  0
LINE
  8
0
 10
-21.0002
 20
23.9461
 11
-22.5213
 21
22.5213
  0
LINE
  8
0
 10
-22.5213
 20
22.5213
 11
-23.9461
 21
21.0002
  0
LINE
  8
0
 10
-23.9461
 20
21.0002
 11
-25.2683
 21
19.389
  0
LINE
  8
0
 10
-25.2683
 20
19.389
 11
-26.4823
 21
17.6949
  0
LINE
  8
0
 10
-26.4823
 20
17.6949
 11
-27.5829
 21
15.925
  0
LINE
  8
0
 10
-27.5829
 20
15.925
 11
-28.5654
 21
14.0869
  0
LINE
  8
0
 10
-28.5654
 20
14.0869
 11
-29.4256
 21
12.1885
  0
LINE
  8
0
 10
-29.4256
 20
12.1885
 11
-30.1597
 21
10.2378
  0
LINE
  8
0
 10
-30.1597
 20
10.2378
 11
-30.7647
 21
8.24338
  0
LINE
  8
0
 10
-30.7647
 20
8.24338
 11
-31.238
 21
6.21362
  0
LINE
  8
0
 10
-31.238
 20
6.21362
 11
-31.5775
 21
4.15726
  0
LINE
  8
0
 10
-31.5775
 20
4.15726
 11
-31.7818
 21
2.08308
  0
LINE
  8
0
 10
-31.7818
 20
2.08308
 11
-31.85
 21
0
  0
LINE
  8
0
 10
-31.85
 20
0
 11
-31.7818
 21
-2.08308
  0
LINE
  8
0
 10
-31.7818
 20
-2.08308
 11
-31.5775
 21
-4.15726
  0
LINE
  8
0
 10
-31.5775
 20
-4.15726
 11
-31.238
 21
-6.21362
  0
LINE
  8
0
 10
-31.238
 20
-6.21362
 11
-30.7647
 21
-8.24338
  0
LINE
  8
0
 10
-30.7647
 20
-8.24338
 11
-30.1597
 21
-10.2378
  0
LINE
  8
0
 10
-30.1597
 20
-10.2378
 11
-29.4256
 21
-12.1885
  0
LINE
  8
0
 10
-29.4256
 20
-12.1885
 11
-28.5654
 21
-14.0869
  0
LINE
  8
0
 10
-28.5654
 20
-14.0869
 11
-27.5829
 21
-15.925
  0
LINE
  8
0
 10
-27.5829
 20
-15.925
 11
-26.4823
 21
-17.6949
  0
LINE
  8
0
 10
-26.4823
 20
-17.6949
 11
-25.2683
 21
-19.389
  0
LINE
  8
0
 10
-25.2683
 20
-19.389
 11
-23.9461
 21
-21.0002
  0
LINE
  8
0
 10
-23.9461
 20
-21.0002
 11
-22.5213
 21
-22.5213
  0
LINE
  8
0
 10
-22.5213
 20
-22.5213
 11
-21.0002
 21
-23.9461
  0
LINE
  8
0
 10
-21.0002
 20
-23.9461
 11
-19.389
 21
-25.2683
  0
LINE
  8
0
 10
-19.389
 20
-25.2683
 11
-17.6949
 21
-26.4823
  0
LINE
  8
0
 10
-17.6949
 20
-26.4823
 11
-15.925
 21
-27.5829
  0
LINE
  8
0
 10
-15.925
 20
-27.5829
 11
-14.0869
 21
-28.5654
  0
LINE
  8
0
 10
-14.0869
 20
-28.5654
 11
-12.1885
 21
-29.4256
  0
LINE
  8
0
 10
-12.1885
 20
-29.4256
 11
-10.2378
 21
-30.1597
  0
LINE
  8
0
 10
-10.2378
 20
-30.1597
 11
-8.24338
 21
-30.7647
  0
LINE
  8
0
 10
-8.24338
 20
-30.7647
 11
-6.21362
 21
-31.238
  0
LINE
  8
0
 10
-6.21362
 20
-31.238
 11
-4.15726
 21
-31.5775
  0
LINE
  8
0
 10
-4.15726
 20
-31.5775
 11
-2.08308
 21
-31.7818
  0
LINE
  8
0
 10
-2.08308
 20
-31.7818
 11
0
 21
-31.85
  0
LINE
  8
0
 10
0
 20
-31.85
 11
2.08308
 21
-31.7818
  0
LINE
  8
0
 10
-18.496
 20
16.6884
 11
-18.6067
 21
16.6993
  0
LINE
  8
0
 10
-18.6067
 20
16.6993
 11
-18.7164
 21
16.7174
  0
LINE
  8
0
 10
-18.7164
 20
16.7174
 11
-18.8248
 21
16.7427
  0
LINE
  8
0
 10
-18.8248
 20
16.7427
 11
-18.9312
 21
16.775
  0
LINE
  8
0
 10
-18.9312
 20
16.775
 11
-19.0353
 21
16.8142
  0
LINE
  8
0
 10
-19.0353
 20
16.8142
 11
-19.1367
 21
16.8601
  0
LINE
  8
0
 10
-19.1367
 20
16.8601
 11
-19.2348
 21
16.9125
  0
LINE
  8
0
 10
-19.2348
 20
16.9125
 11
-19.3292
 21
16.9713
  0
LINE
  8
0
 10
-19.3292
 20
16.9713
 11
-19.4197
 21
17.0361
  0
LINE
  8
0
 10
-19.4197
 20
17.0361
 11
-19.5057
 21
17.1066
  0
LINE
  8
0
 10
-19.5057
 20
17.1066
 11
-19.5869
 21
17.1827
  0
LINE
  8
0
 10
-19.5869
 20
17.1827
 11
-19.6629
 21
17.2639
  0
LINE
  8
0
 10
-19.6629
 20
17.2639
 11
-19.7335
 21
17.3499
  0
LINE
  8
0
 10
-19.7335
 20
17.3499
 11
-19.7983
 21
17.4403
  0
LINE
  8
0
 10
-19.7983
 20
17.4403
 11
-19.857
 21
17.5348
  0
LINE
  8
0
 10
-19.857
 20
17.5348
 11
-19.9095
 21
17.6329
  0
LINE
  8
0
 10
-19.9095
 20
17.6329
 11
-19.9554
 21
17.7342
  0
LINE
  8
0
 10
-19.9554
 20
17.7342
 11
-19.9946
 21
17.8383
  0
LINE
  8
0
 10
-19.9946
 20
17.8383
 11
-20.0268
 21
17.9448
  0
LINE
  8
0
 10
-20.0268
 20
17.9448
 11
-20.0521
 21
18.0531
  0
LINE
  8
0
 10
-20.0521
 20
18.0531
 11
-20.0702
 21
18.1629
  0
LINE
  8
0
 10
-20.0702
 20
18.1629
 11
-20.0811
 21
18.2736
  0
LINE
  8
0
 10
-20.0811
 20
18.2736
 11
-20.0848
 21
18.3848
  0
LINE
  8
0
 10
-20.0848
 20
18.3848
 11
-20.0811
 21
18.496
  0
LINE
  8
0
 10
-20.0811
 20
18.496
 11
-20.0702
 21
18.6067
  0
LINE
  8
0
 10
-20.0702
 20
18.6067
 11
-20.0521
 21
18.7164
  0
LINE
  8
0
 10
-20.0521
 20
18.7164
 11
-20.0268
 21
18.8248
  0
LINE
  8
0
 10
-20.0268
 20
18.8248
 11
-19.9946
 21
18.9312
  0
LINE
  8
0
 10
-19.9946
 20
18.9312
 11
-19.9554
 21
19.0353
  0
LINE
  8
0
 10
-19.9554
 20
19.0353
 11
-19.9095
 21
19.1367
  0
LINE
  8
0
 10
-19.9095
 20
19.1367
 11
-19.857
 21
19.2348
  0
LINE
  8
0
 10
-19.857
 20
19.2348
 11
-19.7983
 21
19.3292
  0
LINE
  8
0
 10
-19.7983
 20
19.3292
 11
-19.7335
 21
19.4197
  0
LINE
  8
0
 10
-19.7335
 20
19.4197
 11
-19.6629
 21
19.5057
  0
LINE
  8
0
 10
-19.6629
 20
19.5057
 11
-19.5869
 21
19.5869
  0
LINE
  8
0
 10
-19.5869
 20
19.5869
 11
-19.5057
 21
19.6629
  0
LINE
  8
0
 10
-19.5057
 20
19.6629
 11
-19.4197
 21
19.7335
  0
LINE
  8
0
 10
-19.4197
 20
19.7335
 11
-19.3292
 21
19.7983
  0
LINE
  8
0
 10
-19.3292
 20
19.7983
 11
-19.2348
 21
19.857
  0
LINE
  8
0
 10
-19.2348
 20
19.857
 11
-19.1367
 21
19.9095
  0
LINE
  8
0
 10
-19.1367
 20
19.9095
 11
-19.0353
 21
19.9554
  0
LINE
  8
0
 10
-19.0353
 20
19.9554
 11
-18.9312
 21
19.9946
  0
LINE
  8
0
 10
-18.9312
 20
19.9946
 11
-18.8248
 21
20.0268
  0
LINE
  8
0
 10
-18.8248
 20
20.0268
 11
-18.7164
 21
20.0521
  0
LINE
  8
0
 10
-18.7164
 20
20.0521
 11
-18.6067
 21
20.0702
  0
LINE
  8
0
 10
-18.6067
 20
20.0702
 11
-18.496
 21
20.0811
  0
LINE
  8
0
 10
-18.496
 20
20.0811
 11
-18.3848
 21
20.0848
  0
LINE
  8
0
 10
-18.3848
 20
20.0848
 11
-18.2736
 21
20.0811
  0
LINE
  8
0
 10
-18.2736
 20
20.0811
 11
-18.1629
 21
20.0702
  0
LINE
  8
0
 10
-18.1629
 20
20.0702
 11
-18.0531
 21
20.0521
  0
LINE
  8
0
 10
-18.0531
 20
20.0521
 11
-17.9448
 21
20.0268
  0
LINE
  8
0
 10
-17.9448
 20
20.0268
 11
-17.8383
 21
19.9946
  0
LINE
  8
0
 10
-17.8383
 20
19.9946
 11
-17.7342
 21
19.9554
  0
LINE
  8
0
 10
-17.7342
 20
19.9554
 11
-17.6329
 21
19.9095
  0
LINE
  8
0
 10
-17.6329
 20
19.9095
 11
-17.5348
 21
19.857
  0
LINE
  8
0
 10
-17.5348
 20
19.857
 11
-17.4403
 21
19.7983
  0
LINE
  8
0
 10
-17.4403
 20
19.7983
 11
-17.3499
 21
19.7335
  0
LINE
  8
0
 10
-17.3499
 20
19.7335
 11
-17.2639
 21
19.6629
  0
LINE
  8
0
 10
-17.2639
 20
19.6629
 11
-17.1827
 21
19.5869
  0
LINE
  8
0
 10
-17.1827
 20
19.5869
 11
-17.1066
 21
19.5057
  0
LINE
  8
0
 10
-17.1066
 20
19.5057
 11
-17.0361
 21
19.4197
  0
LINE
  8
0
 10
-17.0361
 20
19.4197
 11
-16.9713
 21
19.3292
  0
LINE
  8
0
 10
-16.9713
 20
19.3292
 11
-16.9125
 21
19.2348
  0
LINE
  8
0
 10
-16.9125
 20
19.2348
 11
-16.8601
 21
19.1367
  0
LINE
  8
0
 10
-16.8601
 20
19.1367
 11
-16.8142
 21
19.0353
  0
LINE
  8
0
 10
-16.8142
 20
19.0353
 11
-16.775
 21
18.9312
  0
LINE
  8
0
 10
-16.775
 20
18.9312
 11
-16.7427
 21
18.8248
  0
LINE
  8
0
 10
-16.7427
 20
18.8248
 11
-16.7174
 21
18.7164
  0
LINE
  8
0
 10
-16.7174
 20
18.7164
 11
-16.6993
 21
18.6067
  0
LINE
  8
0
 10
-16.6993
 20
18.6067
 11
-16.6884
 21
18.496
  0
LINE
  8
0
 10
-16.6884
 20
18.496
 11
-16.6848
 21
18.3848
  0
LINE
  8
0
 10
-16.6848
 20
18.3848
 11
-16.6884
 21
18.2736
  0
LINE
  8
0
 10
-16.6884
 20
18.2736
 11
-16.6993
 21
18.1629
  0
LINE
  8
0
 10
-16.6993
 20
18.1629
 11
-16.7174
 21
18.0531
  0
LINE
  8
0
 10
-16.7174
 20
18.0531
 11
-16.7427
 21
17.9448
  0
LINE
  8
0
 10
-16.7427
 20
17.9448
 11
-16.775
 21
17.8383
  0
LINE
  8
0
 10
-16.775
 20
17.8383
 11
-16.8142
 21
17.7342
  0
LINE
  8
0
 10
-16.8142
 20
17.7342
 11
-16.8601
 21
17.6329
  0
LINE
  8
0
 10
-16.8601
 20
17.6329
 11
-16.9125
 21
17.5348
  0
LINE
  8
0
 10
-16.9125
 20
17.5348
 11
-16.9713
 21
17.4403
  0
LINE
  8
0
 10
-16.9713
 20
17.4403
 11
-17.0361
 21
17.3499
  0
LINE
  8
0
 10
-17.0361
 20
17.3499
 11
-17.1066
 21
17.2639
  0
LINE
  8
0
 10
-17.1066
 20
17.2639
 11
-17.1827
 21
17.1827
  0
LINE
  8
0
 10
-17.1827
 20
17.1827
 11
-17.2639
 21
17.1066
  0
LINE
  8
0
 10
-17.2639
 20
17.1066
 11
-17.3499
 21
17.0361
  0
LINE
  8
0
 10
-17.3499
 20
17.0361
 11
-17.4403
 21
16.9713
  0
LINE
  8
0
 10
-17.4403
 20
16.9713
 11
-17.5348
 21
16.9125
  0
LINE
  8
0
 10
-17.5348
 20
16.9125
 11
-17.6329
 21
16.8601
  0
LINE
  8
0
 10
-17.6329
 20
16.8601
 11
-17.7342
 21
16.8142
  0
LINE
  8
0
 10
-17.7342
 20
16.8142
 11
-17.8383
 21
16.775
  0
LINE
  8
0
 10
-17.8383
 20
16.775
 11
-17.9448
 21
16.7427
  0
LINE
  8
0
 10
-17.9448
 20
16.7427
 11
-18.0531
 21
16.7174
  0
LINE
  8
0
 10
-18.0531
 20
16.7174
 11
-18.1629
 21
16.6993
  0
LINE
  8
0
 10
-18.1629
 20
16.6993
 11
-18.2736
 21
16.6884
  0
LINE
  8
0
 10
-18.2736
 20
16.6884
 11
-18.3848
 21
16.6848
  0
LINE
  8
0
 10
-18.3848
 20
16.6848
 11
-18.496
 21
16.6884
  0
LINE
  8
0
 10
18.2736
 20
16.6884
 11
18.1629
 21
16.6993
  0
LINE
  8
0
 10
18.1629
 20
16.6993
 11
18.0531
 21
16.7174
  0
LINE
  8
0
 10
18.0531
 20
16.7174
 11
17.9448
 21
16.7427
  0
LINE
  8
0
 10
17.9448
 20
16.7427
 11
17.8383
 21
16.775
  0
LINE
  8
0
 10
17.8383
 20
16.775
 11
17.7342
 21
16.8142
  0
LINE
  8
0
 10
17.7342
 20
16.8142
 11
17.6329
 21
16.8601
  0
LINE
  8
0
 10
17.6329
 20
16.8601
 11
17.5348
 21
16.9125
  0
LINE
  8
0
 10
17.5348
 20
16.9125
 11
17.4403
 21
16.9713
  0
LINE
  8
0
 10
17.4403
 20
16.9713
 11
17.3499
 21
17.0361
  0
LINE
  8
0
 10
17.3499
 20
17.0361
 11
17.2639
 21
17.1066
  0
LINE
  8
0
 10
17.2639
 20
17.1066
 11
17.1827
 21
17.1827
  0
LINE
  8
0
 10
17.1827
 20
17.1827
 11
17.1066
 21
17.2639
  0
LINE
  8
0
 10
17.1066
 20
17.2639
 11
17.0361
 21
17.3499
  0
LINE
  8
0
 10
17.0361
 20
17.3499
 11
16.9713
 21
17.4403
  0
LINE
  8
0
 10
16.9713
 20
17.4403
 11
16.9125
 21
17.5348
  0
LINE
  8
0
 10
16.9125
 20
17.5348
 11
16.8601
 21
17.6329
  0
LINE
  8
0
 10
16.8601
 20
17.6329
 11
16.8142
 21
17.7342
  0
LINE
  8
0
 10
16.8142
 20
17.7342
 11
16.775
 21
17.8383
  0
LINE
  8
0
 10
16.775
 20
17.8383
 11
16.7427
 21
17.9448
  0
LINE
  8
0
 10
16.7427
 20
17.9448
 11
16.7174
 21
18.0531
  0
LINE
  8
0
 10
16.7174
 20
18.0531
 11
16.6993
 21
18.1629
  0
LINE
  8
0
 10
16.6993
 20
18.1629
 11
16.6884
 21
18.2736
  0
LINE
  8
0
 10
16.6884
 20
18.2736
 11
16.6848
 21
18.3848
  0
LINE
  8
0
 10
16.6848
 20
18.3848
 11
16.6884
 21
18.496
  0
LINE
  8
0
 10
16.6884
 20
18.496
 11
16.6993
 21
18.6067
  0
LINE
  8
0
 10
16.6993
 20
18.6067
 11
16.7174
 21
18.7164
  0
LINE
  8
0
 10
16.7174
 20
18.7164
 11
16.7427
 21
18.8248
  0
LINE
  8
0
 10
16.7427
 20
18.8248
 11
16.775
 21
18.9312
  0
LINE
  8
0
 10
16.775
 20
18.9312
 11
16.8142
 21
19.0353
  0
LINE
  8
0
 10
16.8142
 20
19.0353
 11
16.8601
 21
19.1367
  0
LINE
  8
0
 10
16.8601
 20
19.1367
 11
16.9125
 21
19.2348
  0
LINE
  8
0
 10
16.9125
 20
19.2348
 11
16.9713
 21
19.3292
  0
LINE
  8
0
 10
16.9713
 20
19.3292
 11
17.0361
 21
19.4197
  0
LINE
  8
0
 10
17.0361
 20
19.4197
 11
17.1066
 21
19.5057
  0
LINE
  8
0
 10
17.1066
 20
19.5057
 11
17.1827
 21
19.5869
  0
LINE
  8
0
 10
17.1827
 20
19.5869
 11
17.2639
 21
19.6629
  0
LINE
  8
0
 10
17.2639
 20
19.6629
 11
17.3499
 21
19.7335
  0
LINE
  8
0
 10
17.3499
 20
19.7335
 11
17.4403
 21
19.7983
  0
LINE
  8
0
 10
17.4403
 20
19.7983
 11
17.5348
 21
19.857
  0
LINE
  8
0
 10
17.5348
 20
19.857
 11
17.6329
 21
19.9095
  0
LINE
  8
0
 10
17.6329
 20
19.9095
 11
17.7342
 21
19.9554
  0
LINE
  8
0
 10
17.7342
 20
19.9554
 11
17.8383
 21
19.9946
  0
LINE
  8
0
 10
17.8383
 20
19.9946
 11
17.9448
 21
20.0268
  0
LINE
  8
0
 10
17.9448
 20
20.0268
 11
18.0531
 21
20.0521
  0
LINE
  8
0
 10
18.0531
 20
20.0521
 11
18.1629
 21
20.0702
  0
LINE
  8
0
 10
18.1629
 20
20.0702
 11
18.2736
 21
20.0811
  0
LINE
  8
0
 10
18.2736
 20
20.0811
 11
18.3848
 21
20.0848
  0
LINE
  8
0
 10
18.3848
 20
20.0848
 11
18.496
 21
20.0811
  0
LINE
  8
0
 10
18.496
 20
20.0811
 11
18.6067
 21
20.0702
  0
LINE
  8
0
 10
18.6067
 20
20.0702
 11
18.7164
 21
20.0521
  0
LINE
  8
0
 10
18.7164
 20
20.0521
 11
18.8248
 21
20.0268
  0
LINE
  8
0
 10
18.8248
 20
20.0268
 11
18.9312
 21
19.9946
  0
LINE
  8
0
 10
18.9312
 20
19.9946
 11
19.0353
 21
19.9554
  0
LINE
  8
0
 10
19.0353
 20
19.9554
 11
19.1367
 21
19.9095
  0
LINE
  8
0
 10
19.1367
 20
19.9095
 11
19.2348
 21
19.857
  0
LINE
  8
0
 10
19.2348
 20
19.857
 11
19.3292
 21
19.7983
  0
LINE
  8
0
 10
19.3292
 20
19.7983
 11
19.4197
 21
19.7335
  0
LINE
  8
0
 10
19.4197
 20
19.7335
 11
19.5057
 21
19.6629
  0
LINE
  8
0
 10
19.5057
 20
19.6629
 11
19.5869
 21
19.5869
  0
LINE
  8
0
 10
19.5869
 20
19.5869
 11
19.6629
 21
19.5057
  0
LINE
  8
0
 10
19.6629
 20
19.5057
 11
19.7335
 21
19.4197
  0
LINE
  8
0
 10
19.7335
 20
19.4197
 11
19.7983
 21
19.3292
  0
LINE
  8
0
 10
19.7983
 20
19.3292
 11
19.857
 21
19.2348
  0
LINE
  8
0
 10
19.857
 20
19.2348
 11
19.9095
 21
19.1367
  0
LINE
  8
0
 10
19.9095
 20
19.1367
 11
19.9554
 21
19.0353
  0
LINE
  8
0
 10
19.9554
 20
19.0353
 11
19.9946
 21
18.9312
  0
LINE
  8
0
 10
19.9946
 20
18.9312
 11
20.0268
 21
18.8248
  0
LINE
  8
0
 10
20.0268
 20
18.8248
 11
20.0521
 21
18.7164
  0
LINE
  8
0
 10
20.0521
 20
18.7164
 11
20.0702
 21
18.6067
  0
LINE
  8
0
 10
20.0702
 20
18.6067
 11
20.0811
 21
18.496
  0
LINE
  8
0
 10
20.0811
 20
18.496
 11
20.0848
 21
18.3848
  0
LINE
  8
0
 10
20.0848
 20
18.3848
 11
20.0811
 21
18.2736
  0
LINE
  8
0
 10
20.0811
 20
18.2736
 11
20.0702
 21
18.1629
  0
LINE
  8
0
 10
20.0702
 20
18.1629
 11
20.0521
 21
18.0531
  0
LINE
  8
0
 10
20.0521
 20
18.0531
 11
20.0268
 21
17.9448
  0
LINE
  8
0
 10
20.0268
 20
17.9448
 11
19.9946
 21
17.8383
  0
LINE
  8
0
 10
19.9946
 20
17.8383
 11
19.9554
 21
17.7342
  0
LINE
  8
0
 10
19.9554
 20
17.7342
 11
19.9095
 21
17.6329
  0
LINE
  8
0
 10
19.9095
 20
17.6329
 11
19.857
 21
17.5348
  0
LINE
  8
0
 10
19.857
 20
17.5348
 11
19.7983
 21
17.4403
  0
LINE
  8
0
 10
19.7983
 20
17.4403
 11
19.7335
 21
17.3499
  0
LINE
  8
0
 10
19.7335
 20
17.3499
 11
19.6629
 21
17.2639
  0
LINE
  8
0
 10
19.6629
 20
17.2639
 11
19.5869
 21
17.1827
  0
LINE
  8
0
 10
19.5869
 20
17.1827
 11
19.5057
 21
17.1066
  0
LINE
  8
0
 10
19.5057
 20
17.1066
 11
19.4197
 21
17.0361
  0
LINE
  8
0
 10
19.4197
 20
17.0361
 11
19.3292
 21
16.9713
  0
LINE
  8
0
 10
19.3292
 20
16.9713
 11
19.2348
 21
16.9125
  0
LINE
  8
0
 10
19.2348
 20
16.9125
 11
19.1367
 21
16.8601
  0
LINE
  8
0
 10
19.1367
 20
16.8601
 11
19.0353
 21
16.8142
  0
LINE
  8
0
 10
19.0353
 20
16.8142
 11
18.9312
 21
16.775
  0
LINE
  8
0
 10
18.9312
 20
16.775
 11
18.8248
 21
16.7427
  0
LINE
  8
0
 10
18.8248
 20
16.7427
 11
18.7164
 21
16.7174
  0
LINE
  8
0
 10
18.7164
 20
16.7174
 11
18.6067
 21
16.6993
  0
LINE
  8
0
 10
18.6067
 20
16.6993
 11
18.496
 21
16.6884
  0
LINE
  8
0
 10
18.496
 20
16.6884
 11
18.3848
 21
16.6848
  0
LINE
  8
0
 10
18.3848
 20
16.6848
 11
18.2736
 21
16.6884
  0
LINE
  8
0
 10
-1.30806
 20
-19.9572
 11
-2.61052
 21
-19.8289
  0
LINE
  8
0
 10
-2.61052
 20
-19.8289
 11
-3.90179
 21
-19.6157
  0
LINE
  8
0
 10
-3.90179
 20
-19.6157
 11
-5.17638
 21
-19.3185
  0
LINE
  8
0
 10
-5.17638
 20
-19.3185
 11
-6.42879
 21
-18.9386
  0
LINE
  8
0
 10
-6.42879
 20
-18.9386
 11
-7.65366
 21
-18.4776
  0
LINE
  8
0
 10
-7.65366
 20
-18.4776
 11
-8.84576
 21
-17.9375
  0
LINE
  8
0
 10
-8.84576
 20
-17.9375
 11
-10
 21
-17.3205
  0
LINE
  8
0
 10
-10
 20
-17.3205
 11
-11.1114
 21
-16.6294
  0
LINE
  8
0
 10
-11.1114
 20
-16.6294
 11
-12.1752
 21
-15.8671
  0
LINE
  8
0
 10
-12.1752
 20
-15.8671
 11
-13.1869
 21
-15.0368
  0
LINE
  8
0
 10
-13.1869
 20
-15.0368
 11
-14.1421
 21
-14.1421
  0
LINE
  8
0
 10
-14.1421
 20
-14.1421
 11
-15.0368
 21
-13.1869
  0
LINE
  8
0
 10
-15.0368
 20
-13.1869
 11
-15.8671
 21
-12.1752
  0
LINE
  8
0
 10
-15.8671
 20
-12.1752
 11
-16.6294
 21
-11.1114
  0
LINE
  8
0
 10
-16.6294
 20
-11.1114
 11
-17.3205
 21
-10
  0
LINE
  8
0
 10
-17.3205
 20
-10
 11
-17.9375
 21
-8.84576
  0
LINE
  8
0
 10
-17.9375
 20
-8.84576
 11
-18.4776
 21
-7.65366
  0
LINE
  8
0
 10
-18.4776
 20
-7.65366
 11
-18.9386
 21
-6.42879
  0
LINE
  8
0
 10
-18.9386
 20
-6.42879
 11
-19.3185
 21
-5.17638
  0
LINE
  8
0
 10
-19.3185
 20
-5.17638
 11
-19.6157
 21
-3.90179
  0
LINE
  8
0
 10
-19.6157
 20
-3.90179
 11
-19.8289
 21
-2.61052
  0
LINE
  8
0
 10
-19.8289
 20
-2.61052
 11
-19.9572
 21
-1.30806
  0
LINE
  8
0
 10
-19.9572
 20
-1.30806
 11
-20
 21
0
  0
LINE
  8
0
 10
-20
 20
0
 11
-19.9572
 21
1.30806
  0
LINE
  8
0
 10
-19.9572
 20
1.30806
 11
-19.8289
 21
2.61052
  0
LINE
  8
0
 10
-19.8289
 20
2.61052
 11
-19.6157
 21
3.90179
  0
LINE
  8
0
 10
-19.6157
 20
3.90179
 11
-19.3185
 21
5.17638
  0
LINE
  8
0
 10
-19.3185
 20
5.17638
 11
-18.9386
 21
6.42879
  0
LINE
  8
0
 10
-18.9386
 20
6.42879
 11
-18.4776
 21
7.65366
  0
LINE
  8
0
 10
-18.4776
 20
7.65366
 11
-17.9375
 21
8.84576
  0
LINE
  8
0
 10
-17.9375
 20
8.84576
 11
-17.3205
 21
10
  0
LINE
  8
0
 10
-17.3205
 20
10
 11
-16.6294
 21
11.1114
  0
LINE
  8
0
 10
-16.6294
 20
11.1114
 11
-15.8671
 21
12.1752
  0
LINE
  8
0
 10
-15.8671
 20
12.1752
 11
-15.0368
 21
13.1869
  0
LINE
  8
0
 10
-15.0368
 20
13.1869
 11
-14.1421
 21
14.1421
  0
LINE
  8
0
 10
-14.1421
 20
14.1421
 11
-13.1869
 21
15.0368
  0
LINE
  8
0
 10
-13.1869
 20
15.0368
 11
-12.1752
 21
15.8671
  0
LINE
  8
0
 10
-12.1752
 20
15.8671
 11
-11.1114
 21
16.6294
  0
LINE
  8
0
 10
-11.1114
 20
16.6294
 11
-10
 21
17.3205
  0
LINE
  8
0
 10
-10
 20
17.3205
 11
-8.84576
 21
17.9375
  0
LINE
  8
0
 10
-8.84576
 20
17.9375
 11
-7.65366
 21
18.4776
  0
LINE
  8
0
 10
-7.65366
 20
18.4776
 11
-6.42879
 21
18.9386
  0
LINE
  8
0
 10
-6.42879
 20
18.9386
 11
-5.17638
 21
19.3185
  0
LINE
  8
0
 10
-5.17638
 20
19.3185
 11
-3.90179
 21
19.6157
  0
LINE
  8
0
 10
-3.90179
 20
19.6157
 11
-2.61052
 21
19.8289
  0
LINE
  8
0
 10
-2.61052
 20
19.8289
 11
-1.30806
 21
19.9572
  0
LINE
  8
0
 10
-1.30806
 20
19.9572
 11
0
 21
20
  0
LINE
  8
0
 10
0
 20
20
 11
1.30806
 21
19.9572
  0
LINE
  8
0
 10
1.30806
 20
19.9572
 11
2.61052
 21
19.8289
  0
LINE
  8
0
 10
2.61052
 20
19.8289
 11
3.90179
 21
19.6157
  0
LINE
  8
0
 10
3.90179
 20
19.6157
 11
5.17638
 21
19.3185
  0
LINE
  8
0
 10
5.17638
 20
19.3185
 11
6.42879
 21
18.9386
  0
LINE
  8
0
 10
6.42879
 20
18.9386
 11
7.65366
 21
18.4776
  0
LINE
  8
0
 10
7.65366
 20
18.4776
 11
8.84576
 21
17.9375
  0
LINE
  8
0
 10
8.84576
 20
17.9375
 11
10
 21
17.3205
  0
LINE
  8
0
 10
10
 20
17.3205
 11
11.1114
 21
16.6294
  0
LINE
  8
0
 10
11.1114
 20
16.6294
 11
12.1752
 21
15.8671
  0
LINE
  8
0
 10
12.1752
 20
15.8671
 11
13.1869
 21
15.0368
  0
LINE
  8
0
 10
13.1869
 20
15.0368
 11
14.1421
 21
14.1421
  0
LINE
  8
0
 10
14.1421
 20
14.1421
 11
15.0368
 21
13.1869
  0
LINE
  8
0
 10
15.0368
 20
13.1869
 11
15.8671
 21
12.1752
  0
LINE
  8
0
 10
15.8671
 20
12.1752
 11
16.6294
 21
11.1114
  0
LINE
  8
0
 10
16.6294
 20
11.1114
 11
17.3205
 21
10
  0
LINE
  8
0
 10
17.3205
 20
10
 11
17.9375
 21
8.84576
  0
LINE
  8
0
 10
17.9375
 20
8.84576
 11
18.4776
 21
7.65366
  0
LINE
  8
0
 10
18.4776
 20
7.65366
 11
18.9386
 21
6.42879
  0
LINE
  8
0
 10
18.9386
 20
6.42879
 11
19.3185
 21
5.17638
  0
LINE
  8
0
 10
19.3185
 20
5.17638
 11
19.6157
 21
3.90179
  0
LINE
  8
0
 10
19.6157
 20
3.90179
 11
19.8289
 21
2.61052
  0
LINE
  8
0
 10
19.8289
 20
2.61052
 11
19.9572
 21
1.30806
  0
LINE
  8
0
 10
19.9572
 20
1.30806
 11
20
 21
0
  0
LINE
  8
0
 10
20
 20
0
 11
19.9572
 21
-1.30806
  0
LINE
  8
0
 10
19.9572
 20
-1.30806
 11
19.8289
 21
-2.61052
  0
LINE
  8
0
 10
19.8289
 20
-2.61052
 11
19.6157
 21
-3.90179
  0
LINE
  8
0
 10
19.6157
 20
-3.90179
 11
19.3185
 21
-5.17638
  0
LINE
  8
0
 10
19.3185
 20
-5.17638
 11
18.9386
 21
-6.42879
  0
LINE
  8
0
 10
18.9386
 20
-6.42879
 11
18.4776
 21
-7.65366
  0
LINE
  8
0
 10
18.4776
 20
-7.65366
 11
17.9375
 21
-8.84576
  0
LINE
  8
0
 10
17.9375
 20
-8.84576
 11
17.3205
 21
-10
  0
LINE
  8
0
 10
17.3205
 20
-10
 11
16.6294
 21
-11.1114
  0
LINE
  8
0
 10
16.6294
 20
-11.1114
 11
15.8671
 21
-12.1752
  0
LINE
  8
0
 10
15.8671
 20
-12.1752
 11
15.0368
 21
-13.1869
  0
LINE
  8
0
 10
15.0368
 20
-13.1869
 11
14.1421
 21
-14.1421
  0
LINE
  8
0
 10
14.1421
 20
-14.1421
 11
13.1869
 21
-15.0368
  0
LINE
  8
0
 10
13.1869
 20
-15.0368
 11
12.1752
 21
-15.8671
  0
LINE
  8
0
 10
12.1752
 20
-15.8671
 11
11.1114
 21
-16.6294
  0
LINE
  8
0
 10
11.1114
 20
-16.6294
 11
10
 21
-17.3205
  0
LINE
  8
0
 10
10
 20
-17.3205
 11
8.84576
 21
-17.9375
  0
LINE
  8
0
 10
8.84576
 20
-17.9375
 11
7.65366
 21
-18.4776
  0
LINE
  8
0
 10
7.65366
 20
-18.4776
 11
6.42879
 21
-18.9386
  0
LINE
  8
0
 10
6.42879
 20
-18.9386
 11
5.17638
 21
-19.3185
  0
LINE
  8
0
 10
5.17638
 20
-19.3185
 11
3.90179
 21
-19.6157
  0
LINE
  8
0
 10
3.90179
 20
-19.6157
 11
2.61052
 21
-19.8289
  0
LINE
  8
0
 10
2.61052
 20
-19.8289
 11
1.30806
 21
-19.9572
  0
LINE
  8
0
 10
1.30806
 20
-19.9572
 11
0
 21
-20
  0
LINE
  8
0
 10
0
 20
-20
 11
-1.30806
 21
-19.9572
  0
LINE
  8
0
 10
-18.496
 20
-20.0811
 11
-18.6067
 21
-20.0702
  0
LINE
  8
0
 10
-18.6067
 20
-20.0702
 11
-18.7164
 21
-20.0521
  0
LINE
  8
0
 10
-18.7164
 20
-20.0521
 11
-18.8248
 21
-20.0268
  0
LINE
  8
0
 10
-18.8248
 20
-20.0268
 11
-18.9312
 21
-19.9946
  0
LINE
  8
0
 10
-18.9312
 20
-19.9946
 11
-19.0353
 21
-19.9554
  0
LINE
  8
0
 10
-19.0353
 20
-19.9554
 11
-19.1367
 21
-19.9095
  0
LINE
  8
0
 10
-19.1367
 20
-19.9095
 11
-19.2348
 21
-19.857
  0
LINE
  8
0
 10
-19.2348
 20
-19.857
 11
-19.3292
 21
-19.7983
  0
LINE
  8
0
 10
-19.3292
 20
-19.7983
 11
-19.4197
 21
-19.7335
  0
LINE
  8
0
 10
-19.4197
 20
-19.7335
 11
-19.5057
 21
-19.6629
  0
LINE
  8
0
 10
-19.5057
 20
-19.6629
 11
-19.5869
 21
-19.5869
  0
LINE
  8
0
 10
-19.5869
 20
-19.5869
 11
-19.6629
 21
-19.5057
  0
LINE
  8
0
 10
-19.6629
 20
-19.5057
 11
-19.7335
 21
-19.4197
  0
LINE
  8
0
 10
-19.7335
 20
-19.4197
 11
-19.7983
 21
-19.3292
  0
LINE
  8
0
 10
-19.7983
 20
-19.3292
 11
-19.857
 21
-19.2348
  0
LINE
  8
0
 10
-19.857
 20
-19.2348
 11
-19.9095
 21
-19.1367
  0
LINE
  8
0
 10
-19.9095
 20
-19.1367
 11
-19.9554
 21
-19.0353
  0
LINE
  8
0
 10
-19.9554
 20
-19.0353
 11
-19.9946
 21
-18.9312
  0
LINE
  8
0
 10
-19.9946
 20
-18.9312
 11
-20.0268
 21
-18.8248
  0
LINE
  8
0
 10
-20.0268
 20
-18.8248
 11
-20.0521
 21
-18.7164
  0
LINE
  8
0
 10
-20.0521
 20
-18.7164
 11
-20.0702
 21
-18.6067
  0
LINE
  8
0
 10
-20.0702
 20
-18.6067
 11
-20.0811
 21
-18.496
  0
LINE
  8
0
 10
-20.0811
 20
-18.496
 11
-20.0848
 21
-18.3848
  0
LINE
  8
0
 10
-20.0848
 20
-18.3848
 11
-20.0811
 21
-18.2736
  0
LINE
  8
0
 10
-20.0811
 20
-18.2736
 11
-20.0702
 21
-18.1629
  0
LINE
  8
0
 10
-20.0702
 20
-18.1629
 11
-20.0521
 21
-18.0531
  0
LINE
  8
0
 10
-20.0521
 20
-18.0531
 11
-20.0268
 21
-17.9448
  0
LINE
  8
0
 10
-20.0268
 20
-17.9448
 11
-19.9946
 21
-17.8383
  0
LINE
  8
0
 10
-19.9946
 20
-17.8383
 11
-19.9554
 21
-17.7342
  0
LINE
  8
0
 10
-19.9554
 20
-17.7342
 11
-19.9095
 21
-17.6329
  0
LINE
  8
0
 10
-19.9095
 20
-17.6329
 11
-19.857
 21
-17.5348
  0
LINE
  8
0
 10
-19.857
 20
-17.5348
 11
-19.7983
 21
-17.4403
  0
LINE
  8
0
 10
-19.7983
 20
-17.4403
 11
-19.7335
 21
-17.3499
  0
LINE
  8
0
 10
-19.7335
 20
-17.3499
 11
-19.6629
 21
-17.2639
  0
LINE
  8
0
 10
-19.6629
 20
-17.2639
 11
-19.5869
 21
-17.1827
  0
LINE
  8
0
 10
-19.5869
 20
-17.1827
 11
-19.5057
 21
-17.1066
  0
LINE
  8
0
 10
-19.5057
 20
-17.1066
 11
-19.4197
 21
-17.0361
  0
LINE
  8
0
 10
-19.4197
 20
-17.0361
 11
-19.3292
 21
-16.9713
  0
LINE
  8
0
 10
-19.3292
 20
-16.9713
 11
-19.2348
 21
-16.9125
  0
LINE
  8
0
 10
-19.2348
 20
-16.9125
 11
-19.1367
 21
-16.8601
  0
LINE
  8
0
 10
-19.1367
 20
-16.8601
 11
-19.0353
 21
-16.8142
  0
LINE
  8
0
 10
-19.0353
 20
-16.8142
 11
-18.9312
 21
-16.775
  0
LINE
  8
0
 10
-18.9312
 20
-16.775
 11
-18.8248
 21
-16.7427
  0
LINE
  8
0
 10
-18.8248
 20
-16.7427
 11
-18.7164
 21
-16.7174
  0
LINE
  8
0
 10
-18.7164
 20
-16.7174
 11
-18.6067
 21
-16.6993
  0
LINE
  8
0
 10
-18.6067
 20
-16.6993
 11
-18.496
 21
-16.6884
  0
LINE
  8
0
 10
-18.496
 20
-16.6884
 11
-18.3848
 21
-16.6848
  0
LINE
  8
0
 10
-18.3848
 20
-16.6848
 11
-18.2736
 21
-16.6884
  0
LINE
  8
0
 10
-18.2736
 20
-16.6884
 11
-18.1629
 21
-16.6993
  0
LINE
  8
0
 10
-18.1629
 20
-16.6993
 11
-18.0531
 21
-16.7174
  0
LINE
  8
0
 10
-18.0531
 20
-16.7174
 11
-17.9448
 21
-16.7427
  0
LINE
  8
0
 10
-17.9448
 20
-16.7427
 11
-17.8383
 21
-16.775
  0
LINE
  8
0
 10
-17.8383
 20
-16.775
 11
-17.7342
 21
-16.8142
  0
LINE
  8
0
 10
-17.7342
 20
-16.8142
 11
-17.6329
 21
-16.8601
  0
LINE
  8
0
 10
-17.6329
 20
-16.8601
 11
-17.5348
 21
-16.9125
  0
LINE
  8
0
 10
-17.5348
 20
-16.9125
 11
-17.4403
 21
-16.9713
  0
LINE
  8
0
 10
-17.4403
 20
-16.9713
 11
-17.3499
 21
-17.0361
  0
LINE
  8
0
 10
-17.3499
 20
-17.0361
 11
-17.2639
 21
-17.1066
  0
LINE
  8
0
 10
-17.2639
 20
-17.1066
 11
-17.1827
 21
-17.1827
  0
LINE
  8
0
 10
-17.1827
 20
-17.1827
 11
-17.1066
 21
-17.2639
  0
LINE
  8
0
 10
-17.1066
 20
-17.2639
 11
-17.0361
 21
-17.3499
  0
LINE
  8
0
 10
-17.0361
 20
-17.3499
 11
-16.9713
 21
-17.4403
  0
LINE
  8
0
 10
-16.9713
 20
-17.4403
 11
-16.9125
 21
-17.5348
  0
LINE
  8
0
 10
-16.9125
 20
-17.5348
 11
-16.8601
 21
-17.6329
  0
LINE
  8
0
 10
-16.8601
 20
-17.6329
 11
-16.8142
 21
-17.7342
  0
LINE
  8
0
 10
-16.8142
 20
-17.7342
 11
-16.775
 21
-17.8383
  0
LINE
  8
0
 10
-16.775
 20
-17.8383
 11
-16.7427
 21
-17.9448
  0
LINE
  8
0
 10
-16.7427
 20
-17.9448
 11
-16.7174
 21
-18.0531
  0
LINE
  8
0
 10
-16.7174
 20
-18.0531
 11
-16.6993
 21
-18.1629
  0
LINE
  8
0
 10
-16.6993
 20
-18.1629
 11
-16.6884
 21
-18.2736
  0
LINE
  8
0
 10
-16.6884
 20
-18.2736
 11
-16.6848
 21
-18.3848
  0
LINE
  8
0
 10
-16.6848
 20
-18.3848
 11
-16.6884
 21
-18.496
  0
LINE
  8
0
 10
-16.6884
 20
-18.496
 11
-16.6993
 21
-18.6067
  0
LINE
  8
0
 10
-16.6993
 20
-18.6067
 11
-16.7174
 21
-18.7164
  0
LINE
  8
0
 10
-16.7174
 20
-18.7164
 11
-16.7427
 21
-18.8248
  0
LINE
  8
0
 10
-16.7427
 20
-18.8248
 11
-16.775
 21
-18.9312
  0
LINE
  8
0
 10
-16.775
 20
-18.9312
 11
-16.8142
 21
-19.0353
  0
LINE
  8
0
 10
-16.8142
 20
-19.0353
 11
-16.8601
 21
-19.1367
  0
LINE
  8
0
 10
-16.8601
 20
-19.1367
 11
-16.9125
 21
-19.2348
  0
LINE
  8
0
 10
-16.9125
 20
-19.2348
 11
-16.9713
 21
-19.3292
  0
LINE
  8
0
 10
-16.9713
 20
-19.3292
 11
-17.0361
 21
-19.4197
  0
LINE
  8
0
 10
-17.0361
 20
-19.4197
 11
-17.1066
 21
-19.5057
  0
LINE
  8
0
 10
-17.1066
 20
-19.5057
 11
-17.1827
 21
-19.5869
  0
LINE
  8
0
 10
-17.1827
 20
-19.5869
 11
-17.2639
 21
-19.6629
  0
LINE
  8
0
 10
-17.2639
 20
-19.6629
 11
-17.3499
 21
-19.7335
  0
LINE
  8
0
 10
-17.3499
 20
-19.7335
 11
-17.4403
 21
-19.7983
  0
LINE
  8
0
 10
-17.4403
 20
-19.7983
 11
-17.5348
 21
-19.857
  0
LINE
  8
0
 10
-17.5348
 20
-19.857
 11
-17.6329
 21
-19.9095
  0
LINE
  8
0
 10
-17.6329
 20
-19.9095
 11
-17.7342
 21
-19.9554
  0
LINE
  8
0
 10
-17.7342
 20
-19.9554
 11
-17.8383
 21
-19.9946
  0
LINE
  8
0
 10
-17.8383
 20
-19.9946
 11
-17.9448
 21
-20.0268
  0
LINE
  8
0
 10
-17.9448
 20
-20.0268
 11
-18.0531
 21
-20.0521
  0
LINE
  8
0
 10
-18.0531
 20
-20.0521
 11
-18.1629
 21
-20.0702
  0
LINE
  8
0
 10
-18.1629
 20
-20.0702
 11
-18.2736
 21
-20.0811
  0
LINE
  8
0
 10
-18.2736
 20
-20.0811
 11
-18.3848
 21
-20.0848
  0
LINE
  8
0
 10
-18.3848
 20
-20.0848
 11
-18.496
 21
-20.0811
  0
LINE
  8
0
 10
18.2736
 20
-20.0811
 11
18.1629
 21
-20.0702
  0
LINE
  8
0
 10
18.1629
 20
-20.0702
 11
18.0531
 21
-20.0521
  0
LINE
  8
0
 10
18.0531
 20
-20.0521
 11
17.9448
 21
-20.0268
  0
LINE
  8
0
 10
17.9448
 20
-20.0268
 11
17.8383
 21
-19.9946
  0
LINE
  8
0
 10
17.8383
 20
-19.9946
 11
17.7342
 21
-19.9554
  0
LINE
  8
0
 10
17.7342
 20
-19.9554
 11
17.6329
 21
-19.9095
  0
LINE
  8
0
 10
17.6329
 20
-19.9095
 11
17.5348
 21
-19.857
  0
LINE
  8
0
 10
17.5348
 20
-19.857
 11
17.4403
 21
-19.7983
  0
LINE
  8
0
 10
17.4403
 20
-19.7983
 11
17.3499
 21
-19.7335
  0
LINE
  8
0
 10
17.3499
 20
-19.7335
 11
17.2639
 21
-19.6629
  0
LINE
  8
0
 10
17.2639
 20
-19.6629
 11
17.1827
 21
-19.5869
  0
LINE
  8
0
 10
17.1827
 20
-19.5869
 11
17.1066
 21
-19.5057
  0
LINE
  8
0
 10
17.1066
 20
-19.5057
 11
17.0361
 21
-19.4197
  0
LINE
  8
0
 10
17.0361
 20
-19.4197
 11
16.9713
 21
-19.3292
  0
LINE
  8
0
 10
16.9713
 20
-19.3292
 11
16.9125
 21
-19.2348
  0
LINE
  8
0
 10
16.9125
 20
-19.2348
 11
16.8601
 21
-19.1367
  0
LINE
  8
0
 10
16.8601
 20
-19.1367
 11
16.8142
 21
-19.0353
  0
LINE
  8
0
 10
16.8142
 20
-19.0353
 11
16.775
 21
-18.9312
  0
LINE
  8
0
 10
16.775
 20
-18.9312
 11
16.7427
 21
-18.8248
  0
LINE
  8
0
 10
16.7427
 20
-18.8248
 11
16.7174
 21
-18.7164
  0
LINE
  8
0
 10
16.7174
 20
-18.7164
 11
16.6993
 21
-18.6067
  0
LINE
  8
0
 10
16.6993
 20
-18.6067
 11
16.6884
 21
-18.496
  0
LINE
  8
0
 10
16.6884
 20
-18.496
 11
16.6848
 21
-18.3848
  0
LINE
  8
0
 10
16.6848
 20
-18.3848
 11
16.6884
 21
-18.2736
  0
LINE
  8
0
 10
16.6884
 20
-18.2736
 11
16.6993
 21
-18.1629
  0
LINE
  8
0
 10
16.6993
 20
-18.1629
 11
16.7174
 21
-18.0531
  0
LINE
  8
0
 10
16.7174
 20
-18.0531
 11
16.7427
 21
-17.9448
  0
LINE
  8
0
 10
16.7427
 20
-17.9448
 11
16.775
 21
-17.8383
  0
LINE
  8
0
 10
16.775
 20
-17.8383
 11
16.8142
 21
-17.7342
  0
LINE
  8
0
 10
16.8142
 20
-17.7342
 11
16.8601
 21
-17.6329
  0
LINE
  8
0
 10
16.8601
 20
-17.6329
 11
16.9125
 21
-17.5348
  0
LINE
  8
0
 10
16.9125
 20
-17.5348
 11
16.9713
 21
-17.4403
  0
LINE
  8
0
 10
16.9713
 20
-17.4403
 11
17.0361
 21
-17.3499
  0
LINE
  8
0
 10
17.0361
 20
-17.3499
 11
17.1066
 21
-17.2639
  0
LINE
  8
0
 10
17.1066
 20
-17.2639
 11
17.1827
 21
-17.1827
  0
LINE
  8
0
 10
17.1827
 20
-17.1827
 11
17.2639
 21
-17.1066
  0
LINE
  8
0
 10
17.2639
 20
-17.1066
 11
17.3499
 21
-17.0361
  0
LINE
  8
0
 10
17.3499
 20
-17.0361
 11
17.4403
 21
-16.9713
  0
LINE
  8
0
 10
17.4403
 20
-16.9713
 11
17.5348
 21
-16.9125
  0
LINE
  8
0
 10
17.5348
 20
-16.9125
 11
17.6329
 21
-16.8601
  0
LINE
  8
0
 10
17.6329
 20
-16.8601
 11
17.7342
 21
-16.8142
  0
LINE
  8
0
 10
17.7342
 20
-16.8142
 11
17.8383
 21
-16.775
  0
LINE
  8
0
 10
17.8383
 20
-16.775
 11
17.9448
 21
-16.7427
  0
LINE
  8
0
 10
17.9448
 20
-16.7427
 11
18.0531
 21
-16.7174
  0
LINE
  8
0
 10
18.0531
 20
-16.7174
 11
18.1629
 21
-16.6993
  0
LINE
  8
0
 10
18.1629
 20
-16.6993
 11
18.2736
 21
-16.6884
  0
LINE
  8
0
 10
18.2736
 20
-16.6884
 11
18.3848
 21
-16.6848
  0
LINE
  8
0
 10
18.3848
 20
-16.6848
 11
18.496
 21
-16.6884
  0
LINE
  8
0
 10
18.496
 20
-16.6884
 11
18.6067
 21
-16.6993
  0
LINE
  8
0
 10
18.6067
 20
-16.6993
 11
18.7164
 21
-16.7174
  0
LINE
  8
0
 10
18.7164
 20
-16.7174
 11
18.8248
 21
-16.7427
  0
LINE
  8
0
 10
18.8248
 20
-16.7427
 11
18.9312
 21
-16.775
  0
LINE
  8
0
 10
18.9312
 20
-16.775
 11
19.0353
 21
-16.8142
  0
LINE
  8
0
 10
19.0353
 20
-16.8142
 11
19.1367
 21
-16.8601
  0
LINE
  8
0
 10
19.1367
 20
-16.8601
 11
19.2348
 21
-16.9125
  0
LINE
  8
0
 10
19.2348
 20
-16.9125
 11
19.3292
 21
-16.9713
  0
LINE
  8
0
 10
19.3292
 20
-16.9713
 11
19.4197
 21
-17.0361
  0
LINE
  8
0
 10
19.4197
 20
-17.0361
 11
19.5057
 21
-17.1066
  0
LINE
  8
0
 10
19.5057
 20
-17.1066
 11
19.5869
 21
-17.1827
  0
LINE
  8
0
 10
19.5869
 20
-17.1827
 11
19.6629
 21
-17.2639
  0
LINE
  8
0
 10
19.6629
 20
-17.2639
 11
19.7335
 21
-17.3499
  0
LINE
  8
0
 10
19.7335
 20
-17.3499
 11
19.7983
 21
-17.4403
  0
LINE
  8
0
 10
19.7983
 20
-17.4403
 11
19.857
 21
-17.5348
  0
LINE
  8
0
 10
19.857
 20
-17.5348
 11
19.9095
 21
-17.6329
  0
LINE
  8
0
 10
19.9095
 20
-17.6329
 11
19.9554
 21
-17.7342
  0
LINE
  8
0
 10
19.9554
 20
-17.7342
 11
19.9946
 21
-17.8383
  0
LINE
  8
0
 10
19.9946
 20
-17.8383
 11
20.0268
 21
-17.9448
  0
LINE
  8
0
 10
20.0268
 20
-17.9448
 11
20.0521
 21
-18.0531
  0
LINE
  8
0
 10
20.0521
 20
-18.0531
 11
20.0702
 21
-18.1629
  0
LINE
  8
0
 10
20.0702
 20
-18.1629
 11
20.0811
 21
-18.2736
  0
LINE
  8
0
 10
20.0811
 20
-18.2736
 11
20.0848
 21
-18.3848
  0
LINE
  8
0
 10
20.0848
 20
-18.3848
 11
20.0811
 21
-18.496
  0
LINE
  8
0
 10
20.0811
 20
-18.496
 11
20.0702
 21
-18.6067
  0
LINE
  8
0
 10
20.0702
 20
-18.6067
 11
20.0521
 21
-18.7164
  0
LINE
  8
0
 10
20.0521
 20
-18.7164
 11
20.0268
 21
-18.8248
  0
LINE
  8
0
 10
20.0268
 20
-18.8248
 11
19.9946
 21
-18.9312
  0
LINE
  8
0
 10
19.9946
 20
-18.9312
 11
19.9554
 21
-19.0353
  0
LINE
  8
0
 10
19.9554
 20
-19.0353
 11
19.9095
 21
-19.1367
  0
LINE
  8
0
 10
19.9095
 20
-19.1367
 11
19.857
 21
-19.2348
  0
LINE
  8
0
 10
19.857
 20
-19.2348
 11
19.7983
 21
-19.3292
  0
LINE
  8
0
 10
19.7983
 20
-19.3292
 11
19.7335
 21
-19.4197
  0
LINE
  8
0
 10
19.7335
 20
-19.4197
 11
19.6629
 21
-19.5057
  0
LINE
  8
0
 10
19.6629
 20
-19.5057
 11
19.5869
 21
-19.5869
  0
LINE
  8
0
 10
19.5869
 20
-19.5869
 11
19.5057
 21
-19.6629
  0
LINE
  8
0
 10
19.5057
 20
-19.6629
 11
19.4197
 21
-19.7335
  0
LINE
  8
0
 10
19.4197
 20
-19.7335
 11
19.3292
 21
-19.7983
  0
LINE
  8
0
 10
19.3292
 20
-19.7983
 11
19.2348
 21
-19.857
  0
LINE
  8
0
 10
19.2348
 20
-19.857
 11
19.1367
 21
-19.9095
  0
LINE
  8
0
 10
19.1367
 20
-19.9095
 11
19.0353
 21
-19.9554
  0
LINE
  8
0
 10
19.0353
 20
-19.9554
 11
18.9312
 21
-19.9946
  0
LINE
  8
0
 10
18.9312
 20
-19.9946
 11
18.8248
 21
-20.0268
  0
LINE
  8
0
 10
18.8248
 20
-20.0268
 11
18.7164
 21
-20.0521
  0
LINE
  8
0
 10
18.7164
 20
-20.0521
 11
18.6067
 21
-20.0702
  0
LINE
  8
0
 10
18.6067
 20
-20.0702
 11
18.496
 21
-20.0811
  0
LINE
  8
0
 10
18.496
 20
-20.0811
 11
18.3848
 21
-20.0848
  0
LINE
  8
0
 10
18.3848
 20
-20.0848
 11
18.2736
 21
-20.0811
  0
ENDSEC
  0
SECTION
  2
OBJECTS
  0
DICTIONARY
  0
ENDSEC
  0
EOF
