  0
SECTION
  2
BLOCKS
  0
ENDSEC
  0
SECTION
  2
ENTITIES
  0
LINE
  8
0
 10
2.08308
 20
-31.7818
 11
4.15726
 21
-31.5775
  0
LINE
  8
0
 10
4.15726
 20
-31.5775
 11
6.21362
 21
-31.238
  0
LINE
  8
0
 10
6.21362
 20
-31.238
 11
8.24338
 21
-30.7647
  0
LINE
  8
0
 10
8.24338
 20
-30.7647
 11
10.2378
 21
-30.1597
  0
LINE
  8
0
 10
10.2378
 20
-30.1597
 11
12.1885
 21
-29.4256
  0
LINE
  8
0
 10
12.1885
 20
-29.4256
 11
14.0869
 21
-28.5654
  0
LINE
  8
0
 10
14.0869
 20
-28.5654
 11
15.925
 21
-27.5829
  0
LINE
  8
0
 10
15.925
 20
-27.5829
 11
17.6949
 21
-26.4823
  0
LINE
  8
0
 10
17.6949
 20
-26.4823
 11
19.389
 21
-25.2683
  0
LINE
  8
0
 10
19.389
 20
-25.2683
 11
21.0002
 21
-23.9461
  0
LINE
  8
0
 10
21.0002
 20
-23.9461
 11
22.5213
 21
-22.5213
  0
LINE
  8
0
 10
22.5213
 20
-22.5213
 11
23.9461
 21
-21.0002
  0
LINE
  8
0
 10
23.9461
 20
-21.0002
 11
25.2683
 21
-19.389
  0
LINE
  8
0
 10
25.2683
 20
-19.389
 11
26.4823
 21
-17.6949
  0
LINE
  8
0
 10
26.4823
 20
-17.6949
 11
27.5829
 21
-15.925
  0
LINE
  8
0
 10
27.5829
 20
-15.925
 11
28.5654
 21
-14.0869
  0
LINE
  8
0
 10
28.5654
 20
-14.0869
 11
29.4256
 21
-12.1885
  0
LINE
  8
0
 10
29.4256
 20
-12.1885
 11
30.1597
 21
-10.2378
  0
LINE
  8
0
 10
30.1597
 20
-10.2378
 11
30.7647
 21
-8.24338
  0
LINE
  8
0
 10
30.7647
 20
-8.24338
 11
31.238
 21
-6.21362
  0
LINE
  8
0
 10
31.238
 20
-6.21362
 11
31.5775
 21
-4.15726
  0
LINE
  8
0
 10
31.5775
 20
-4.15726
 11
31.7818
 21
-2.08308
  0
LINE
  8
0
 10
31.7818
 20
-2.08308
 11
31.85
 21
0
  0
LINE
  8
0
 10
31.85
 20
0
 11
31.7818
 21
2.08308
  0
LINE
  8
0
 10
31.7818
 20
2.08308
 11
31.5775
 21
4.15726
  0
LINE
  8
0
 10
31.5775
 20
4.15726
 11
31.238
 21
6.21362
  0
LINE
  8
0
 10
31.238
 20
6.21362
 11
30.7647
 21
8.24338
  0
LINE
  8
0
 10
30.7647
 20
8.24338
 11
30.1597
 21
10.2378
  0
LINE
  8
0
 10
30.1597
 20
10.2378
 11
29.4256
 21
12.1885
  0
LINE
  8
0
 10
29.4256
 20
12.1885
 11
28.5654
 21
14.0869
  0
LINE
  8
0
 10
28.5654
 20
14.0869
 11
27.5829
 21
15.925
  0
LINE
  8
0
 10
27.5829
 20
15.925
 11
26.4823
 21
17.6949
  0
LINE
  8
0
 10
26.4823
 20
17.6949
 11
25.2683
 21
19.389
  0
LINE
  8
0
 10
25.2683
 20
19.389
 11
23.9461
 21
21.0002
  0
LINE
  8
0
 10
23.9461
 20
21.0002
 11
22.5213
 21
22.5213
  0
LINE
  8
0
 10
22.5213
 20
22.5213
 11
21.0002
 21
23.9461
  0
LINE
  8
0
 10
21.0002
 20
23.9461
 11
19.389
 21
25.2683
  0
LINE
  8
0
 10
19.389
 20
25.2683
 11
17.6949
 21
26.4823
  0
LINE
  8
0
 10
17.6949
 20
26.4823
 11
15.925
 21
27.5829
  0
LINE
  8
0
 10
15.925
 20
27.5829
 11
14.0869
 21
28.5654
  0
LINE
  8
0
 10
14.0869
 20
28.5654
 11
12.1885
 21
29.4256
  0
LINE
  8
0
 10
12.1885
 20
29.4256
 11
10.2378
 21
30.1597
  0
LINE
  8
0
 10
10.2378
 20
30.1597
 11
8.24338
 21
30.7647
  0
LINE
  8
0
 10
8.24338
 20
30.7647
 11
6.21362
 21
31.238
  0
LINE
  8
0
 10
6.21362
 20
31.238
 11
4.15726
 21
31.5775
  0
LINE
  8
0
 10
4.15726
 20
31.5775
 11
2.08308
 21
31.7818
  0
LINE
  8
0
 10
2.08308
 20
31.7818
 11
0
 21
31.85
  0
LINE
  8
0
 10
0
 20
31.85
 11
-2.08308
 21
31.7818
  0
LINE
  8
0
 10
-2.08308
 20
31.7818
 11
-4.15726
 21
31.5775
  0
LINE
  8
0
 10
-4.15726
 20
31.5775
 11
-6.21362
 21
31.238
  0
LINE
  8
0
 10
-6.21362
 20
31.238
 11
-8.24338
 21
30.7647
  0
LINE
  8
0
 10
-8.24338
 20
30.7647
 11
-10.2378
 21
30.1597
  0
LINE
  8
0
 10
-10.2378
 20
30.1597
 11
-12.1885
 21
29.4256
  0
LINE
  8
0
 10
-12.1885
 20
29.4256
 11
-14.0869
 21
28.5654
  0
LINE
  8
0
 10
-14.0869
 20
28.5654
 11
-15.925
 21
27.5829
  0
LINE
  8
0
 10
-15.925
 20
27.5829
 11
-17.6949
 21
26.4823
  0
LINE
  8
0
 10
-17.6949
 20
26.4823
 11
-19.389
 21
25.2683
  0
LINE
  8
0
 10
-19.389
 20
25.2683
 11
-21.0002
 21
23.9461
  0
LINE
  8
0
 10
-21.0002
 20
23.9461
 11
-22.5213
 21
22.5213
  0
LINE
  8
0
 10
-22.5213
 20
22.5213
 11
-23.9461
 21
21.0002
  0
LINE
  8
0
 10
-23.9461
 20
21.0002
 11
-25.2683
 21
19.389
  0
LINE
  8
0
 10
-25.2683
 20
19.389
 11
-26.4823
 21
17.6949
  0
LINE
  8
0
 10
-26.4823
 20
17.6949
 11
-27.5829
 21
15.925
  0
LINE
  8
0
 10
-27.5829
 20
15.925
 11
-28.5654
 21
14.0869
  0
LINE
  8
0
 10
-28.5654
 20
14.0869
 11
-29.4256
 21
12.1885
  0
LINE
  8
0
 10
-29.4256
 20
12.1885
 11
-30.1597
 21
10.2378
  0
LINE
  8
0
 10
-30.1597
 20
10.2378
 11
-30.7647
 21
8.24338
  0
LINE
  8
0
 10
-30.7647
 20
8.24338
 11
-31.238
 21
6.21362
  0
LINE
  8
0
 10
-31.238
 20
6.21362
 11
-31.5775
 21
4.15726
  0
LINE
  8
0
 10
-31.5775
 20
4.15726
 11
-31.7818
 21
2.08308
  0
LINE
  8
0
 10
-31.7818
 20
2.08308
 11
-31.85
 21
0
  0
LINE
  8
0
 10
-31.85
 20
0
 11
-31.7818
 21
-2.08308
  0
LINE
  8
0
 10
-31.7818
 20
-2.08308
 11
-31.5775
 21
-4.15726
  0
LINE
  8
0
 10
-31.5775
 20
-4.15726
 11
-31.238
 21
-6.21362
  0
LINE
  8
0
 10
-31.238
 20
-6.21362
 11
-30.7647
 21
-8.24338
  0
LINE
  8
0
 10
-30.7647
 20
-8.24338
 11
-30.1597
 21
-10.2378
  0
LINE
  8
0
 10
-30.1597
 20
-10.2378
 11
-29.4256
 21
-12.1885
  0
LINE
  8
0
 10
-29.4256
 20
-12.1885
 11
-28.5654
 21
-14.0869
  0
LINE
  8
0
 10
-28.5654
 20
-14.0869
 11
-27.5829
 21
-15.925
  0
LINE
  8
0
 10
-27.5829
 20
-15.925
 11
-26.4823
 21
-17.6949
  0
LINE
  8
0
 10
-26.4823
 20
-17.6949
 11
-25.2683
 21
-19.389
  0
LINE
  8
0
 10
-25.2683
 20
-19.389
 11
-23.9461
 21
-21.0002
  0
LINE
  8
0
 10
-23.9461
 20
-21.0002
 11
-22.5213
 21
-22.5213
  0
LINE
  8
0
 10
-22.5213
 20
-22.5213
 11
-21.0002
 21
-23.9461
  0
LINE
  8
0
 10
-21.0002
 20
-23.9461
 11
-19.389
 21
-25.2683
  0
LINE
  8
0
 10
-19.389
 20
-25.2683
 11
-17.6949
 21
-26.4823
  0
LINE
  8
0
 10
-17.6949
 20
-26.4823
 11
-15.925
 21
-27.5829
  0
LINE
  8
0
 10
-15.925
 20
-27.5829
 11
-14.0869
 21
-28.5654
  0
LINE
  8
0
 10
-14.0869
 20
-28.5654
 11
-12.1885
 21
-29.4256
  0
LINE
  8
0
 10
-12.1885
 20
-29.4256
 11
-10.2378
 21
-30.1597
  0
LINE
  8
0
 10
-10.2378
 20
-30.1597
 11
-8.24338
 21
-30.7647
  0
LINE
  8
0
 10
-8.24338
 20
-30.7647
 11
-6.21362
 21
-31.238
  0
LINE
  8
0
 10
-6.21362
 20
-31.238
 11
-4.15726
 21
-31.5775
  0
LINE
  8
0
 10
-4.15726
 20
-31.5775
 11
-2.08308
 21
-31.7818
  0
LINE
  8
0
 10
-2.08308
 20
-31.7818
 11
0
 21
-31.85
  0
LINE
  8
0
 10
0
 20
-31.85
 11
2.08308
 21
-31.7818
  0
LINE
  8
0
 10
-1.02354
 20
-15.6165
 11
-2.04272
 21
-15.5161
  0
LINE
  8
0
 10
-2.04272
 20
-15.5161
 11
-3.05316
 21
-15.3493
  0
LINE
  8
0
 10
-3.05316
 20
-15.3493
 11
-4.05051
 21
-15.1167
  0
LINE
  8
0
 10
-4.05051
 20
-15.1167
 11
-5.03052
 21
-14.8194
  0
LINE
  8
0
 10
-5.03052
 20
-14.8194
 11
-5.98898
 21
-14.4587
  0
LINE
  8
0
 10
-5.98898
 20
-14.4587
 11
-6.92181
 21
-14.0361
  0
LINE
  8
0
 10
-6.92181
 20
-14.0361
 11
-7.825
 21
-13.5533
  0
LINE
  8
0
 10
-7.825
 20
-13.5533
 11
-8.69467
 21
-13.0125
  0
LINE
  8
0
 10
-8.69467
 20
-13.0125
 11
-8.73846
 21
-12.9811
  0
LINE
  8
0
 10
-8.73846
 20
-12.9811
 11
-11.0662
 21
-15.3089
  0
LINE
  8
0
 10
-11.0662
 20
-15.3089
 11
-15.3089
 21
-11.0662
  0
LINE
  8
0
 10
-15.3089
 20
-11.0662
 11
-12.9811
 21
-8.73846
  0
LINE
  8
0
 10
-12.9811
 20
-8.73846
 11
-13.0125
 21
-8.69467
  0
LINE
  8
0
 10
-13.0125
 20
-8.69467
 11
-13.5533
 21
-7.825
  0
LINE
  8
0
 10
-13.5533
 20
-7.825
 11
-14.0361
 21
-6.92181
  0
LINE
  8
0
 10
-14.0361
 20
-6.92181
 11
-14.4587
 21
-5.98898
  0
LINE
  8
0
 10
-14.4587
 20
-5.98898
 11
-14.8194
 21
-5.03052
  0
LINE
  8
0
 10
-14.8194
 20
-5.03052
 11
-15.1167
 21
-4.05051
  0
LINE
  8
0
 10
-15.1167
 20
-4.05051
 11
-15.3493
 21
-3.05316
  0
LINE
  8
0
 10
-15.3493
 20
-3.05316
 11
-15.5161
 21
-2.04272
  0
LINE
  8
0
 10
-15.5161
 20
-2.04272
 11
-15.6165
 21
-1.02354
  0
LINE
  8
0
 10
-15.6165
 20
-1.02354
 11
-15.65
 21
0
  0
LINE
  8
0
 10
-15.65
 20
0
 11
-15.6165
 21
1.02354
  0
LINE
  8
0
 10
-15.6165
 20
1.02354
 11
-15.5161
 21
2.04272
  0
LINE
  8
0
 10
-15.5161
 20
2.04272
 11
-15.3493
 21
3.05316
  0
LINE
  8
0
 10
-15.3493
 20
3.05316
 11
-15.1167
 21
4.05051
  0
LINE
  8
0
 10
-15.1167
 20
4.05051
 11
-14.8194
 21
5.03052
  0
LINE
  8
0
 10
-14.8194
 20
5.03052
 11
-14.4587
 21
5.98898
  0
LINE
  8
0
 10
-14.4587
 20
5.98898
 11
-14.0361
 21
6.92181
  0
LINE
  8
0
 10
-14.0361
 20
6.92181
 11
-13.5533
 21
7.825
  0
LINE
  8
0
 10
-13.5533
 20
7.825
 11
-13.0125
 21
8.69467
  0
LINE
  8
0
 10
-13.0125
 20
8.69467
 11
-12.416
 21
9.52711
  0
LINE
  8
0
 10
-12.416
 20
9.52711
 11
-11.7663
 21
10.3188
  0
LINE
  8
0
 10
-11.7663
 20
10.3188
 11
-11.0662
 21
11.0662
  0
LINE
  8
0
 10
-11.0662
 20
11.0662
 11
-10.3188
 21
11.7663
  0
LINE
  8
0
 10
-10.3188
 20
11.7663
 11
-9.52711
 21
12.416
  0
LINE
  8
0
 10
-9.52711
 20
12.416
 11
-8.69467
 21
13.0125
  0
LINE
  8
0
 10
-8.69467
 20
13.0125
 11
-7.825
 21
13.5533
  0
LINE
  8
0
 10
-7.825
 20
13.5533
 11
-6.92181
 21
14.0361
  0
LINE
  8
0
 10
-6.92181
 20
14.0361
 11
-5.98898
 21
14.4587
  0
LINE
  8
0
 10
-5.98898
 20
14.4587
 11
-5.03052
 21
14.8194
  0
LINE
  8
0
 10
-5.03052
 20
14.8194
 11
-4.05051
 21
15.1167
  0
LINE
  8
0
 10
-4.05051
 20
15.1167
 11
-3.05316
 21
15.3493
  0
LINE
  8
0
 10
-3.05316
 20
15.3493
 11
-2.04272
 21
15.5161
  0
LINE
  8
0
 10
-2.04272
 20
15.5161
 11
-1.02354
 21
15.6165
  0
LINE
  8
0
 10
-1.02354
 20
15.6165
 11
0
 21
15.65
  0
LINE
  8
0
 10
0
 20
15.65
 11
1.02354
 21
15.6165
  0
LINE
  8
0
 10
1.02354
 20
15.6165
 11
2.04272
 21
15.5161
  0
LINE
  8
0
 10
2.04272
 20
15.5161
 11
3.05316
 21
15.3493
  0
LINE
  8
0
 10
3.05316
 20
15.3493
 11
4.05051
 21
15.1167
  0
LINE
  8
0
 10
4.05051
 20
15.1167
 11
5.03052
 21
14.8194
  0
LINE
  8
0
 10
5.03052
 20
14.8194
 11
5.98898
 21
14.4587
  0
LINE
  8
0
 10
5.98898
 20
14.4587
 11
6.92181
 21
14.0361
  0
LINE
  8
0
 10
6.92181
 20
14.0361
 11
7.825
 21
13.5533
  0
LINE
  8
0
 10
7.825
 20
13.5533
 11
8.69467
 21
13.0125
  0
LINE
  8
0
 10
8.69467
 20
13.0125
 11
9.52711
 21
12.416
  0
LINE
  8
0
 10
9.52711
 20
12.416
 11
10.3188
 21
11.7663
  0
LINE
  8
0
 10
10.3188
 20
11.7663
 11
11.0662
 21
11.0662
  0
LINE
  8
0
 10
11.0662
 20
11.0662
 11
11.7663
 21
10.3188
  0
LINE
  8
0
 10
11.7663
 20
10.3188
 11
12.416
 21
9.52711
  0
LINE
  8
0
 10
12.416
 20
9.52711
 11
13.0125
 21
8.69467
  0
LINE
  8
0
 10
13.0125
 20
8.69467
 11
13.5533
 21
7.825
  0
LINE
  8
0
 10
13.5533
 20
7.825
 11
14.0361
 21
6.92181
  0
LINE
  8
0
 10
14.0361
 20
6.92181
 11
14.4587
 21
5.98898
  0
LINE
  8
0
 10
14.4587
 20
5.98898
 11
14.8194
 21
5.03052
  0
LINE
  8
0
 10
14.8194
 20
5.03052
 11
15.1167
 21
4.05051
  0
LINE
  8
0
 10
15.1167
 20
4.05051
 11
15.3493
 21
3.05316
  0
LINE
  8
0
 10
15.3493
 20
3.05316
 11
15.5161
 21
2.04272
  0
LINE
  8
0
 10
15.5161
 20
2.04272
 11
15.6165
 21
1.02354
  0
LINE
  8
0
 10
15.6165
 20
1.02354
 11
15.65
 21
0
  0
LINE
  8
0
 10
15.65
 20
0
 11
15.6165
 21
-1.02354
  0
LINE
  8
0
 10
15.6165
 20
-1.02354
 11
15.5161
 21
-2.04272
  0
LINE
  8
0
 10
15.5161
 20
-2.04272
 11
15.3493
 21
-3.05316
  0
LINE
  8
0
 10
15.3493
 20
-3.05316
 11
15.1167
 21
-4.05051
  0
LINE
  8
0
 10
15.1167
 20
-4.05051
 11
14.8194
 21
-5.03052
  0
LINE
  8
0
 10
14.8194
 20
-5.03052
 11
14.4587
 21
-5.98898
  0
LINE
  8
0
 10
14.4587
 20
-5.98898
 11
14.0361
 21
-6.92181
  0
LINE
  8
0
 10
14.0361
 20
-6.92181
 11
13.5533
 21
-7.825
  0
LINE
  8
0
 10
13.5533
 20
-7.825
 11
13.0125
 21
-8.69467
  0
LINE
  8
0
 10
13.0125
 20
-8.69467
 11
12.416
 21
-9.52711
  0
LINE
  8
0
 10
12.416
 20
-9.52711
 11
11.7663
 21
-10.3188
  0
LINE
  8
0
 10
11.7663
 20
-10.3188
 11
11.0662
 21
-11.0662
  0
LINE
  8
0
 10
11.0662
 20
-11.0662
 11
10.3188
 21
-11.7663
  0
LINE
  8
0
 10
10.3188
 20
-11.7663
 11
9.52711
 21
-12.416
  0
LINE
  8
0
 10
9.52711
 20
-12.416
 11
8.69467
 21
-13.0125
  0
LINE
  8
0
 10
8.69467
 20
-13.0125
 11
7.825
 21
-13.5533
  0
LINE
  8
0
 10
7.825
 20
-13.5533
 11
6.92181
 21
-14.0361
  0
LINE
  8
0
 10
6.92181
 20
-14.0361
 11
5.98898
 21
-14.4587
  0
LINE
  8
0
 10
5.98898
 20
-14.4587
 11
5.03052
 21
-14.8194
  0
LINE
  8
0
 10
5.03052
 20
-14.8194
 11
4.05051
 21
-15.1167
  0
LINE
  8
0
 10
4.05051
 20
-15.1167
 11
3.05316
 21
-15.3493
  0
LINE
  8
0
 10
3.05316
 20
-15.3493
 11
2.04272
 21
-15.5161
  0
LINE
  8
0
 10
2.04272
 20
-15.5161
 11
1.02354
 21
-15.6165
  0
LINE
  8
0
 10
1.02354
 20
-15.6165
 11
0
 21
-15.65
  0
LINE
  8
0
 10
0
 20
-15.65
 11
-1.02354
 21
-15.6165
  0
ENDSEC
  0
SECTION
  2
OBJECTS
  0
DICTIONARY
  0
ENDSEC
  0
EOF
